<?xml version="1.0" encoding="utf-8"?>
<!-- Generator: Adobe Illustrator 16.0.0, SVG Export Plug-In . SVG Version: 6.00 Build 0)  -->
<!DOCTYPE svg PUBLIC "-//W3C//DTD SVG 1.1//EN" "http://www.w3.org/Graphics/SVG/1.1/DTD/svg11.dtd">
<svg version="1.1" id="Ebene_1" xmlns="http://www.w3.org/2000/svg" xmlns:xlink="http://www.w3.org/1999/xlink" x="0px" y="0px"
	 width="7.361px" height="12.996px" viewBox="0 0 7.361 12.996" enable-background="new 0 0 7.361 12.996" xml:space="preserve">
<g>
	<path fill="#FFFFFF" d="M0,3.708c0-0.54,0.075-1.038,0.226-1.494c0.149-0.456,0.372-0.846,0.666-1.17
		C1.185,0.72,1.557,0.465,2.007,0.279C2.457,0.093,2.976,0,3.564,0c1.271,0,2.224,0.315,2.854,0.945
		c0.63,0.63,0.944,1.474,0.944,2.529c0,0.504-0.081,0.972-0.242,1.404c-0.163,0.432-0.46,0.9-0.892,1.404l-0.721,0.81
		C5.196,7.439,4.971,7.758,4.833,8.046s-0.207,0.66-0.207,1.116v0.27H2.394V8.73c0-0.602,0.084-1.107,0.252-1.521
		C2.813,6.795,3.102,6.36,3.51,5.904L4.194,5.13c0.252-0.276,0.43-0.573,0.531-0.891c0.103-0.318,0.152-0.657,0.152-1.017
		c0-0.456-0.103-0.825-0.307-1.107c-0.203-0.282-0.51-0.423-0.918-0.423c-0.455,0-0.782,0.183-0.98,0.549
		C2.475,2.607,2.376,3.084,2.376,3.672v0.45H0V3.708z M4.752,12.996H2.268V10.62h2.483V12.996z"/>
</g>
</svg>
