<svg xmlns="http://www.w3.org/2000/svg" viewBox="0 0 16 16" stroke-linejoin="round" stroke-linecap="round" stroke="currentColor" fill="none"><g clip-path="url(#a)"><path stroke-width="1.5" d="M14.667 8A6.667 6.667 0 0 1 8 14.667M14.667 8A6.667 6.667 0 0 0 8 1.333M14.667 8H1.333M8 14.667A6.667 6.667 0 0 1 1.333 8M8 14.667A10.2 10.2 0 0 0 10.667 8 10.2 10.2 0 0 0 8 1.333m0 13.334A10.2 10.2 0 0 1 5.333 8 10.2 10.2 0 0 1 8 1.333M1.333 8A6.667 6.667 0 0 1 8 1.333"/></g><defs><clipPath id="a"><path d="M0 0H16V16H0z"/></clipPath></defs></svg>