<svg xmlns="http://www.w3.org/2000/svg" viewBox="0 0 16 16" stroke-linejoin="round" stroke-linecap="round" stroke="currentColor" fill="none"><g clip-path="url(#a)"><path stroke-width="1.5" d="M3.333 10h-.666a1.333 1.333 0 0 1-1.334-1.333v-6a1.333 1.333 0 0 1 1.334-1.334h6A1.333 1.333 0 0 1 10 2.667v.666M7.333 6h6c.737 0 1.334.597 1.334 1.333v6c0 .737-.597 1.334-1.334 1.334h-6A1.333 1.333 0 0 1 6 13.333v-6C6 6.597 6.597 6 7.333 6Z"/></g><defs><clipPath id="a"><path d="M0 0H16V16H0z"/></clipPath></defs></svg>