<svg xmlns="http://www.w3.org/2000/svg" viewBox="0 0 56 56" stroke-linejoin="round" stroke-linecap="round" stroke="currentColor" fill="none"><g stroke-width="3.5" clip-path="url(#a)"><path d="M28 35a7 7 0 1 0 0-14 7 7 0 0 0 0 14Z"/><path d="M45.267 35a3.85 3.85 0 0 0 .77 4.247l.14.14a4.668 4.668 0 0 1-3.302 7.972 4.667 4.667 0 0 1-3.302-1.369l-.14-.14a3.85 3.85 0 0 0-4.246-.77 3.85 3.85 0 0 0-2.334 3.523V49a4.667 4.667 0 0 1-9.333 0v-.21A3.85 3.85 0 0 0 21 45.267a3.85 3.85 0 0 0-4.247.77l-.14.14a4.668 4.668 0 0 1-7.972-3.302 4.667 4.667 0 0 1 1.369-3.302l.14-.14a3.85 3.85 0 0 0 .77-4.246 3.85 3.85 0 0 0-3.523-2.334H7a4.667 4.667 0 0 1 0-9.333h.21A3.85 3.85 0 0 0 10.733 21a3.85 3.85 0 0 0-.77-4.247l-.14-.14a4.667 4.667 0 0 1 1.515-7.616 4.667 4.667 0 0 1 5.089 1.013l.14.14a3.85 3.85 0 0 0 4.246.77H21a3.85 3.85 0 0 0 2.333-3.523V7a4.666 4.666 0 1 1 9.334 0v.21A3.85 3.85 0 0 0 35 10.733a3.85 3.85 0 0 0 4.247-.77l.14-.14a4.667 4.667 0 0 1 7.616 1.515 4.667 4.667 0 0 1-1.013 5.089l-.14.14a3.85 3.85 0 0 0-.77 4.246V21a3.85 3.85 0 0 0 3.523 2.333H49a4.667 4.667 0 1 1 0 9.334h-.21A3.85 3.85 0 0 0 45.267 35Z"/></g><defs><clipPath id="a"><path d="M0 0H56V56H0z"/></clipPath></defs></svg>