<svg xmlns="http://www.w3.org/2000/svg" viewBox="0 0 40 40" stroke-linejoin="round" stroke-linecap="round" stroke="currentColor" fill="none"><g stroke-width="2.5" clip-path="url(#a)"><path d="M20 25a5 5 0 1 0 0-10 5 5 0 0 0 0 10Z"/><path d="M32.333 25a2.75 2.75 0 0 0 .55 3.033l.1.1a3.333 3.333 0 0 1-1.082 5.44 3.334 3.334 0 0 1-3.634-.723l-.1-.1a2.75 2.75 0 0 0-3.034-.55 2.749 2.749 0 0 0-1.666 2.517V35a3.333 3.333 0 0 1-6.667 0v-.15a2.75 2.75 0 0 0-1.8-2.517 2.75 2.75 0 0 0-3.033.55l-.1.1a3.333 3.333 0 0 1-5.695-2.358 3.333 3.333 0 0 1 .978-2.358l.1-.1a2.75 2.75 0 0 0 .55-3.034 2.75 2.75 0 0 0-2.517-1.666H5A3.333 3.333 0 0 1 5 16.8h.15A2.75 2.75 0 0 0 7.667 15a2.75 2.75 0 0 0-.55-3.033l-.1-.1a3.334 3.334 0 0 1 3.634-5.44c.405.167.773.413 1.082.723l.1.1a2.75 2.75 0 0 0 3.034.55H15a2.75 2.75 0 0 0 1.667-2.517V5a3.333 3.333 0 0 1 6.666 0v.15A2.75 2.75 0 0 0 25 7.667a2.75 2.75 0 0 0 3.033-.55l.1-.1a3.333 3.333 0 0 1 5.44 1.081 3.334 3.334 0 0 1-.723 3.635l-.1.1a2.75 2.75 0 0 0-.55 3.034V15a2.749 2.749 0 0 0 2.517 1.667H35a3.333 3.333 0 0 1 0 6.666h-.15A2.75 2.75 0 0 0 32.333 25Z"/></g><defs><clipPath id="a"><path d="M0 0H40V40H0z"/></clipPath></defs></svg>