<svg xmlns="http://www.w3.org/2000/svg" viewBox="0 0 48 48" stroke-linejoin="round" stroke-linecap="round" stroke="currentColor" fill="none"><g stroke-width="3" clip-path="url(#a)"><path d="M24 30a6 6 0 1 0 0-12 6 6 0 0 0 0 12Z"/><path d="M38.8 30a3.3 3.3 0 0 0 .66 3.64l.12.12a4 4 0 0 1-1.298 6.528 4 4 0 0 1-4.362-.868l-.12-.12a3.3 3.3 0 0 0-3.64-.66 3.3 3.3 0 0 0-2 3.02V42a4 4 0 1 1-8 0v-.18A3.3 3.3 0 0 0 18 38.8a3.3 3.3 0 0 0-3.64.66l-.12.12a4 4 0 0 1-6.528-1.298 4 4 0 0 1 .868-4.362l.12-.12a3.3 3.3 0 0 0 .66-3.64 3.3 3.3 0 0 0-3.02-2H6a4 4 0 1 1 0-8h.18A3.3 3.3 0 0 0 9.2 18a3.3 3.3 0 0 0-.66-3.64l-.12-.12a4 4 0 0 1 1.298-6.528 4 4 0 0 1 4.362.868l.12.12a3.3 3.3 0 0 0 3.64.66H18a3.3 3.3 0 0 0 2-3.02V6a4 4 0 1 1 8 0v.18a3.3 3.3 0 0 0 2 3.02 3.3 3.3 0 0 0 3.64-.66l.12-.12a4 4 0 0 1 6.528 1.298 4 4 0 0 1-.868 4.362l-.12.12a3.3 3.3 0 0 0-.66 3.64V18a3.3 3.3 0 0 0 3.02 2H42a4 4 0 1 1 0 8h-.18a3.3 3.3 0 0 0-3.02 2Z"/></g><defs><clipPath id="a"><path d="M0 0H48V48H0z"/></clipPath></defs></svg>