<svg xmlns="http://www.w3.org/2000/svg" viewBox="0 0 56 56" stroke-linejoin="round" stroke-linecap="round" stroke="currentColor" fill="none"><path stroke-width="3.5" d="M51.333 39.48v7a4.665 4.665 0 0 1-5.086 4.667 46.177 46.177 0 0 1-20.137-7.164 45.5 45.5 0 0 1-14-14 46.176 46.176 0 0 1-7.163-20.23A4.667 4.667 0 0 1 9.59 4.667h7a4.667 4.667 0 0 1 4.667 4.013 29.96 29.96 0 0 0 1.633 6.557 4.667 4.667 0 0 1-1.05 4.923l-2.963 2.963a37.333 37.333 0 0 0 14 14l2.963-2.963a4.667 4.667 0 0 1 4.923-1.05 29.956 29.956 0 0 0 6.557 1.633 4.666 4.666 0 0 1 4.013 4.737Z"/></svg>