<svg xmlns="http://www.w3.org/2000/svg" viewBox="0 0 16 16" stroke-linejoin="round" stroke-linecap="round" stroke="currentColor" fill="none"><g clip-path="url(#a)"><path stroke-width="1.5" d="M14.667 11.28v2a1.333 1.333 0 0 1-1.454 1.333 13.194 13.194 0 0 1-5.753-2.046 13 13 0 0 1-4-4 13.193 13.193 0 0 1-2.047-5.78A1.333 1.333 0 0 1 2.74 1.333h2A1.333 1.333 0 0 1 6.073 2.48a8.56 8.56 0 0 0 .467 1.873 1.333 1.333 0 0 1-.3 1.407l-.847.847a10.667 10.667 0 0 0 4 4l.847-.847a1.333 1.333 0 0 1 1.407-.3 8.56 8.56 0 0 0 1.873.467 1.333 1.333 0 0 1 1.147 1.353Z"/></g><defs><clipPath id="a"><path d="M0 0H16V16H0z"/></clipPath></defs></svg>