<svg xmlns="http://www.w3.org/2000/svg" viewBox="0 0 32 30" stroke-linejoin="round" stroke-linecap="round" stroke="currentColor" fill="none"><g clip-path="url(#a)"><path stroke-width="2.3" d="M23.638 22.104C26.003 19.38 28 16.029 28 12.468c0-2.976-1.264-5.83-3.515-7.935C22.235 2.43 19.183 1.247 16 1.247S9.765 2.429 7.515 4.533c-.45.422-.862.873-1.231 1.35M20.4 25.33C18.019 27.418 16 28.676 16 28.676S4 21.196 4 12.468c0-.764.083-1.52.245-2.256m12.917 5.836c1.642-.465 2.838-1.892 2.838-3.58 0-2.066-1.79-3.74-4-3.74-1.805 0-3.33 1.118-3.829 2.653m4.99 4.667h0m0 0-4.99-4.667m4.99 4.667 13.506 12.628M12.168 11.391l.003-.01m0 0L1.333 1.247"/></g><defs><clipPath id="a"><path d="M0 0H32V29.923H0z"/></clipPath></defs></svg>