<svg xmlns="http://www.w3.org/2000/svg" viewBox="0 0 56 53" stroke-linejoin="round" stroke-linecap="round" stroke="currentColor" fill="none"><g clip-path="url(#a)"><path stroke-width="3.5" d="M41.366 38.681C45.505 33.919 49 28.05 49 21.82c0-5.208-2.212-10.203-6.15-13.886C38.91 4.251 33.57 2.182 28 2.182S17.089 4.25 13.15 7.933a20.05 20.05 0 0 0-2.154 2.362m24.705 34.033C31.533 47.981 28 50.183 28 50.183S7 37.092 7 21.82c0-1.336.146-2.659.429-3.948m22.604 10.213C32.908 27.269 35 24.773 35 21.819c0-3.615-3.134-6.546-7-6.546-3.159 0-5.829 1.957-6.7 4.644m8.733 8.167h-.003m.003 0L21.3 19.917m8.733 8.167 23.634 22.1m-32.372-30.25.005-.017m0 0L2.333 2.182"/></g><defs><clipPath id="a"><path d="M0 0H56V52.365H0z"/></clipPath></defs></svg>