<svg xmlns="http://www.w3.org/2000/svg" viewBox="0 0 24 23" stroke-linejoin="round" stroke-linecap="round" stroke="currentColor" fill="none"><g clip-path="url(#a)"><path stroke-width="2" d="M17.728 16.578C19.502 14.536 21 12.02 21 9.35c0-2.232-.948-4.373-2.636-5.951C16.676 1.822 14.387.935 12 .935S7.324 1.822 5.636 3.4a8.594 8.594 0 0 0-.923 1.012M15.3 18.998c-1.786 1.565-3.3 2.51-3.3 2.51S3 15.896 3 9.35c0-.573.062-1.14.184-1.692m9.688 4.377c1.231-.35 2.128-1.42 2.128-2.685 0-1.55-1.343-2.805-3-2.805-1.354 0-2.498.838-2.871 1.99m3.742 3.5h0m0 0-3.742-3.5m3.742 3.5L23 21.507M9.126 8.543l.003-.007m0 0L1 .936"/></g><defs><clipPath id="a"><path d="M0 0H24V22.442H0z"/></clipPath></defs></svg>