<svg xmlns="http://www.w3.org/2000/svg" viewBox="0 0 40 38" stroke-linejoin="round" stroke-linecap="round" stroke="currentColor" fill="none"><g clip-path="url(#a)"><path stroke-width="2.5" d="M29.547 27.63C32.503 24.227 35 20.035 35 15.585c0-3.72-1.58-7.288-4.393-9.918C27.794 3.037 23.978 1.558 20 1.558c-3.978 0-7.793 1.478-10.607 4.109a14.323 14.323 0 0 0-1.538 1.686M25.5 31.663C22.524 34.272 20 35.845 20 35.845s-15-9.35-15-20.26c0-.955.104-1.899.306-2.82m16.146 7.295C23.506 19.478 25 17.695 25 15.585c0-2.582-2.239-4.676-5-4.676-2.256 0-4.164 1.398-4.786 3.318m6.239 5.833h-.003m.003 0-6.239-5.833m6.239 5.833 16.88 15.785M15.211 14.238c0-.004.002-.008.003-.011m0 0L1.667 1.558"/></g><defs><clipPath id="a"><path d="M0 0H40V37.404H0z"/></clipPath></defs></svg>