<svg xmlns="http://www.w3.org/2000/svg" viewBox="0 0 48 45" stroke-linejoin="round" stroke-linecap="round" stroke="currentColor" fill="none"><g clip-path="url(#a)"><path stroke-width="3" d="M35.457 33.156C39.004 29.072 42 24.043 42 18.702c0-4.464-1.896-8.745-5.272-11.902C33.352 3.644 28.774 1.87 24 1.87S14.648 3.644 11.272 6.8a17.186 17.186 0 0 0-1.847 2.024m21.176 29.172C27.028 41.126 24 43.014 24 43.014S6 31.794 6 18.702c0-1.145.125-2.279.367-3.384m19.376 8.754c2.464-.698 4.257-2.838 4.257-5.37 0-3.099-2.686-5.61-6-5.61-2.707 0-4.996 1.676-5.743 3.98m7.486 7h-.003m.003 0-7.486-7m7.486 7L46 43.014M18.253 17.086l.004-.014m0 0L2 1.87"/></g><defs><clipPath id="a"><path d="M0 0H48V44.884H0z"/></clipPath></defs></svg>