<svg xmlns="http://www.w3.org/2000/svg" viewBox="0 0 16 15" stroke-linejoin="round" stroke-linecap="round" stroke="currentColor" fill="none"><g clip-path="url(#a)"><path stroke-width="1.5" d="M11.819 11.052C13 9.69 14 8.014 14 6.234c0-1.488-.632-2.915-1.757-3.967C11.117 1.215 9.59.623 8 .623c-1.591 0-3.117.592-4.243 1.644-.225.21-.43.436-.615.674m7.058 9.724C9.01 13.71 8 14.338 8 14.338s-6-3.74-6-8.104c0-.382.042-.76.123-1.128M8.58 8.024C9.402 7.791 10 7.078 10 6.234c0-1.033-.895-1.87-2-1.87-.902 0-1.665.559-1.914 1.327M8.58 8.024h0m0 0L6.086 5.691M8.58 8.024l6.752 6.314M6.084 5.695l.002-.004m0 0L.666.623"/></g><defs><clipPath id="a"><path d="M0 0H16V14.961H0z"/></clipPath></defs></svg>