<svg width="24" height="24" viewBox="0 0 24 24" fill="none" xmlns="http://www.w3.org/2000/svg">
<path d="M13.73 21C13.5542 21.3031 13.3018 21.5547 12.9982 21.7295C12.6946 21.9044 12.3504 21.9965 12 21.9965C11.6496 21.9965 11.3054 21.9044 11.0018 21.7295C10.6982 21.5547 10.4458 21.3031 10.27 21" stroke="#333333" stroke-width="2" stroke-linecap="round" stroke-linejoin="round"/>
<path d="M18.63 13C18.1851 11.3714 17.973 9.68804 18 8" stroke="#333333" stroke-width="2" stroke-linecap="round" stroke-linejoin="round"/>
<path d="M6.26 6.26001C6.08627 6.82362 5.99861 7.41023 6 8.00001C6 15 3 17 3 17H17" stroke="#333333" stroke-width="2" stroke-linecap="round" stroke-linejoin="round"/>
<path d="M18 7.99999C18.0016 6.91306 17.7079 5.8461 17.1503 4.91308C16.5927 3.98007 15.7922 3.21605 14.8341 2.70263C13.8761 2.18921 12.7966 1.94569 11.7109 1.99806C10.6252 2.05043 9.57417 2.39674 8.67 2.99999" stroke="#333333" stroke-width="2" stroke-linecap="round" stroke-linejoin="round"/>
<path d="M1 1L23 23" stroke="#333333" stroke-width="2" stroke-linecap="round" stroke-linejoin="round"/>
</svg>
