<svg width="24" height="24" viewBox="0 0 24 24" fill="none" xmlns="http://www.w3.org/2000/svg">
<path d="M20.84 5.60999C20.3292 5.099 19.7228 4.69364 19.0554 4.41708C18.3879 4.14052 17.6725 3.99817 16.95 3.99817C16.2275 3.99817 15.5121 4.14052 14.8446 4.41708C14.1772 4.69364 13.5708 5.099 13.06 5.60999L12 6.66999L10.94 5.60999C9.9083 4.5783 8.50903 3.9987 7.05 3.9987C5.59096 3.9987 4.19169 4.5783 3.16 5.60999C2.1283 6.64169 1.54871 8.04096 1.54871 9.49999C1.54871 10.959 2.1283 12.3583 3.16 13.39L4.22 14.45L12 22.23L19.78 14.45L20.84 13.39C21.351 12.8792 21.7563 12.2728 22.0329 11.6053C22.3095 10.9379 22.4518 10.2225 22.4518 9.49999C22.4518 8.77751 22.3095 8.0621 22.0329 7.39464C21.7563 6.72718 21.351 6.12075 20.84 5.60999Z" fill="#333333" stroke="#333333" stroke-width="2" stroke-linecap="round" stroke-linejoin="round"/>
</svg>
