<svg width="24" height="24" viewBox="0 0 24 24" fill="none" xmlns="http://www.w3.org/2000/svg">
<path d="M20.84 5.61183C20.3292 5.10083 19.7228 4.69547 19.0554 4.41891C18.3879 4.14235 17.6725 4 16.95 4C16.2275 4 15.5121 4.14235 14.8446 4.41891C14.1772 4.69547 13.5708 5.10083 13.06 5.61183L12 6.67183L10.94 5.61183C9.9083 4.58013 8.50903 4.00053 7.05 4.00053C5.59096 4.00053 4.19169 4.58013 3.16 5.61183C2.1283 6.64352 1.54871 8.04279 1.54871 9.50183C1.54871 10.9609 2.1283 12.3601 3.16 13.3918L4.22 14.4518L12 22.2318L19.78 14.4518L20.84 13.3918C21.351 12.8811 21.7563 12.2746 22.0329 11.6072C22.3095 10.9397 22.4518 10.2243 22.4518 9.50183C22.4518 8.77934 22.3095 8.06393 22.0329 7.39647C21.7563 6.72901 21.351 6.12258 20.84 5.61183V5.61183Z" stroke="#333333" stroke-width="2" stroke-linecap="round" stroke-linejoin="round"/>
</svg>
