<svg width="24" height="24" viewBox="0 0 24 24" fill="none" xmlns="http://www.w3.org/2000/svg">
<path d="M12 22C17.5228 22 22 17.5228 22 12C22 6.47715 17.5228 2 12 2C6.47715 2 2 6.47715 2 12C2 17.5228 6.47715 22 12 22Z" stroke="#333333" stroke-width="2" stroke-linecap="round" stroke-linejoin="round"/>
<path d="M9.09003 9C9.32513 8.33167 9.78918 7.76811 10.4 7.40913C11.0108 7.05016 11.7289 6.91894 12.4272 7.03871C13.1255 7.15849 13.7588 7.52152 14.2151 8.06353C14.6714 8.60553 14.9211 9.29152 14.92 10C14.92 12 11.92 13 11.92 13" stroke="#333333" stroke-width="2" stroke-linecap="round" stroke-linejoin="round"/>
<path d="M12 17H12.01" stroke="#333333" stroke-width="2" stroke-linecap="round" stroke-linejoin="round"/>
</svg>
