<svg width="24" height="24" viewBox="0 0 24 24" fill="none" xmlns="http://www.w3.org/2000/svg">
<path d="M6 7L4.76393 7.61803C3.07001 8.46499 2 10.1963 2 12.0902V12.5147C2 14.106 2.63214 15.6321 3.75736 16.7574L5 18V21C5 21.5523 5.44772 22 6 22H7.38197C7.76074 22 8.107 21.786 8.27639 21.4472L9 20L9.47018 20.1567C11.1123 20.7041 12.8877 20.7041 14.5298 20.1567L15 20L15.7236 21.4472C15.893 21.786 16.2393 22 16.618 22H18C18.5523 22 19 21.5523 19 21V19V19C19 17.8954 19.8954 17 21 17V17H22C22.5523 17 23 16.5523 23 16V12C23 11.4477 22.5523 11 22 11H21.5352C21.2008 11 20.8886 10.8329 20.7031 10.5547L19.1097 8.1646C19.0373 8.05592 18.9868 7.9341 18.9612 7.80602L18 3L14 6" stroke="#333333" stroke-width="2" stroke-linecap="round" stroke-linejoin="round"/>
<circle cx="10" cy="5" r="4" stroke="#333333" stroke-width="2"/>
<path d="M2 8C2 7.44772 1.55228 7 1 7C0.447715 7 0 7.44772 0 8H2ZM2 9V8H0V9H2ZM3 10C2.44772 10 2 9.55228 2 9H0C0 10.6569 1.34315 12 3 12V10Z" fill="#333333"/>
<circle cx="16.5" cy="11.5" r="1.5" fill="#333333"/>
</svg>
