<svg width="24" height="24" viewBox="0 0 24 24" fill="none" xmlns="http://www.w3.org/2000/svg">
<path d="M7.5 20.5L12 11" stroke="#333333" stroke-width="2" stroke-linecap="round" stroke-linejoin="round"/>
<path d="M10.44 14.5571C10.9644 16.0998 12.156 17 13.5 17C15.9852 17 18 15.1019 18 12.1143C18.001 11.2224 17.8101 10.3412 17.4407 9.53245C17.0713 8.72373 16.5324 8.00717 15.8618 7.43314C15.1912 6.85911 14.4052 6.44154 13.5591 6.20979C12.713 5.97804 11.8273 5.93773 10.9642 6.09168C10.1012 6.24564 9.28173 6.59014 8.56348 7.10095C7.84522 7.61176 7.2456 8.2765 6.80676 9.04844C6.36792 9.82038 6.10051 10.6808 6.02332 11.5692C5.94614 12.4576 6.06106 13.3524 6.36 14.1907" stroke="#333333" stroke-width="2" stroke-linecap="round" stroke-linejoin="round"/>
<path d="M12 22C17.5228 22 22 17.5228 22 12C22 6.47715 17.5228 2 12 2C6.47715 2 2 6.47715 2 12C2 17.5228 6.47715 22 12 22Z" stroke="#333333" stroke-width="2" stroke-linecap="round" stroke-linejoin="round"/>
</svg>
