<svg width="24" height="24" viewBox="0 0 24 24" fill="none" xmlns="http://www.w3.org/2000/svg">
<path d="M18.5 15C18.2033 15 17.9133 14.912 17.6666 14.7472C17.42 14.5824 17.2277 14.3481 17.1142 14.074C17.0006 13.7999 16.9709 13.4983 17.0288 13.2074C17.0867 12.9164 17.2296 12.6491 17.4393 12.4393C17.6491 12.2296 17.9164 12.0867 18.2074 12.0288C18.4983 11.9709 18.7999 12.0006 19.074 12.1142C19.3481 12.2277 19.5824 12.42 19.7472 12.6666C19.912 12.9133 20 13.2033 20 13.5C20 13.8978 19.842 14.2794 19.5606 14.5607C19.2793 14.842 18.8978 15 18.5 15Z" fill="#333333"/>
<rect x="1" y="7" width="22" height="14" rx="2" stroke="#333333" stroke-width="2" stroke-linecap="round" stroke-linejoin="round"/>
<path d="M1 9V7.62279C1 6.67701 1.66249 5.86053 2.58798 5.66569L17.588 2.50779C18.8311 2.24609 20 3.19455 20 4.46489V7" stroke="#333333" stroke-width="2" stroke-linecap="round" stroke-linejoin="round"/>
</svg>
