<svg xmlns="http://www.w3.org/2000/svg" viewBox="0 0 56 56" stroke-linejoin="round" stroke-linecap="round" stroke="currentColor" fill="none"><path stroke-width="3.5" d="M28 35v-7m-4.667-4.667.684.684a5.633 5.633 0 0 0 7.966 0l.684-.684m4.666 14v-.722c0-1.711.962-3.252 2.367-4.23 4.248-2.958 6.967-7.036 6.967-12.548 0-9.665-8.358-17.5-18.667-17.5-10.31 0-18.667 7.835-18.667 17.5 0 5.512 2.719 9.59 6.967 12.548 1.405.978 2.367 2.519 2.367 4.23v.722m0 7h18.666v.117a9.217 9.217 0 0 1-9.216 9.217h-.234a9.217 9.217 0 0 1-9.216-9.217v-.117Z"/></svg>