<svg xmlns="http://www.w3.org/2000/svg" viewBox="0 0 40 40" stroke-linejoin="round" stroke-linecap="round" stroke="currentColor" fill="none"><path stroke-width="2.5" d="M20 25v-5m-3.333-3.333.488.488a4.024 4.024 0 0 0 5.69 0l.488-.488m3.334 10v-.516c0-1.223.687-2.323 1.69-3.022 3.035-2.113 4.976-5.025 4.976-8.962 0-6.904-5.97-12.5-13.333-12.5-7.364 0-13.333 5.596-13.333 12.5 0 3.937 1.941 6.85 4.976 8.962 1.003.699 1.69 1.8 1.69 3.022v.516m0 5h13.334v.083a6.583 6.583 0 0 1-6.584 6.583h-.166a6.583 6.583 0 0 1-6.584-6.583v-.083Z"/></svg>