<svg xmlns="http://www.w3.org/2000/svg" viewBox="0 0 32 32" stroke-linejoin="round" stroke-linecap="round" stroke="currentColor" fill="none"><path stroke-width="2.3" d="M16 20v-4m-2.667-2.667.39.39a3.22 3.22 0 0 0 4.553 0l.39-.39m2.667 8v-.412c0-.978.55-1.859 1.353-2.418 2.427-1.69 3.98-4.02 3.98-7.17 0-5.522-4.775-10-10.666-10s-10.667 4.478-10.667 10c0 3.15 1.554 5.48 3.981 7.17.803.56 1.353 1.44 1.353 2.418v.412m0 4h10.666v.067a5.267 5.267 0 0 1-5.266 5.267h-.134a5.267 5.267 0 0 1-5.266-5.267v-.067Z"/></svg>