<svg xmlns="http://www.w3.org/2000/svg" viewBox="0 0 16 16" stroke-linejoin="round" stroke-linecap="round" stroke="currentColor" fill="none"><g clip-path="url(#a)"><path stroke-width="1.5" d="M8 10V8M6.667 6.667l.195.195a1.61 1.61 0 0 0 2.276 0l.195-.195m1.334 4v-.207c0-.489.275-.929.676-1.208 1.214-.845 1.99-2.01 1.99-3.585 0-2.762-2.387-5-5.333-5-2.945 0-5.333 2.238-5.333 5 0 1.575.776 2.74 1.99 3.585.402.279.676.72.676 1.208v.207m0 2h5.334v.033a2.633 2.633 0 0 1-2.634 2.633h-.066A2.633 2.633 0 0 1 5.333 12.7v-.033Z"/></g><defs><clipPath id="a"><path d="M0 0H16V16H0z"/></clipPath></defs></svg>