<svg xmlns="http://www.w3.org/2000/svg" viewBox="0 0 56 56" stroke-linejoin="round" stroke-linecap="round" stroke="currentColor" fill="none"><path stroke-width="3.5" d="M46.667 28v21a2.333 2.333 0 0 1-2.334 2.333H11.667A2.333 2.333 0 0 1 9.333 49V28M28 51.333v-35m0 0H17.5a5.833 5.833 0 0 1 0-11.666c8.167 0 10.5 11.666 10.5 11.666Zm0 0h10.5a5.833 5.833 0 0 0 0-11.666c-8.167 0-10.5 11.666-10.5 11.666Zm-21 0h42a2.333 2.333 0 0 1 2.333 2.334v7A2.333 2.333 0 0 1 49 28H7a2.333 2.333 0 0 1-2.333-2.333v-7A2.333 2.333 0 0 1 7 16.333Z"/></svg>