<svg xmlns="http://www.w3.org/2000/svg" viewBox="0 0 16 16" stroke-linejoin="round" stroke-linecap="round" stroke="currentColor" fill="none"><g clip-path="url(#a)"><path stroke-width="1.5" d="M13.333 8v6a.667.667 0 0 1-.666.667H3.333A.667.667 0 0 1 2.667 14V8M8 14.667v-10m0 0H5a1.667 1.667 0 0 1 0-3.334c2.333 0 3 3.334 3 3.334Zm0 0h3a1.667 1.667 0 1 0 0-3.334c-2.333 0-3 3.334-3 3.334Zm-6 0h12c.368 0 .667.298.667.666v2A.667.667 0 0 1 14 8H2a.667.667 0 0 1-.667-.667v-2c0-.368.299-.666.667-.666Z"/></g><defs><clipPath id="a"><path d="M0 0H16V16H0z"/></clipPath></defs></svg>