<svg xmlns="http://www.w3.org/2000/svg" viewBox="0 0 40 40" stroke-linejoin="round" stroke-linecap="round" stroke="currentColor" fill="none"><path stroke-width="2.5" d="M33.333 20v15c0 .92-.746 1.667-1.666 1.667H8.333c-.92 0-1.666-.747-1.666-1.667V20M20 36.667v-25m0 0h-7.5a4.166 4.166 0 1 1 0-8.334c5.833 0 7.5 8.334 7.5 8.334Zm0 0h7.5a4.167 4.167 0 1 0 0-8.334c-5.833 0-7.5 8.334-7.5 8.334Zm-15 0h30c.92 0 1.667.746 1.667 1.666v5c0 .92-.747 1.667-1.667 1.667H5c-.92 0-1.667-.746-1.667-1.667v-5c0-.92.746-1.666 1.667-1.666Z"/></svg>