<svg xmlns="http://www.w3.org/2000/svg" viewBox="0 0 32 32" stroke-linejoin="round" stroke-linecap="round" stroke="currentColor" fill="none"><path stroke-width="2.3" d="M26.667 16v12c0 .736-.597 1.333-1.334 1.333H6.667A1.333 1.333 0 0 1 5.333 28V16M16 29.333v-20m0 0h-6a3.333 3.333 0 1 1 0-6.666c4.667 0 6 6.666 6 6.666Zm0 0h6a3.333 3.333 0 0 0 0-6.666c-4.667 0-6 6.666-6 6.666Zm-12 0h24c.736 0 1.333.597 1.333 1.334v4c0 .736-.596 1.333-1.333 1.333H4a1.333 1.333 0 0 1-1.333-1.333v-4c0-.737.597-1.334 1.333-1.334Z"/></svg>