<svg xmlns="http://www.w3.org/2000/svg" viewBox="0 0 48 48" stroke-linejoin="round" stroke-linecap="round" stroke="currentColor" fill="none"><path d="M33.51 8.211a1.5 1.5 0 1 1-3 0 1.5 1.5 0 0 1 3 0ZM44.085 21.202a1.5 1.5 0 1 1-3 0 1.5 1.5 0 0 1 3 0ZM19.231 1.557a1.5 1.5 0 0 1 2.11-.223l5.449 4.408a1.526 1.526 0 0 1 .479.659 1.501 1.501 0 0 1-.444 1.67l-4.629 4.052a1.5 1.5 0 0 1-1.976-2.257l2.196-1.922a17.831 17.831 0 1 0 18.693 22.198 1.5 1.5 0 1 1 2.907.744h.002A20.834 20.834 0 1 1 21.17 5.056l-1.717-1.39a1.5 1.5 0 0 1-.223-2.11ZM40.203 13.422a1.5 1.5 0 1 1-3 0 1.5 1.5 0 0 1 3 0Z"/><path d="M24.63 22.46a1.5 1.5 0 0 0-3 0v5.989a1.5 1.5 0 0 0 1.5 1.5h8.39a1.5 1.5 0 1 0 0-3h-6.89v-4.49Z"/></svg>