<svg xmlns="http://www.w3.org/2000/svg" viewBox="0 0 32 32" stroke-linejoin="round" stroke-linecap="round" stroke="currentColor" fill="none"><path d="M22.642 6.194a1.15 1.15 0 1 1-2.3 0 1.15 1.15 0 0 1 2.3 0ZM29.573 14.89a1.15 1.15 0 1 1-2.3 0 1.15 1.15 0 0 1 2.3 0Z"/><path fill-rule="evenodd" d="M12.753 1.427a1.15 1.15 0 0 1 1.617-.171l3.644 2.948a1.128 1.128 0 0 1 .308.37 1.154 1.154 0 0 1-.278 1.416l-3.097 2.712a1.15 1.15 0 0 1-1.515-1.73l.941-.825a11.654 11.654 0 1 0 12.862 14.446 1.15 1.15 0 1 1 2.219.552l.007.002A13.947 13.947 0 1 1 13.966 3.887l-1.043-.844a1.15 1.15 0 0 1-.17-1.617Z" clip-rule="evenodd"/><path d="M27.049 9.632a1.15 1.15 0 1 1-2.3 0 1.15 1.15 0 0 1 2.3 0Z"/><path fill-rule="evenodd" d="M16.626 15.512a1.15 1.15 0 1 0-2.3 0v4.01a1.15 1.15 0 0 0 1.15 1.15h5.616a1.15 1.15 0 0 0 0-2.3h-4.466v-2.86Z" clip-rule="evenodd"/></svg>