<svg xmlns="http://www.w3.org/2000/svg" viewBox="0 0 16 16" stroke-linejoin="round" stroke-linecap="round" stroke="currentColor" fill="none"><path d="M10.979 3.706a.75.75 0 1 1-1.5 0 .75.75 0 0 1 1.5 0ZM14 7.811a.75.75 0 1 1-1.5 0 .75.75 0 0 1 1.5 0Z"/><path fill-rule="evenodd" d="M5.163 1.336a.75.75 0 0 1 1.04-.211l2.203 1.46a.746.746 0 0 1 .174.152.75.75 0 0 1-.105 1.068l-1.88 1.578a.75.75 0 1 1-.964-1.149l.212-.178a5.008 5.008 0 1 0 6.521 5.917l.002-.005a.75.75 0 1 1 1.408.514 6.5 6.5 0 1 1-8.131-7.929l-.269-.178a.75.75 0 0 1-.21-1.04Z" clip-rule="evenodd"/><path d="M12.893 5.43a.75.75 0 1 1-1.5 0 .75.75 0 0 1 1.5 0Z"/><path fill-rule="evenodd" d="M8.03 7.765a.75.75 0 0 0-1.5 0v1.869c0 .414.336.75.75.75h2.617a.75.75 0 1 0 0-1.5H8.03V7.765Z" clip-rule="evenodd"/></svg>