<svg xmlns="http://www.w3.org/2000/svg" viewBox="0 0 24 24" stroke-linejoin="round" stroke-linecap="round" stroke="currentColor" fill="none"><path d="M16.914 4.842a1 1 0 1 1-2 0 1 1 0 0 1 2 0ZM21.516 11.095a1 1 0 1 1-2 0 1 1 0 0 1 2 0Z"/><path fill-rule="evenodd" d="M9.185 1.371a1 1 0 0 1 1.406-.148l2.584 2.09a.994.994 0 0 1 .297.38 1.001 1.001 0 0 1-.27 1.173L11.006 6.79a1 1 0 1 1-1.318-1.505l.265-.232a7.907 7.907 0 1 0 9.62 9.578 1 1 0 1 1 1.918.543 9.909 9.909 0 0 1-2.727 4.678A9.9 9.9 0 1 1 9.689 3.066l-.356-.289a1 1 0 0 1-.148-1.406Z" clip-rule="evenodd"/><path d="M19.83 7.468a1 1 0 1 1-2 0 1 1 0 0 1 2 0Z"/><path fill-rule="evenodd" d="M12.565 11.167a1 1 0 1 0-2 0v2.846a1 1 0 0 0 1 1h3.987a1 1 0 0 0 0-2h-2.987v-1.846Z" clip-rule="evenodd"/></svg>