<svg xmlns="http://www.w3.org/2000/svg" viewBox="0 0 56 56" stroke-linejoin="round" stroke-linecap="round" stroke="currentColor" fill="none"><path d="M39.501 9.698a1.75 1.75 0 1 1-3.5 0 1.75 1.75 0 0 1 3.5 0ZM51.801 24.809a1.75 1.75 0 1 1-3.5 0 1.75 1.75 0 0 1 3.5 0ZM23.076 1.65a1.75 1.75 0 0 1 2.461-.26l6.34 5.128.065.054a1.751 1.751 0 0 1-.026 2.662l-5.384 4.714a1.75 1.75 0 0 1-2.305-2.633l2.192-1.92A20.742 20.742 0 1 0 48.327 35.21l.002-.008h.002a1.75 1.75 0 1 1 3.334 1.05 24.237 24.237 0 0 1-42.957 8.16A24.235 24.235 0 0 1 25.627 5.964l-2.29-1.852a1.75 1.75 0 0 1-.26-2.462ZM47.286 15.759a1.75 1.75 0 1 1-3.5 0 1.75 1.75 0 0 1 3.5 0Z"/><path d="M29.165 26.266a1.75 1.75 0 1 0-3.5 0v6.968a1.75 1.75 0 0 0 1.75 1.75h9.76a1.75 1.75 0 1 0 0-3.5h-8.01v-5.218Z"/></svg>