<svg xmlns="http://www.w3.org/2000/svg" viewBox="0 0 48 48" stroke-linejoin="round" stroke-linecap="round" stroke="currentColor" fill="none"><path d="M2 18v-1.5a1.5 1.5 0 0 0-1.48 1.747L2 18Zm3.443 20.658 1.48-.247-1.48.247Zm37.114 0 1.48.246-1.48-.246ZM46 18l1.48.247A1.5 1.5 0 0 0 46 16.5V18ZM8.5 17a1.5 1.5 0 0 0 3 0h-3Zm28 0a1.5 1.5 0 0 0 3 0h-3ZM.52 18.247l3.443 20.657 2.96-.493L3.48 17.753l-2.96.494ZM9.39 43.5h29.223v-3H9.389v3Zm34.648-4.596 3.443-20.657-2.96-.494-3.443 20.658 2.96.493ZM46 16.5H2v3h44v-3Zm-7.389 27a5.5 5.5 0 0 0 5.426-4.596l-2.96-.493a2.5 2.5 0 0 1-2.465 2.089v3ZM3.963 38.904A5.5 5.5 0 0 0 9.39 43.5v-3a2.5 2.5 0 0 1-2.466-2.089l-2.96.493ZM4 31.5h40v-3H4v3ZM11.5 17V8h-3v9h3ZM14 5.5h20v-3H14v3ZM36.5 8v9h3V8h-3ZM34 5.5A2.5 2.5 0 0 1 36.5 8h3A5.5 5.5 0 0 0 34 2.5v3ZM11.5 8A2.5 2.5 0 0 1 14 5.5v-3A5.5 5.5 0 0 0 8.5 8h3Zm3.005 10.125 2 24 2.99-.25-2-24-2.99.25Zm16-.25-2 24 2.99.25 2-24-2.99-.25Z"/></svg>