<svg xmlns="http://www.w3.org/2000/svg" viewBox="0 0 40 40" stroke-linejoin="round" stroke-linecap="round" stroke="currentColor" fill="none"><path d="M1.667 15v-1.25a1.25 1.25 0 0 0-1.233 1.456L1.667 15Zm2.869 17.215 1.233-.206-1.233.206Zm30.928 0 1.233.205-1.233-.205ZM38.334 15l1.232.206a1.25 1.25 0 0 0-1.233-1.456V15Zm-31.25-.833a1.25 1.25 0 1 0 2.5 0h-2.5Zm23.333 0a1.25 1.25 0 0 0 2.5 0h-2.5ZM.434 15.206 3.303 32.42l2.466-.41-2.87-17.215-2.465.41Zm7.39 21.044h24.352v-2.5H7.824v2.5Zm28.873-3.83 2.87-17.215-2.467-.41-2.869 17.214 2.466.411Zm1.636-18.67H1.667v2.5h36.666v-2.5Zm-6.157 22.5c2.24 0 4.153-1.62 4.521-3.83l-2.466-.41a2.083 2.083 0 0 1-2.055 1.74v2.5ZM3.303 32.42a4.583 4.583 0 0 0 4.52 3.83v-2.5a2.083 2.083 0 0 1-2.054-1.74l-2.466.41Zm.03-6.17h33.334v-2.5H3.333v2.5Zm6.25-12.083v-7.5h-2.5v7.5h2.5Zm2.084-9.584h16.666v-2.5H11.667v2.5Zm18.75 2.084v7.5h2.5v-7.5h-2.5Zm-2.084-2.084c1.151 0 2.084.933 2.084 2.084h2.5a4.583 4.583 0 0 0-4.584-4.584v2.5ZM9.583 6.667c0-1.151.933-2.084 2.084-2.084v-2.5a4.583 4.583 0 0 0-4.584 4.584h2.5Zm2.505 8.437 1.666 20 2.492-.208-1.667-20-2.491.208Zm13.333-.208-1.667 20 2.492.208 1.666-20-2.49-.208Z"/></svg>