<svg xmlns="http://www.w3.org/2000/svg" viewBox="0 0 24 24" stroke-linejoin="round" stroke-linecap="round" stroke="currentColor" fill="none"><path d="M1 9V8a1 1 0 0 0-.986 1.164L1 9Zm1.721 10.329.987-.165-.987.165Zm18.558 0 .986.164-.986-.164ZM23 9l.986.164A1 1 0 0 0 23 8v1ZM4 8.5a1 1 0 0 0 2 0H4Zm14 0a1 1 0 1 0 2 0h-2ZM.014 9.164l1.721 10.33 1.973-.33L1.986 8.836l-1.972.328ZM4.694 22h14.612v-2H4.694v2Zm17.57-2.507 1.722-10.329-1.972-.328-1.722 10.328 1.973.33ZM23 8H1v2h22V8Zm-3.694 14a3 3 0 0 0 2.959-2.507l-1.973-.329a1 1 0 0 1-.986.836v2Zm-17.57-2.507A3 3 0 0 0 4.693 22v-2a1 1 0 0 1-.986-.836l-1.973.33ZM2 16h20v-2H2v2Zm4-7.5V4H4v4.5h2ZM7 3h10V1H7v2Zm11 1v4.5h2V4h-2Zm-1-1a1 1 0 0 1 1 1h2a3 3 0 0 0-3-3v2ZM6 4a1 1 0 0 1 1-1V1a3 3 0 0 0-3 3h2Zm1.003 5.083 1 12 1.994-.166-1-12-1.994.166Zm8-.166-1 12 1.993.166 1-12-1.992-.166Z"/></svg>