<svg xmlns="http://www.w3.org/2000/svg" viewBox="0 0 16 16" stroke-linejoin="round" stroke-linecap="round" stroke="currentColor" fill="none"><g clip-path="url(#a)"><path d="M.667 6v-.75a.75.75 0 0 0-.74.873L.667 6Zm1.147 6.886.74-.123-.74.123Zm12.372 0 .74.123-.74-.123ZM15.333 6l.74.123a.75.75 0 0 0-.74-.873V6Zm-12.75-.333a.75.75 0 0 0 1.5 0h-1.5Zm9.334 0a.75.75 0 0 0 1.5 0h-1.5Zm-11.99.456 1.148 6.886 1.48-.246-1.148-6.886-1.48.246ZM3.13 14.75h9.74v-1.5H3.13v1.5Zm11.796-1.74 1.147-6.887-1.48-.246-1.147 6.886 1.48.246Zm.407-7.76H.667v1.5h14.666v-1.5Zm-2.462 9.5a2.083 2.083 0 0 0 2.055-1.74l-1.48-.247a.583.583 0 0 1-.575.487v1.5ZM1.075 13.01a2.083 2.083 0 0 0 2.055 1.74v-1.5a.583.583 0 0 1-.576-.487l-1.48.246Zm.258-2.26h13.334v-1.5H1.333v1.5Zm2.75-5.083v-3h-1.5v3h1.5Zm.584-3.584h6.666v-1.5H4.667v1.5Zm7.25.584v3h1.5v-3h-1.5Zm-.584-.584c.323 0 .584.262.584.584h1.5c0-1.15-.933-2.084-2.084-2.084v1.5Zm-7.25.584c0-.322.262-.584.584-.584v-1.5c-1.15 0-2.084.933-2.084 2.084h1.5Zm.503 3.395.667 8 1.494-.124-.666-8-1.495.124Zm5.333-.124-.666 8 1.495.124.666-8-1.495-.124Z"/></g><defs><clipPath id="a"><path d="M0 0H16V16H0z"/></clipPath></defs></svg>