<svg xmlns="http://www.w3.org/2000/svg" viewBox="0 0 32 32" stroke-linejoin="round" stroke-linecap="round" stroke="currentColor" fill="none"><path d="M1.333 12v-1.15A1.15 1.15 0 0 0 .2 12.189L1.333 12ZM3.63 25.772l1.134-.19-1.134.19Zm24.742 0 1.135.189-1.135-.19ZM30.667 12l1.134.189a1.15 1.15 0 0 0-1.134-1.339V12Zm-25.15-.667a1.15 1.15 0 1 0 2.3 0h-2.3Zm18.666 0a1.15 1.15 0 1 0 2.3 0h-2.3ZM.2 12.19l2.295 13.772 2.269-.378L2.468 11.81l-2.27.378Zm6.06 16.961H25.74v-2.3H6.259v2.3Zm23.247-3.19L31.8 12.19l-2.269-.378-2.295 13.772 2.269.378Zm1.16-15.11H1.334v2.3h29.334v-2.3Zm-4.925 18.3a3.817 3.817 0 0 0 3.765-3.19l-2.27-.377a1.517 1.517 0 0 1-1.495 1.267v2.3ZM2.494 25.96a3.817 3.817 0 0 0 3.765 3.19v-2.3a1.517 1.517 0 0 1-1.496-1.267l-2.269.378Zm.173-4.81h26.666v-2.3H2.667v2.3Zm5.15-9.817v-6h-2.3v6h2.3Zm1.516-7.516h13.334v-2.3H9.333v2.3Zm14.85 1.516v6h2.3v-6h-2.3Zm-1.516-1.516c.837 0 1.516.679 1.516 1.516h2.3a3.817 3.817 0 0 0-3.816-3.816v2.3ZM7.817 5.333c0-.837.679-1.516 1.516-1.516v-2.3a3.817 3.817 0 0 0-3.816 3.816h2.3Zm1.704 6.762 1.333 16 2.292-.19-1.333-16-2.292.19Zm10.666-.19-1.333 16 2.292.19 1.333-16-2.292-.19Z"/></svg>