<svg xmlns="http://www.w3.org/2000/svg" viewBox="0 0 48 48" stroke-linejoin="round" stroke-linecap="round" stroke="currentColor" fill="none"><path d="M12.67 15.342a1.5 1.5 0 1 0-1.34-2.684l1.34 2.684Zm-3.142-.106.67 1.342-.67-1.342Zm7.025 27.658 1.341.671-1.341-.67ZM18 40l.474-1.423a1.5 1.5 0 0 0-1.816.752L18 40Zm12 0 1.342-.67a1.5 1.5 0 0 0-1.816-.753L30 40Zm7.922-24.388-1.47.294 1.47-.294ZM36 6l1.47-.294A1.5 1.5 0 0 0 35.1 4.8L36 6Zm-8.9 4.8a1.5 1.5 0 0 0 1.8 2.4l-1.8-2.4Zm14.306 10.31-1.248.832 1.248-.833Zm-3.187-4.78 1.248-.833-1.248.832ZM18.94 40.312l-.474 1.423.474-1.422Zm10.12 0 .474 1.423-.474-1.422ZM7.515 33.515l-1.06 1.06 1.06-1.06ZM10 36h1.5a1.5 1.5 0 0 0-.44-1.06L10 36ZM3.5 16a1.5 1.5 0 0 0-3 0h3ZM32 20.5a1.5 1.5 0 0 0 0 3v-3Zm.02 3a1.5 1.5 0 0 0 0-3v3ZM11.33 12.658l-2.473 1.236 1.342 2.684 2.472-1.236-1.342-2.684ZM2.5 24.18v.85h3v-.85h-3ZM12 45.5h2.764v-3H12v3Zm5.894-1.935 1.448-2.894-2.684-1.342-1.447 2.895 2.683 1.341Zm10.764-2.894 1.448 2.894 2.683-1.341-1.447-2.895-2.684 1.342Zm4.578 4.829H36v-3h-2.764v3ZM39.5 42v-4h-3v4h3Zm2.5-6.5h2v-3h-2v3Zm5.5-3.5v-8h-3v8h3Zm-8.107-16.682-1.922-9.612-2.942.588 1.922 9.612 2.942-.588ZM35.1 4.8l-8 6 1.8 2.4 8-6-1.8-2.4ZM44 20.5h-.93v3H44v-3Zm-1.346-.223-3.187-4.78-2.496 1.664 3.187 4.78 2.496-1.664ZM17.526 41.423l.94.313.949-2.846-.94-.313-.95 2.846Zm12.008.313.94-.313-.948-2.846-.94.313.948 2.846Zm-23.08-7.16L8.94 37.06l2.122-2.122-2.486-2.485-2.12 2.121ZM8.5 36v6h3v-6h-3Zm31 2a2.5 2.5 0 0 1 2.5-2.5v-3a5.5 5.5 0 0 0-5.5 5.5h3Zm-21.034 3.736a17.5 17.5 0 0 0 11.068 0l-.949-2.846a14.5 14.5 0 0 1-9.17 0l-.949 2.846ZM43.07 20.5a.5.5 0 0 1-.416-.223l-2.496 1.665A3.5 3.5 0 0 0 43.07 23.5v-3Zm.93 15a3.5 3.5 0 0 0 3.5-3.5h-3a.5.5 0 0 1-.5.5v3Zm-8 10a3.5 3.5 0 0 0 3.5-3.5h-3a.5.5 0 0 1-.5.5v3Zm-21.236 0a3.5 3.5 0 0 0 3.13-1.935l-2.683-1.341a.5.5 0 0 1-.447.276v3ZM12 42.5a.5.5 0 0 1-.5-.5h-3a3.5 3.5 0 0 0 3.5 3.5v-3Zm18.106 1.065a3.5 3.5 0 0 0 3.13 1.935v-3a.5.5 0 0 1-.447-.276l-2.683 1.341Zm6.346-27.659a3.5 3.5 0 0 0 .52 1.255l2.495-1.664a.5.5 0 0 1-.074-.18l-2.941.59ZM2.5 25.03a13.5 13.5 0 0 0 3.954 9.546l2.121-2.12A10.5 10.5 0 0 1 5.5 25.028h-3ZM47.5 24a3.5 3.5 0 0 0-3.5-3.5v3a.5.5 0 0 1 .5.5h3Zm-21-14a6.5 6.5 0 0 1-6.5 6.5v3a9.5 9.5 0 0 0 9.5-9.5h-3ZM20 16.5a6.5 6.5 0 0 1-6.5-6.5h-3a9.5 9.5 0 0 0 9.5 9.5v-3ZM13.5 10A6.5 6.5 0 0 1 20 3.5v-3a9.5 9.5 0 0 0-9.5 9.5h3ZM20 3.5a6.5 6.5 0 0 1 6.5 6.5h3A9.5 9.5 0 0 0 20 .5v3ZM3.5 18v-2h-3v2h3ZM32 23.5h.02v-3H32v3ZM4.956 20.273A2.5 2.5 0 0 1 3.5 18h-3a5.5 5.5 0 0 0 3.202 4.998l1.254-2.725Zm3.901-6.379a11.5 11.5 0 0 0-5.979 7.36l2.902.763a8.5 8.5 0 0 1 4.419-5.44l-1.342-2.683Zm-5.979 7.36A11.494 11.494 0 0 0 2.5 24.18h3c0-.74.096-1.467.28-2.163l-2.902-.764Z"/></svg>