<svg xmlns="http://www.w3.org/2000/svg" viewBox="0 0 56 56" stroke-linejoin="round" stroke-linecap="round" stroke="currentColor" fill="none"><path d="M14.783 17.899a1.75 1.75 0 0 0-1.566-3.13l1.566 3.13Zm-3.667-.124.782 1.566-.782-1.566Zm8.195 32.269 1.566.782-1.566-.782ZM21 46.667l.553-1.66a1.75 1.75 0 0 0-2.118.877l1.565.783Zm14 0 1.565-.783a1.75 1.75 0 0 0-2.118-.877l.553 1.66Zm9.243-28.453-1.716.343 1.716-.343ZM42 7l1.716-.343A1.75 1.75 0 0 0 40.95 5.6L42 7Zm-10.383 5.6a1.75 1.75 0 1 0 2.1 2.8l-2.1-2.8Zm16.69 12.028-1.456.97 1.456-.97ZM44.59 19.05l1.456-.971-1.456.97ZM22.097 47.032l-.553 1.66.553-1.66Zm11.806 0 .553 1.66-.553-1.66ZM8.767 39.101 7.53 40.337 8.767 39.1Zm2.9 2.899h1.75c0-.464-.185-.91-.513-1.237L11.667 42ZM4.083 18.667a1.75 1.75 0 1 0-3.5 0h3.5Zm33.25 5.25a1.75 1.75 0 1 0 0 3.5v-3.5Zm.024 3.5a1.75 1.75 0 1 0 0-3.5v3.5Zm-24.14-12.649-2.884 1.442 1.565 3.13 2.885-1.441-1.566-3.13ZM2.917 28.21v.991h3.5v-.99h-3.5ZM14 53.083h3.224v-3.5H14v3.5Zm6.877-2.257 1.688-3.377-3.13-1.565-1.689 3.377 3.13 1.565Zm12.558-3.377 1.688 3.377 3.13-1.565-1.688-3.377-3.13 1.565Zm5.34 5.634H42v-3.5h-3.225v3.5ZM46.083 49v-4.667h-3.5V49h3.5ZM49 41.417h2.333v-3.5H49v3.5Zm6.417-4.084V28h-3.5v9.333h3.5Zm-9.458-19.462L43.716 6.657l-3.432.686 2.243 11.214 3.432-.686ZM40.949 5.6l-9.332 7 2.1 2.8 9.333-7-2.1-2.8Zm10.384 18.317H50.25v3.5h1.084v-3.5Zm-1.57-.26-3.718-5.577-2.912 1.941 3.718 5.577 2.912-1.941Zm-29.316 24.67 1.097.366 1.106-3.32-1.097-.366-1.107 3.32Zm14.01.366 1.096-.366-1.106-3.32-1.098.365 1.107 3.32ZM7.53 40.338l2.9 2.9 2.474-2.475-2.9-2.9-2.474 2.475ZM9.917 42v7h3.5v-7h-3.5Zm36.166 2.333A2.917 2.917 0 0 1 49 41.417v-3.5a6.417 6.417 0 0 0-6.417 6.416h3.5Zm-24.54 4.36a20.416 20.416 0 0 0 12.913 0l-1.107-3.32a16.916 16.916 0 0 1-10.699 0l-1.106 3.32ZM50.25 23.917a.583.583 0 0 1-.486-.26l-2.912 1.941a4.083 4.083 0 0 0 3.398 1.819v-3.5Zm1.084 17.5a4.083 4.083 0 0 0 4.084-4.084h-3.5a.583.583 0 0 1-.584.584v3.5ZM42 53.083A4.083 4.083 0 0 0 46.083 49h-3.5a.583.583 0 0 1-.583.583v3.5Zm-24.776 0c1.547 0 2.961-.873 3.653-2.257l-3.13-1.565a.583.583 0 0 1-.523.322v3.5ZM14 49.583a.583.583 0 0 1-.583-.583h-3.5A4.083 4.083 0 0 0 14 53.083v-3.5Zm21.123 1.243a4.083 4.083 0 0 0 3.652 2.257v-3.5a.583.583 0 0 1-.521-.322l-3.13 1.565Zm7.404-32.269c.104.523.31 1.02.606 1.464l2.912-1.941a.584.584 0 0 1-.086-.21l-3.432.687ZM2.917 29.201A15.75 15.75 0 0 0 7.53 40.338l2.474-2.475a12.25 12.25 0 0 1-3.587-8.662h-3.5ZM55.417 28a4.083 4.083 0 0 0-4.084-4.083v3.5c.322 0 .584.26.584.583h3.5Zm-24.5-16.333a7.583 7.583 0 0 1-7.584 7.583v3.5c6.121 0 11.084-4.962 11.084-11.083h-3.5Zm-7.584 7.583a7.583 7.583 0 0 1-7.583-7.583h-3.5c0 6.12 4.962 11.083 11.083 11.083v-3.5Zm-7.583-7.583a7.583 7.583 0 0 1 7.583-7.584v-3.5c-6.12 0-11.083 4.962-11.083 11.084h3.5Zm7.583-7.584a7.583 7.583 0 0 1 7.584 7.584h3.5c0-6.122-4.963-11.084-11.084-11.084v3.5ZM4.083 21v-2.333h-3.5V21h3.5Zm33.25 6.417h.024v-3.5h-.024v3.5Zm-31.55-3.765A2.918 2.918 0 0 1 4.082 21h-3.5a6.417 6.417 0 0 0 3.735 5.83l1.464-3.178Zm4.55-7.442a13.418 13.418 0 0 0-6.975 8.586l3.385.89a9.918 9.918 0 0 1 5.155-6.345l-1.565-3.13Zm-6.975 8.586a13.41 13.41 0 0 0-.441 3.414h3.5c0-.864.112-1.711.326-2.523l-3.385-.891Z"/></svg>