<svg xmlns="http://www.w3.org/2000/svg" viewBox="0 0 24 24" stroke-linejoin="round" stroke-linecap="round" stroke="currentColor" fill="none"><path d="M6.447 7.894a1 1 0 0 0-.894-1.788l.894 1.788Zm-1.683-.276.447.894-.447-.894Zm3.512 13.83.895.446-.895-.447ZM9 20l.316-.949a1 1 0 0 0-1.21.502L9 20Zm6 0 .894-.447a1 1 0 0 0-1.21-.502L15 20Zm3.961-12.194-.98.196.98-.196ZM18 3l.98-.196A1 1 0 0 0 17.4 2.2l.6.8Zm-4.6 2.2a1 1 0 1 0 1.2 1.6l-1.2-1.6Zm7.303 5.355-.832.554.832-.554Zm-1.593-2.39.832-.555-.832.555ZM9.47 20.157l-.316.948.316-.948Zm5.06 0 .316.948-.316-.948Zm-10.773-3.4-.707.707.707-.707ZM5 18h1a1 1 0 0 0-.293-.707L5 18ZM2 8a1 1 0 0 0-2 0h2Zm14 2a1 1 0 1 0 0 2v-2Zm.01 2a1 1 0 1 0 0-2v2ZM5.553 6.106l-1.236.618.894 1.788 1.236-.618-.894-1.788ZM1 12.09v.425h2v-.425H1ZM6 23h1.382v-2H6v2Zm3.17-1.106.724-1.447-1.788-.894L7.382 21l1.789.894Zm4.936-1.447.723 1.447L16.618 21l-.724-1.447-1.788.894ZM16.618 23H18v-2h-1.382v2ZM20 21v-2h-2v2h2Zm1-3h1v-2h-1v2Zm3-2v-4h-2v4h2Zm-4.058-8.39-.961-4.806-1.962.392.962 4.806 1.96-.392ZM17.4 2.2l-4 3 1.2 1.6 4-3-1.2-1.6ZM22 10h-.465v2H22v-2Zm-.465 0-1.593-2.39-1.664 1.11 1.593 2.39L21.535 10ZM8.684 20.949l.47.156.632-1.897-.47-.157-.632 1.898Zm6.162.156.47-.156-.632-1.898-.47.157.632 1.897ZM3.05 17.465l1.243 1.242 1.414-1.414-1.243-1.243-1.414 1.415ZM4 18v3h2v-3H4Zm16 1a1 1 0 0 1 1-1v-2a3 3 0 0 0-3 3h2ZM9.154 21.105a9 9 0 0 0 5.692 0l-.632-1.897a7 7 0 0 1-4.428 0l-.632 1.897ZM21.535 10l-1.664 1.11a2 2 0 0 0 1.664.89v-2ZM22 18a2 2 0 0 0 2-2h-2v2Zm-4 5a2 2 0 0 0 2-2h-2v2ZM7.382 23a2 2 0 0 0 1.789-1.106L7.382 21v2ZM6 21H4a2 2 0 0 0 2 2v-2Zm8.83.894A2 2 0 0 0 16.617 23v-2l-1.789.894Zm3.15-13.892c.052.256.153.5.298.717l1.664-1.11-1.961.393ZM1 12.515a7 7 0 0 0 2.05 4.95l1.414-1.415A5 5 0 0 1 3 12.515H1ZM24 12a2 2 0 0 0-2-2v2h2ZM13 5a3 3 0 0 1-3 3v2a5 5 0 0 0 5-5h-2Zm-3 3a3 3 0 0 1-3-3H5a5 5 0 0 0 5 5V8ZM7 5a3 3 0 0 1 3-3V0a5 5 0 0 0-5 5h2Zm3-3a3 3 0 0 1 3 3h2a5 5 0 0 0-5-5v2ZM2 9V8H0v1h2Zm14 3h.01v-2H16v2ZM2.583 9.91A1 1 0 0 1 2 9H0a3 3 0 0 0 1.746 2.726l.837-1.817Zm1.734-3.186a6 6 0 0 0-3.12 3.84l1.935.508a4 4 0 0 1 2.08-2.56l-.895-1.788Zm-3.12 3.84A5.997 5.997 0 0 0 1 12.09h2c0-.349.045-.69.132-1.018l-1.935-.509Z"/></svg>