<svg xmlns="http://www.w3.org/2000/svg" viewBox="0 0 16 16" stroke-linejoin="round" stroke-linecap="round" stroke="currentColor" fill="none"><g clip-path="url(#a)"><path d="M4.335 5.337a.75.75 0 1 0-.67-1.341l.67 1.341ZM3.176 5.08l.335.67-.335-.67Zm2.342 9.22.67.335-.67-.336ZM6 13.332l.237-.711a.75.75 0 0 0-.908.376l.671.335Zm4 0 .67-.335a.75.75 0 0 0-.907-.376l.237.711Zm2.64-8.129-.735.147.736-.147ZM12 2l.736-.147A.75.75 0 0 0 11.55 1.4L12 2ZM8.883 3.4a.75.75 0 0 0 .9 1.2l-.9-1.2Zm4.92 3.636-.625.416.624-.416ZM12.74 5.443l.624-.416-.624.416Zm-6.426 7.995-.238.711.238-.711Zm3.373 0 .237.711-.237-.711Zm-7.182-2.266-.53.53.53-.53Zm.828.828h.75a.75.75 0 0 0-.22-.53l-.53.53ZM1.417 5.333a.75.75 0 0 0-1.5 0h1.5Zm9.25 1.25a.75.75 0 0 0 0 1.5v-1.5Zm.006 1.5a.75.75 0 0 0 0-1.5v1.5ZM3.665 3.996l-.824.412.67 1.341.824-.412-.67-1.341ZM.583 8.06v.283h1.5V8.06h-1.5ZM4 15.417h.921v-1.5h-.92v1.5Zm2.189-.784.482-.964-1.342-.671-.482.965 1.341.67Zm3.14-.964.483.964 1.341-.67-.482-.965-1.342.67Zm1.75 1.748H12v-1.5h-.921v1.5ZM13.417 14v-1.333h-1.5V14h1.5ZM14 12.083h.667v-1.5H14v1.5Zm2.083-1.416V8h-1.5v2.667h1.5Zm-2.707-5.61-.64-3.204-1.471.294.64 3.204 1.471-.294ZM11.55 1.4l-2.667 2 .9 1.2 2.667-2-.9-1.2Zm3.117 5.183h-.31v1.5h.31v-1.5Zm-.24.037-1.063-1.593-1.248.832 1.062 1.593 1.248-.832Zm-8.664 7.425.313.104.475-1.423-.314-.104-.474 1.423Zm4.16.104.314-.104-.474-1.423-.314.104.475 1.423Zm-7.948-2.447.828.828 1.06-1.06-.828-.829-1.06 1.06Zm.608.298v2h1.5v-2h-1.5Zm10.834.667c0-.322.26-.584.583-.584v-1.5c-1.15 0-2.083.933-2.083 2.084h1.5Zm-7.34 1.482a6.082 6.082 0 0 0 3.847 0l-.475-1.423a4.583 4.583 0 0 1-2.898 0l-.475 1.423Zm8.28-7.566c.028 0 .054.014.07.037l-1.249.832c.263.395.705.631 1.179.631v-1.5Zm.31 5.5c.782 0 1.416-.634 1.416-1.416h-1.5c0-.046.038-.084.084-.084v1.5ZM12 15.417c.783 0 1.417-.635 1.417-1.417h-1.5c0-.046.037-.083.083-.083v1.5Zm-7.079 0c.537 0 1.028-.303 1.268-.784l-1.342-.67a.083.083 0 0 1 .074-.046v1.5Zm-.92-1.5c.045 0 .082.037.082.083h-1.5c0 .782.635 1.417 1.417 1.417v-1.5Zm5.81.716c.24.48.731.784 1.268.784v-1.5c.031 0 .06.018.074.046l-1.341.67Zm2.094-9.282c.037.182.108.354.21.508l1.249-.832c.006.01.01.02.012.03l-1.47.294ZM.583 8.343c0 1.26.5 2.468 1.392 3.359l1.06-1.06a3.25 3.25 0 0 1-.952-2.299h-1.5ZM16.083 8c0-.782-.634-1.417-1.416-1.417v1.5A.083.083 0 0 1 14.583 8h1.5Zm-7.5-4.667A1.917 1.917 0 0 1 6.667 5.25v1.5a3.417 3.417 0 0 0 3.416-3.417h-1.5ZM6.667 5.25A1.917 1.917 0 0 1 4.75 3.333h-1.5A3.417 3.417 0 0 0 6.667 6.75v-1.5ZM4.75 3.333c0-1.058.858-1.916 1.917-1.916v-1.5A3.417 3.417 0 0 0 3.25 3.333h1.5Zm1.917-1.916c1.058 0 1.916.858 1.916 1.916h1.5A3.417 3.417 0 0 0 6.667-.083v1.5ZM1.417 6v-.667h-1.5V6h1.5Zm9.25 2.083h.006v-1.5h-.006v1.5ZM1.757 6.53a.584.584 0 0 1-.34-.53h-1.5c0 .841.498 1.564 1.212 1.893l.628-1.362ZM2.84 4.409A4.084 4.084 0 0 0 .718 7.02l1.45.382A2.584 2.584 0 0 1 3.511 5.75l-.67-1.342ZM.718 7.02a4.081 4.081 0 0 0-.135 1.04h1.5c0-.226.03-.447.085-.658L.718 7.02Z"/></g><defs><clipPath id="a"><path d="M0 0H16V16H0z"/></clipPath></defs></svg>