<svg xmlns="http://www.w3.org/2000/svg" viewBox="0 0 40 40" stroke-linejoin="round" stroke-linecap="round" stroke="currentColor" fill="none"><path d="M10.56 12.785a1.25 1.25 0 1 0-1.119-2.236l1.118 2.236Zm-2.62-.088.559 1.118-.559-1.118Zm5.854 23.048 1.118.56-1.118-.56ZM15 33.333l.395-1.185a1.25 1.25 0 0 0-1.513.626l1.118.56Zm10 0 1.118-.559a1.25 1.25 0 0 0-1.513-.627L25 33.334Zm6.602-20.323-1.226.245 1.226-.245ZM30 5l1.226-.245A1.25 1.25 0 0 0 29.25 4L30 5Zm-7.417 4a1.25 1.25 0 1 0 1.5 2l-1.5-2Zm11.922 8.591-1.04.694 1.04-.694Zm-2.655-3.983 1.04-.694-1.04.694ZM15.784 33.595l-.396 1.185.396-1.185Zm8.432 0 .396 1.185-.395-1.185ZM6.262 27.929l-.884.884.884-.884ZM8.333 30h1.25c0-.331-.131-.65-.366-.884L8.333 30ZM2.917 13.333a1.25 1.25 0 1 0-2.5 0h2.5Zm23.75 3.75a1.25 1.25 0 0 0 0 2.5v-2.5Zm.016 2.5a1.25 1.25 0 0 0 0-2.5v2.5ZM9.441 10.55l-2.06 1.03 1.118 2.236 2.06-1.03-1.118-2.236ZM2.083 20.15v.708h2.5v-.708h-2.5ZM10 37.917h2.303v-2.5H10v2.5Zm4.912-1.613 1.206-2.412-2.236-1.118-1.206 2.412 2.236 1.118Zm8.97-2.412 1.206 2.412 2.236-1.118-1.206-2.412-2.236 1.118Zm3.815 4.025H30v-2.5h-2.303v2.5ZM32.917 35v-3.333h-2.5V35h2.5ZM35 29.583h1.667v-2.5H35v2.5Zm4.583-2.916V20h-2.5v6.667h2.5Zm-6.755-13.902-1.602-8.01-2.452.49 1.602 8.01 2.452-.49ZM29.25 4l-6.667 5 1.5 2 6.667-5-1.5-2Zm7.417 13.083h-.775v2.5h.775v-2.5Zm-1.122-.185-2.655-3.984-2.08 1.387 2.655 3.984 2.08-1.387Zm-20.94 17.621.783.261.791-2.371-.784-.261-.79 2.371Zm10.007.261.783-.26-.79-2.373-.784.262.79 2.371ZM5.378 28.813l2.072 2.07 1.767-1.767-2.07-2.07-1.769 1.767ZM7.083 30v5h2.5v-5h-2.5Zm25.834 1.667c0-1.15.932-2.084 2.083-2.084v-2.5a4.583 4.583 0 0 0-4.583 4.584h2.5ZM15.388 34.78c2.994.998 6.23.998 9.224 0l-.79-2.371c-2.481.827-5.163.827-7.643 0l-.79 2.371Zm20.504-17.697c-.14 0-.27-.07-.347-.185l-2.08 1.387a2.917 2.917 0 0 0 2.427 1.298v-2.5Zm.775 12.5a2.917 2.917 0 0 0 2.916-2.916h-2.5c0 .23-.186.416-.416.416v2.5ZM30 37.917A2.917 2.917 0 0 0 32.917 35h-2.5c0 .23-.187.417-.417.417v2.5Zm-17.697 0a2.917 2.917 0 0 0 2.61-1.613l-2.237-1.118a.417.417 0 0 1-.373.23v2.5ZM10 35.417A.417.417 0 0 1 9.583 35h-2.5A2.917 2.917 0 0 0 10 37.917v-2.5Zm15.088.887a2.917 2.917 0 0 0 2.609 1.613v-2.5a.417.417 0 0 1-.373-.23l-2.236 1.117Zm5.288-23.049c.075.374.222.73.434 1.046l2.08-1.387a.417.417 0 0 1-.062-.15l-2.452.491ZM2.083 20.858a11.25 11.25 0 0 0 3.295 7.955l1.768-1.768a8.75 8.75 0 0 1-2.563-6.187h-2.5Zm37.5-.858a2.917 2.917 0 0 0-2.916-2.917v2.5c.23 0 .416.187.416.417h2.5Zm-17.5-11.667a5.417 5.417 0 0 1-5.416 5.417v2.5a7.917 7.917 0 0 0 7.916-7.917h-2.5Zm-5.416 5.417a5.417 5.417 0 0 1-5.417-5.417h-2.5a7.917 7.917 0 0 0 7.917 7.917v-2.5ZM11.25 8.333a5.417 5.417 0 0 1 5.417-5.416v-2.5A7.917 7.917 0 0 0 8.75 8.333h2.5Zm5.417-5.416a5.417 5.417 0 0 1 5.416 5.416h2.5A7.917 7.917 0 0 0 16.667.417v2.5ZM2.917 15v-1.667h-2.5V15h2.5Zm23.75 4.583h.016v-2.5h-.016v2.5ZM4.13 16.894A2.084 2.084 0 0 1 2.917 15h-2.5c0 1.85 1.095 3.44 2.668 4.165l1.045-2.271Zm3.251-5.315a9.584 9.584 0 0 0-4.982 6.132l2.417.637A7.084 7.084 0 0 1 8.5 13.815l-1.118-2.236ZM2.399 17.71a9.577 9.577 0 0 0-.316 2.44h2.5c0-.618.08-1.223.233-1.803L2.4 17.71Z"/></svg>