<svg xmlns="http://www.w3.org/2000/svg" viewBox="0 0 32 32" stroke-linejoin="round" stroke-linecap="round" stroke="currentColor" fill="none"><path d="M8.514 10.362a1.15 1.15 0 1 0-1.028-2.057l1.028 2.057Zm-2.162-.205.514 1.029-.514-1.029Zm4.683 18.44 1.029.514-1.029-.515Zm.965-1.93.364-1.091a1.15 1.15 0 0 0-1.393.576l1.029.515Zm8 0 1.029-.515a1.15 1.15 0 0 0-1.393-.576l.364 1.09Zm5.282-16.259-1.128.226 1.128-.226ZM24 4l1.128-.226a1.15 1.15 0 0 0-1.818-.694L24 4Zm-6.023 3.08a1.15 1.15 0 1 0 1.38 1.84l-1.38-1.84Zm9.627 6.993-.957.638.957-.638Zm-2.124-3.187.956-.638-.956.638Zm-12.853 15.99-.364 1.09.364-1.09Zm6.746 0 .364 1.09-.364-1.09ZM5.01 22.343l-.813.813.813-.813ZM6.667 24h1.15a1.15 1.15 0 0 0-.337-.813L6.667 24ZM2.483 10.667a1.15 1.15 0 1 0-2.3 0h2.3Zm18.85 2.85a1.15 1.15 0 1 0 0 2.3v-2.3Zm.014 2.3a1.15 1.15 0 0 0 0-2.3v2.3ZM7.486 8.305l-1.648.824 1.028 2.057 1.648-.824-1.028-2.057Zm-5.97 7.815v.566h2.3v-.566h-2.3ZM8 30.483h1.843v-2.3H8v2.3Zm4.064-1.372.964-1.93-2.057-1.029-.964 1.93 2.057 1.029Zm6.907-1.93.965 1.93 2.057-1.029-.964-1.93-2.058 1.029Zm3.186 3.302H24v-2.3h-1.843v2.3ZM26.483 28v-2.667h-2.3V28h2.3ZM28 23.817h1.333v-2.3H28v2.3Zm3.817-2.484V16h-2.3v5.333h2.3Zm-5.408-11.15-1.281-6.409-2.256.452 1.282 6.408 2.255-.452Zm-3.1-7.103-5.332 4 1.38 1.84 5.333-4-1.38-1.84Zm6.024 10.437h-.62v2.3h.62v-2.3Zm-.772-.082-2.125-3.187-1.913 1.276 2.124 3.187 1.914-1.276ZM11.636 27.758l.627.209.728-2.182-.627-.21-.728 2.183Zm8.1.209.628-.21-.728-2.181-.627.209.728 2.182Zm-15.54-4.81 1.657 1.656 1.627-1.626-1.657-1.657-1.626 1.626Zm1.32.843v4h2.3v-4h-2.3Zm20.967 1.333c0-.837.68-1.516 1.517-1.516v-2.3a3.817 3.817 0 0 0-3.817 3.816h2.3Zm-14.22 2.634c2.426.808 5.048.808 7.474 0l-.728-2.182a9.517 9.517 0 0 1-6.018 0l-.728 2.182Zm16.45-14.45a.183.183 0 0 1-.152-.082l-1.914 1.276a2.484 2.484 0 0 0 2.067 1.106v-2.3Zm.62 10.3a2.483 2.483 0 0 0 2.484-2.484h-2.3a.183.183 0 0 1-.184.184v2.3ZM24 30.483A2.483 2.483 0 0 0 26.483 28h-2.3a.183.183 0 0 1-.183.183v2.3Zm-14.157 0c.94 0 1.8-.531 2.22-1.372l-2.056-1.029a.183.183 0 0 1-.164.101v2.3ZM8 28.183A.183.183 0 0 1 7.817 28h-2.3A2.483 2.483 0 0 0 8 30.483v-2.3Zm11.936.928a2.483 2.483 0 0 0 2.221 1.372v-2.3a.183.183 0 0 1-.164-.101l-2.057 1.029Zm4.218-18.477c.064.318.189.62.369.89l1.913-1.276a.183.183 0 0 1-.027-.066l-2.255.452ZM1.517 16.686a9.15 9.15 0 0 0 2.68 6.47l1.626-1.626a6.85 6.85 0 0 1-2.006-4.844h-2.3Zm30.3-.686a2.483 2.483 0 0 0-2.484-2.483v2.3c.102 0 .184.082.184.183h2.3Zm-14.3-9.333a4.183 4.183 0 0 1-4.184 4.183v2.3a6.483 6.483 0 0 0 6.484-6.483h-2.3Zm-4.184 4.183A4.183 4.183 0 0 1 9.15 6.667h-2.3a6.483 6.483 0 0 0 6.483 6.483v-2.3ZM9.15 6.667a4.183 4.183 0 0 1 4.183-4.184v-2.3A6.483 6.483 0 0 0 6.85 6.667h2.3Zm4.183-4.184a4.183 4.183 0 0 1 4.184 4.184h2.3A6.483 6.483 0 0 0 13.333.183v2.3ZM2.483 12v-1.333h-2.3V12h2.3Zm18.85 3.817h.014v-2.3h-.014v2.3ZM3.367 13.379A1.517 1.517 0 0 1 2.483 12h-2.3c0 1.54.913 2.865 2.222 3.468l.962-2.09Zm2.47-4.25a7.817 7.817 0 0 0-4.063 5.002l2.224.585a5.517 5.517 0 0 1 2.868-3.53L5.838 9.129ZM1.775 14.13a7.812 7.812 0 0 0-.257 1.99h2.3c0-.482.062-.953.181-1.405l-2.224-.585Z"/></svg>