<?xml version="1.0" encoding="utf-8"?>
<!-- Generator: Adobe Illustrator 25.0.0, SVG Export Plug-In . SVG Version: 6.00 Build 0)  -->
<svg version="1.1" id="Layer_1" xmlns="http://www.w3.org/2000/svg" xmlns:xlink="http://www.w3.org/1999/xlink" x="0px" y="0px"
	 viewBox="0 0 512 512" style="enable-background:new 0 0 512 512;" xml:space="preserve">
<style type="text/css">
	.st0{fill:#FFED00;}
</style>
<g>
	<g>
		<path class="st0" d="M508.9,493.8L353.1,338c32.4-35.9,52.2-83.3,52.2-135.3C405.3,90.9,314.4,0,202.7,0S0,90.9,0,202.7
			s90.9,202.7,202.7,202.7c52,0,99.4-19.9,135.3-52.2L493.8,509c2.1,2.1,4.8,3.1,7.5,3.1s5.5-1,7.5-3.1
			C513,504.7,513,498,508.9,493.8z M202.7,384c-100,0-181.3-81.3-181.3-181.3S102.7,21.3,202.7,21.3S384,102.7,384,202.7
			S302.6,384,202.7,384z"/>
	</g>
</g>
</svg>
