<svg xmlns="http://www.w3.org/2000/svg" viewBox="0 0 16 16" stroke-linejoin="round" stroke-linecap="round" stroke="currentColor" fill="none"><g clip-path="url(#a)"><path stroke-width="1.5" d="M8 6v2l1 1m2.007 2.567-.234 2.553a1.333 1.333 0 0 1-1.333 1.213H6.553A1.333 1.333 0 0 1 5.22 14.12l-.233-2.553m.006-7.134.234-2.553A1.333 1.333 0 0 1 6.553.667h2.9a1.333 1.333 0 0 1 1.334 1.213l.233 2.553M12.667 8a4.667 4.667 0 1 1-9.334 0 4.667 4.667 0 0 1 9.334 0Z"/></g><defs><clipPath id="a"><path d="M0 0H16V16H0z"/></clipPath></defs></svg>