<svg xmlns="http://www.w3.org/2000/svg" viewBox="0 0 56 56" stroke-linejoin="round" stroke-linecap="round" stroke="currentColor" fill="none"><path stroke-width="3.5" d="M28 21v7l3.5 3.5m7.023 8.983-.816 8.937a4.667 4.667 0 0 1-4.667 4.247H22.937a4.666 4.666 0 0 1-4.667-4.247l-.817-8.937m.024-24.966.816-8.937a4.667 4.667 0 0 1 4.644-4.247h10.15a4.666 4.666 0 0 1 4.666 4.247l.817 8.937M44.333 28c0 9.02-7.312 16.333-16.333 16.333-9.02 0-16.333-7.312-16.333-16.333 0-9.02 7.312-16.333 16.333-16.333 9.02 0 16.333 7.312 16.333 16.333Z"/></svg>