<svg xmlns="http://www.w3.org/2000/svg" viewBox="0 0 40 40" stroke-linejoin="round" stroke-linecap="round" stroke="currentColor" fill="none"><path stroke-width="2.5" d="M20 15v5l2.5 2.5m5.017 6.417-.584 6.383a3.333 3.333 0 0 1-3.333 3.033h-7.217A3.333 3.333 0 0 1 13.05 35.3l-.583-6.383m.016-17.834.584-6.383a3.334 3.334 0 0 1 3.316-3.033h7.25A3.333 3.333 0 0 1 26.967 4.7l.583 6.383M31.667 20c0 6.443-5.224 11.667-11.667 11.667S8.333 26.443 8.333 20 13.557 8.333 20 8.333 31.667 13.557 31.667 20Z"/></svg>