<svg width="16" height="16" viewBox="0 0 16 16" fill="none" xmlns="http://www.w3.org/2000/svg">
<path d="M14 1.33325L12.6667 2.66659M12.6667 2.66659L14.6667 4.66659L12.3333 6.99992L10.3333 4.99992M12.6667 2.66659L10.3333 4.99992M7.59333 7.73992C7.93756 8.07956 8.2112 8.48394 8.3985 8.92978C8.5858 9.37561 8.68306 9.8541 8.68468 10.3377C8.68631 10.8213 8.59225 11.3004 8.40794 11.7475C8.22363 12.1945 7.95271 12.6007 7.61076 12.9427C7.26882 13.2846 6.86261 13.5556 6.41554 13.7399C5.96846 13.9242 5.48933 14.0182 5.00575 14.0166C4.52218 14.015 4.0437 13.9177 3.59786 13.7304C3.15203 13.5431 2.74764 13.2695 2.408 12.9253C1.74009 12.2337 1.37051 11.3075 1.37886 10.3461C1.38722 9.38473 1.77284 8.46508 2.45267 7.78525C3.13249 7.10542 4.05214 6.7198 5.01353 6.71145C5.97492 6.70309 6.90113 7.07267 7.59267 7.74059L7.59333 7.73992ZM7.59333 7.73992L10.3333 4.99992" stroke="currentColor" stroke-width="1.5" stroke-linecap="round" stroke-linejoin="round"/>
</svg>
