<svg width="32" height="32" viewBox="0 0 32 32" fill="none" xmlns="http://www.w3.org/2000/svg">
<path d="M28 2.66675L25.3333 5.33341M25.3333 5.33341L29.3333 9.33341L24.6667 14.0001L20.6667 10.0001M25.3333 5.33341L20.6667 10.0001M15.1867 15.4801C15.8751 16.1594 16.4224 16.9681 16.797 17.8598C17.1716 18.7515 17.3661 19.7084 17.3694 20.6756C17.3726 21.6427 17.1845 22.601 16.8159 23.4952C16.4473 24.3893 15.9054 25.2017 15.2215 25.8856C14.5376 26.5695 13.7252 27.1113 12.8311 27.48C11.9369 27.8486 10.9787 28.0367 10.0115 28.0335C9.04435 28.0302 8.08739 27.8357 7.19572 27.4611C6.30405 27.0865 5.49529 26.5392 4.816 25.8507C3.48017 24.4677 2.74102 22.6153 2.75772 20.6925C2.77443 18.7697 3.54567 16.9304 4.90533 15.5707C6.26499 14.2111 8.10428 13.4398 10.0271 13.4231C11.9498 13.4064 13.8023 14.1456 15.1853 15.4814L15.1867 15.4801ZM15.1867 15.4801L20.6667 10.0001" stroke="currentColor" stroke-width="2.3" stroke-linecap="round" stroke-linejoin="round"/>
</svg>
