<svg width="40" height="40" viewBox="0 0 40 40" fill="none" xmlns="http://www.w3.org/2000/svg">
<path d="M35 3.33325L31.6666 6.66659M31.6666 6.66659L36.6666 11.6666L30.8333 17.4999L25.8333 12.4999M31.6666 6.66659L25.8333 12.4999M18.9833 19.3499C19.8439 20.199 20.528 21.21 20.9962 22.3246C21.4645 23.4392 21.7076 24.6354 21.7117 25.8443C21.7157 27.0533 21.4806 28.2511 21.0198 29.3688C20.5591 30.4865 19.8817 31.502 19.0269 32.3568C18.172 33.2117 17.1565 33.889 16.0388 34.3498C14.9211 34.8105 13.7233 35.0457 12.5144 35.0416C11.3054 35.0376 10.1092 34.7944 8.99462 34.3262C7.88003 33.8579 6.86908 33.1738 6.01997 32.3133C4.35019 30.5844 3.42624 28.2689 3.44712 25.8654C3.46801 23.4619 4.43206 21.1628 6.13163 19.4632C7.83121 17.7637 10.1303 16.7996 12.5338 16.7787C14.9373 16.7579 17.2528 17.6818 18.9816 19.3516L18.9833 19.3499ZM18.9833 19.3499L25.8333 12.4999" stroke="currentColor" stroke-width="2.5" stroke-linecap="round" stroke-linejoin="round"/>
</svg>
