<svg width="40" height="40" viewBox="0 0 16 17" fill="none" xmlns="http://www.w3.org/2000/svg"><g id="key"><path id="Vector" d="M13.9999 1.78418L12.6666 3.11751M12.6666 3.11751L14.6666 5.11751L12.3333 7.45085L10.3333 5.45085M12.6666 3.11751L10.3333 5.45085M7.59327 8.19085C7.9375 8.53049 8.21114 8.93487 8.39844 9.38071C8.58574 9.82654 8.683 10.305 8.68462 10.7886C8.68624 11.2722 8.59219 11.7513 8.40788 12.1984C8.22357 12.6455 7.95265 13.0517 7.6107 13.3936C7.26876 13.7356 6.86255 14.0065 6.41547 14.1908C5.96839 14.3751 5.48927 14.4692 5.00569 14.4675C4.52212 14.4659 4.04363 14.3687 3.5978 14.1813C3.15196 13.994 2.74758 13.7204 2.40794 13.3762C1.74003 12.6846 1.37045 11.7584 1.3788 10.797C1.38715 9.83565 1.77277 8.91601 2.4526 8.23618C3.13243 7.55635 4.05208 7.17073 5.01347 7.16238C5.97486 7.15402 6.90106 7.5236 7.59261 8.19151L7.59327 8.19085ZM7.59327 8.19085L10.3333 5.45085" stroke="currentColor" stroke-width="1.5" stroke-linecap="round" stroke-linejoin="round"/></g></svg>
