<svg width="56" height="56" viewBox="0 0 56 56" fill="none" xmlns="http://www.w3.org/2000/svg">
<path d="M49 4.6665L44.3334 9.33317M44.3334 9.33317L51.3334 16.3332L43.1667 24.4998L36.1667 17.4998M44.3334 9.33317L36.1667 17.4998M26.5767 27.0898C27.7815 28.2786 28.7392 29.6939 29.3948 31.2543C30.0503 32.8148 30.3908 34.4895 30.3964 36.182C30.4021 37.8745 30.0729 39.5514 29.4278 41.1162C28.7827 42.681 27.8345 44.1027 26.6377 45.2995C25.4409 46.4963 24.0192 47.4445 22.4544 48.0896C20.8896 48.7347 19.2127 49.0639 17.5202 49.0582C15.8276 49.0526 14.153 48.7122 12.5925 48.0566C11.0321 47.401 9.61679 46.4433 8.42803 45.2385C6.09033 42.8181 4.79681 39.5764 4.82605 36.2115C4.85529 32.8467 6.20495 29.6279 8.58436 27.2485C10.9638 24.8691 14.1825 23.5194 17.5474 23.4902C20.9122 23.4609 24.154 24.7545 26.5744 27.0922L26.5767 27.0898ZM26.5767 27.0898L36.1667 17.4998" stroke="currentColor" stroke-width="3.5" stroke-linecap="round" stroke-linejoin="round"/>
</svg>
