<svg xmlns="http://www.w3.org/2000/svg" viewBox="0 0 56 56" stroke-linejoin="round" stroke-linecap="round" stroke="currentColor" fill="none"><path stroke-width="3.5" d="M32.667 40.833v-8.166h8.166M32.667 49h8.166m0-8.167H49V49M15.167 15.167h.023m25.643 0h.024m-25.69 25.666h.023M49 32.667h.023m-37.356-9.334h7a4.667 4.667 0 0 0 4.666-4.666v-7A4.667 4.667 0 0 0 18.667 7h-7A4.667 4.667 0 0 0 7 11.667v7a4.667 4.667 0 0 0 4.667 4.666Zm0 25.667h7a4.667 4.667 0 0 0 4.666-4.667v-7a4.667 4.667 0 0 0-4.666-4.666h-7A4.667 4.667 0 0 0 7 37.333v7A4.667 4.667 0 0 0 11.667 49Zm25.666-25.667h7A4.667 4.667 0 0 0 49 18.667v-7A4.667 4.667 0 0 0 44.333 7h-7a4.667 4.667 0 0 0-4.666 4.667v7a4.667 4.667 0 0 0 4.666 4.666Z"/></svg>