<svg xmlns="http://www.w3.org/2000/svg" viewBox="0 0 32 32" stroke-linejoin="round" stroke-linecap="round" stroke="currentColor" fill="none"><path stroke-width="2.3" d="M18.667 23.333v-4.666h4.666M18.667 28h4.666m0-4.667H28V28M8.667 8.667h.013m14.653 0h.014M8.667 23.333h.013M28 18.667h.013M6.667 13.333h4a2.667 2.667 0 0 0 2.666-2.666v-4A2.667 2.667 0 0 0 10.667 4h-4A2.667 2.667 0 0 0 4 6.667v4a2.667 2.667 0 0 0 2.667 2.666Zm0 14.667h4a2.667 2.667 0 0 0 2.666-2.667v-4a2.667 2.667 0 0 0-2.666-2.666h-4A2.667 2.667 0 0 0 4 21.333v4A2.667 2.667 0 0 0 6.667 28Zm14.666-14.667h4A2.667 2.667 0 0 0 28 10.667v-4A2.667 2.667 0 0 0 25.333 4h-4a2.667 2.667 0 0 0-2.666 2.667v4a2.667 2.667 0 0 0 2.666 2.666Z"/></svg>