<svg xmlns="http://www.w3.org/2000/svg" viewBox="0 0 40 40" stroke-linejoin="round" stroke-linecap="round" stroke="currentColor" fill="none"><path stroke-width="2.5" d="M23.333 29.167v-5.834h5.834M23.333 35h5.834m0-5.833H35V35M10.833 10.833h.017m18.317 0h.016m-18.35 18.334h.017M35 23.333h.017M8.333 16.667h5a3.333 3.333 0 0 0 3.334-3.334v-5A3.333 3.333 0 0 0 13.333 5h-5A3.333 3.333 0 0 0 5 8.333v5a3.333 3.333 0 0 0 3.333 3.334Zm0 18.333h5a3.333 3.333 0 0 0 3.334-3.333v-5a3.333 3.333 0 0 0-3.334-3.334h-5A3.333 3.333 0 0 0 5 26.667v5A3.333 3.333 0 0 0 8.333 35Zm18.334-18.333h5A3.333 3.333 0 0 0 35 13.333v-5A3.333 3.333 0 0 0 31.667 5h-5a3.333 3.333 0 0 0-3.334 3.333v5a3.333 3.333 0 0 0 3.334 3.334Z"/></svg>