<svg xmlns="http://www.w3.org/2000/svg" viewBox="0 0 16 16" stroke-linejoin="round" stroke-linecap="round" stroke="currentColor" fill="none"><path stroke-width="1.5" d="M9.333 11.667V9.333h2.334M9.333 14h2.334m0-2.333H14V14M4.333 4.333h.007m7.327 0h.006m-7.34 7.334h.007M14 9.333h.007M3.333 6.667h2c.737 0 1.334-.597 1.334-1.334v-2C6.667 2.597 6.07 2 5.333 2h-2C2.597 2 2 2.597 2 3.333v2c0 .737.597 1.334 1.333 1.334Zm0 7.333h2c.737 0 1.334-.597 1.334-1.333v-2c0-.737-.597-1.334-1.334-1.334h-2C2.597 9.333 2 9.93 2 10.667v2C2 13.403 2.597 14 3.333 14Zm7.334-7.333h2c.736 0 1.333-.597 1.333-1.334v-2C14 2.597 13.403 2 12.667 2h-2c-.737 0-1.334.597-1.334 1.333v2c0 .737.597 1.334 1.334 1.334Z"/></svg>