<svg width="32" height="32" viewBox="0 0 32 32" fill="none" xmlns="http://www.w3.org/2000/svg">
<g clip-path="url(#clip0_9056_4248)">
<path fill-rule="evenodd" clip-rule="evenodd" d="M0.942863 0.678978C1.04553 0.82547 3.42322 4.28628 6.22664 8.36963C9.03006 12.453 11.623 16.2292 11.9887 16.7613C12.3544 17.2934 12.6536 17.7394 12.6536 17.7524C12.6536 17.7655 12.5174 17.9334 12.3509 18.1255C12.1845 18.3177 11.7157 18.8616 11.3092 19.3342C10.9027 19.8068 10.2175 20.6034 9.78641 21.1043C9.35539 21.6053 8.59709 22.4869 8.10127 23.0635C7.6055 23.6401 6.71393 24.6767 6.12002 25.3671C4.28317 27.5025 4.01809 27.8109 2.61982 29.4395C1.8732 30.3091 1.15724 31.1405 1.02883 31.2871C0.900415 31.4338 0.795341 31.5691 0.795341 31.5879C0.795341 31.6099 1.26431 31.6221 2.11662 31.6221H3.43787L4.89045 29.9292C5.68938 28.9982 6.47749 28.0818 6.64179 27.8927C6.99709 27.484 9.7066 24.3313 9.93435 24.0617C10.0215 23.9584 10.1482 23.8115 10.2158 23.7351C10.2835 23.6588 10.8165 23.0395 11.4004 22.3589C11.9843 21.6783 12.4781 21.1048 12.4976 21.0845C12.5172 21.0641 12.8263 20.7045 13.1846 20.2853C13.5428 19.8662 13.8469 19.5232 13.8604 19.5232C13.874 19.5232 15.7141 22.1875 17.9497 25.4437C20.1852 28.7 22.0542 31.4219 22.103 31.4924L22.1917 31.6206L26.7238 31.6213C30.4509 31.6219 31.2529 31.614 31.2386 31.5769C31.2235 31.5375 29.0521 28.3703 23.4815 20.2622C19.4712 14.4254 18.938 13.641 18.9533 13.6012C18.9681 13.5625 19.5144 12.9236 23.1055 8.74487C23.7215 8.02808 24.5706 7.03945 24.9925 6.54794C25.4143 6.05642 25.8402 5.56147 25.939 5.44804C26.0377 5.33462 26.5568 4.73139 27.0925 4.10755C27.6282 3.4837 28.5388 2.42368 29.1162 1.75196C29.6935 1.08023 30.1872 0.504095 30.2131 0.471614C30.2575 0.416035 30.182 0.412598 28.9182 0.412598H27.5761L26.9792 1.10862C26.1848 2.03494 24.7487 3.70537 24.3409 4.17739C24.1608 4.38596 23.9361 4.64808 23.8415 4.75985C23.747 4.87163 23.5605 5.08766 23.4271 5.23992C23.2937 5.39219 22.6214 6.17414 21.9331 6.97758C21.2449 7.78102 20.6723 8.44611 20.6608 8.45556C20.6493 8.46501 20.5018 8.63608 20.333 8.83575C20.0379 9.18496 19.7376 9.53452 18.3602 11.1319C17.7556 11.8331 17.7246 11.8632 17.6736 11.7988C17.6443 11.7616 15.8725 9.18469 13.7363 6.07227L9.85227 0.413319L5.30425 0.412942L0.756226 0.412598L0.942863 0.678978ZM4.49253 2.53477C4.52669 2.58691 5.37643 3.80508 6.38087 5.24181C8.28585 7.96666 15.7717 18.6806 20.5859 25.5726C22.1243 27.775 23.4017 29.5964 23.4247 29.6202C23.4575 29.6542 23.9054 29.6615 25.5177 29.6546L27.569 29.6457L22.2012 21.9636C19.2488 17.7385 14.9743 11.6212 12.7023 8.36963L8.57131 2.45771L6.5009 2.44884L4.43049 2.43998L4.49253 2.53477Z" fill="currentColor"/>
</g>
<defs>
<clipPath id="clip0_9056_4248">
<rect width="32" height="32" fill="white"/>
</clipPath>
</defs>
</svg>
