<svg width="48" height="48" viewBox="0 0 48 48" fill="none" xmlns="http://www.w3.org/2000/svg">
<path fill-rule="evenodd" clip-rule="evenodd" d="M1.41423 1.01822C1.56824 1.23796 5.13478 6.42918 9.33991 12.5542C13.545 18.6792 17.4344 24.3436 17.9829 25.1417C18.5315 25.9398 18.9803 26.6088 18.9803 26.6284C18.9803 26.648 18.776 26.8999 18.5264 27.1881C18.2767 27.4763 17.5735 28.2921 16.9638 29.001C16.354 29.71 15.3261 30.9048 14.6796 31.6562C14.033 32.4077 12.8956 33.7301 12.1519 34.595C11.4082 35.4599 10.0708 37.0148 9.17998 38.0504C6.42469 41.2535 6.02708 41.7161 3.92967 44.1589C2.80974 45.4633 1.7358 46.7105 1.54318 46.9305C1.35056 47.1504 1.19295 47.3534 1.19295 47.3816C1.19295 47.4146 1.8964 47.4328 3.17487 47.4328H5.15674L7.33561 44.8936C8.53401 43.497 9.71617 42.1224 9.96262 41.8388C10.4956 41.2257 14.5598 36.4967 14.9015 36.0923C15.0323 35.9374 15.2223 35.717 15.3237 35.6025C15.4251 35.4879 16.2247 34.5589 17.1006 33.5381C17.9764 32.5173 18.7171 31.657 18.7464 31.6264C18.7758 31.5959 19.2395 31.0565 19.7768 30.4277C20.3141 29.799 20.7703 29.2846 20.7906 29.2846C20.8109 29.2846 23.5711 33.281 26.9245 38.1654C30.2778 43.0498 33.0812 47.1327 33.1545 47.2384L33.2875 47.4306L40.0857 47.4317C45.6763 47.4326 46.8793 47.4208 46.8579 47.3651C46.8352 47.306 43.5781 42.5551 35.2222 30.3931C29.2068 21.6378 28.4069 20.4613 28.4299 20.4016C28.4522 20.3435 29.2715 19.3852 34.6581 13.1171C35.5821 12.0419 36.8559 10.5589 37.4886 9.82166C38.1214 9.08439 38.7603 8.34196 38.9084 8.17182C39.0564 8.00168 39.8351 7.09685 40.6386 6.16108C41.4422 5.22531 42.8082 3.63528 43.6742 2.62769C44.5402 1.62011 45.2807 0.755899 45.3195 0.707177C45.3862 0.623809 45.273 0.618652 43.3772 0.618652H41.3642L40.4688 1.66269C39.2772 3.05216 37.123 5.55781 36.5114 6.26585C36.2411 6.5787 35.904 6.97187 35.7622 7.13954C35.6204 7.3072 35.3407 7.63124 35.1406 7.85964C34.9405 8.08804 33.9321 9.26097 32.8997 10.4661C31.8673 11.6713 31.0084 12.6689 30.9911 12.6831C30.9738 12.6973 30.7526 12.9539 30.4995 13.2534C30.0568 13.7772 29.6063 14.3015 27.5402 16.6976C26.6333 17.7494 26.5868 17.7946 26.5103 17.6979C26.4664 17.6422 23.8086 13.7768 20.6043 9.10816L14.7783 0.619735L7.95631 0.619168L1.13428 0.618652L1.41423 1.01822ZM6.73873 3.80191C6.78998 3.88013 8.06458 5.70737 9.57124 7.86248C12.4287 11.9497 23.6574 28.0207 30.8788 38.3587C33.1864 41.6623 35.1026 44.3943 35.137 44.43C35.1862 44.481 35.8581 44.4921 38.2765 44.4816L41.3535 44.4683L33.3017 32.9452C28.8732 26.6075 22.4614 17.4315 19.0534 12.5542L12.8569 3.68632L9.75128 3.67302L6.64567 3.65972L6.73873 3.80191Z" fill="currentColor"/>
</svg>
