<svg width="16" height="16" viewBox="0 0 16 16" fill="none" xmlns="http://www.w3.org/2000/svg">
<g clip-path="url(#clip0_9056_4256)">
<path fill-rule="evenodd" clip-rule="evenodd" d="M0.471371 0.339245C0.522705 0.412491 1.71155 2.1429 3.11326 4.18457C4.51497 6.22625 5.81142 8.11437 5.99428 8.3804C6.17711 8.64644 6.32672 8.86944 6.32672 8.87597C6.32672 8.88251 6.25863 8.96646 6.17541 9.06253C6.0922 9.1586 5.8578 9.43054 5.65456 9.66685C5.45131 9.90315 5.10867 10.3014 4.89314 10.5519C4.67763 10.8024 4.29848 11.2432 4.05058 11.5315C3.80269 11.8198 3.3569 12.3381 3.05995 12.6833C2.14152 13.751 2.00899 13.9052 1.30985 14.7195C0.936539 15.1543 0.578559 15.57 0.514353 15.6433C0.450146 15.7166 0.397609 15.7843 0.397609 15.7937C0.397609 15.8047 0.632093 15.8108 1.05825 15.8108H1.71887L2.44516 14.9644C2.84463 14.4988 3.23868 14.0406 3.32083 13.9461C3.49848 13.7417 4.85324 12.1654 4.96711 12.0306C5.01071 11.979 5.07404 11.9055 5.10785 11.8673C5.14167 11.8291 5.4082 11.5195 5.70016 11.1792C5.99209 10.8389 6.23898 10.5522 6.24876 10.542C6.25856 10.5318 6.41311 10.352 6.59222 10.1424C6.77133 9.93285 6.92341 9.76137 6.93016 9.76137C6.93693 9.76137 7.85699 11.0935 8.97478 12.7216C10.0925 14.3498 11.027 15.7107 11.0514 15.746L11.0958 15.81L13.3619 15.8104C15.2254 15.8107 15.6264 15.8068 15.6193 15.7882C15.6117 15.7685 14.526 14.1849 11.7407 10.1309C9.73556 7.21244 9.46894 6.82026 9.47659 6.80036C9.48401 6.78101 9.75713 6.46157 11.5527 4.37219C11.8607 4.0138 12.2852 3.51948 12.4962 3.27372C12.7071 3.02797 12.9201 2.78049 12.9694 2.72378C13.0188 2.66706 13.2783 2.36545 13.5462 2.05353C13.814 1.74161 14.2694 1.2116 14.558 0.875735C14.8467 0.539872 15.0935 0.251804 15.1065 0.235563C15.1287 0.207773 15.091 0.206055 14.459 0.206055H13.788L13.4896 0.554068C13.0923 1.01723 12.3743 1.85244 12.1704 2.08845C12.0803 2.19274 11.968 2.32379 11.9207 2.37968C11.8734 2.43557 11.7802 2.54358 11.7135 2.61972C11.6468 2.69585 11.3107 3.08683 10.9665 3.48855C10.6224 3.89026 10.3361 4.22281 10.3303 4.22754C10.3246 4.23226 10.2508 4.3178 10.1665 4.41763C10.0189 4.59224 9.86873 4.76702 9.18003 5.56571C8.87773 5.9163 8.86223 5.93136 8.83674 5.89913C8.82208 5.88057 7.93617 4.5921 6.86807 3.03589L4.92607 0.206416L2.65206 0.206227L0.378052 0.206055L0.471371 0.339245ZM2.2462 1.26714C2.26328 1.29321 2.68815 1.9023 3.19037 2.62066C4.14286 3.98309 7.88576 9.34008 10.2929 12.7861C11.0621 13.8873 11.7008 14.798 11.7123 14.8098C11.7287 14.8268 11.9527 14.8305 12.7588 14.827L13.7845 14.8226L11.1005 10.9816C9.62435 8.869 7.4871 5.81035 6.35109 4.18457L4.28559 1.22861L3.25039 1.22418L2.21518 1.21974L2.2462 1.26714Z" fill="currentColor"/>
</g>
<defs>
<clipPath id="clip0_9056_4256">
<rect width="16" height="16" fill="white"/>
</clipPath>
</defs>
</svg>
