<svg width="24" height="24" viewBox="0 0 24 24" fill="none" xmlns="http://www.w3.org/2000/svg">
<g clip-path="url(#clip0_9056_4246)">
<path fill-rule="evenodd" clip-rule="evenodd" d="M0.707117 0.509111C0.784118 0.61898 2.56739 3.21459 4.66995 6.2771C6.77252 9.33962 8.71719 12.1718 8.99147 12.5709C9.26573 12.9699 9.49014 13.3044 9.49014 13.3142C9.49014 13.324 9.388 13.4499 9.26318 13.594C9.13836 13.7381 8.78676 14.1461 8.4819 14.5005C8.17702 14.855 7.66307 15.4524 7.33978 15.8281C7.01651 16.2038 6.44778 16.8651 6.07593 17.2975C5.70409 17.7299 5.03542 18.5074 4.58999 19.0252C3.21235 20.6267 3.01354 20.858 1.96484 22.0795C1.40487 22.7317 0.867899 23.3553 0.77159 23.4652C0.67528 23.5752 0.596475 23.6767 0.596475 23.6908C0.596475 23.7073 0.9482 23.7164 1.58744 23.7164H2.57837L3.6678 22.4468C4.26701 21.7485 4.85809 21.0612 4.98131 20.9194C5.24778 20.6129 7.27992 18.2484 7.45073 18.0461C7.51613 17.9687 7.61113 17.8585 7.66183 17.8012C7.71257 17.7439 8.11237 17.2795 8.5503 16.769C8.9882 16.2586 9.35854 15.8285 9.37321 15.8132C9.3879 15.798 9.61973 15.5282 9.88839 15.2139C10.1571 14.8995 10.3852 14.6423 10.3953 14.6423C10.4055 14.6423 11.7856 16.6405 13.4622 19.0827C15.1389 21.5249 16.5406 23.5663 16.5772 23.6192L16.6437 23.7153L20.0428 23.7159C22.8381 23.7163 23.4397 23.7104 23.429 23.6826C23.4176 23.653 21.7891 21.2776 17.6111 15.1965C14.6034 10.8189 14.2035 10.2306 14.2149 10.2008C14.2261 10.1718 14.6358 9.6926 17.3291 6.55853C17.7911 6.02094 18.4279 5.27947 18.7443 4.91083C19.0607 4.54219 19.3801 4.17098 19.4542 4.08591C19.5282 4.00084 19.9175 3.54842 20.3193 3.08054C20.7211 2.61266 21.4041 1.81764 21.8371 1.31385C22.2701 0.810053 22.6403 0.377949 22.6598 0.353589C22.6931 0.311904 22.6365 0.309326 21.6886 0.309326H20.6821L20.2344 0.831345C19.6386 1.52608 18.5615 2.7789 18.2557 3.13292C18.1206 3.28935 17.952 3.48594 17.8811 3.56977C17.8102 3.6536 17.6703 3.81562 17.5703 3.92982C17.4703 4.04402 16.966 4.63049 16.4498 5.23306C15.9336 5.83564 15.5042 6.33446 15.4956 6.34155C15.4869 6.34864 15.3763 6.47694 15.2498 6.62669C15.0284 6.8886 14.8032 7.15077 13.7701 8.34881C13.3167 8.8747 13.2934 8.89728 13.2552 8.84894C13.2332 8.8211 11.9043 6.88839 10.3022 4.55408L7.38917 0.309867L3.97815 0.309584L0.567139 0.309326L0.707117 0.509111ZM3.36936 1.90096C3.39499 1.94006 4.03229 2.85369 4.78562 3.93124C6.21436 5.97487 11.8287 14.0104 15.4394 19.1794C16.5932 20.8311 17.5513 22.1972 17.5685 22.215C17.5931 22.2405 17.929 22.246 19.1383 22.2408L20.6767 22.2341L16.6509 16.4726C14.4366 13.3037 11.2307 8.71577 9.52669 6.2771L6.42845 1.84316L4.87564 1.83651L3.32283 1.82986L3.36936 1.90096Z" fill="currentColor"/>
</g>
<defs>
<clipPath id="clip0_9056_4246">
<rect width="24" height="24" fill="white"/>
</clipPath>
</defs>
</svg>
