<svg width="40" height="40" viewBox="0 0 40 40" fill="none" xmlns="http://www.w3.org/2000/svg">
<g clip-path="url(#clip0_9056_4250)">
<path fill-rule="evenodd" clip-rule="evenodd" d="M1.17849 0.8486C1.30682 1.03172 4.27894 5.35773 7.78321 10.4619C11.2875 15.5661 14.5286 20.2864 14.9857 20.9515C15.4428 21.6166 15.8169 22.1741 15.8169 22.1904C15.8169 22.2068 15.6466 22.4166 15.4386 22.6568C15.2306 22.897 14.6446 23.5768 14.1365 24.1676C13.6283 24.7584 12.7717 25.7541 12.2329 26.3803C11.6941 27.0065 10.7463 28.1085 10.1265 28.8293C9.50678 29.55 8.39232 30.8458 7.64994 31.7087C5.35387 34.378 5.02253 34.7635 3.27469 36.7992C2.34141 37.8862 1.44646 38.9255 1.28594 39.1088C1.12543 39.2921 0.994084 39.4613 0.994084 39.4847C0.994084 39.5123 1.58029 39.5274 2.64568 39.5274H4.29724L6.11297 37.4114C7.11164 36.2476 8.09677 35.1021 8.30214 34.8658C8.74626 34.3549 12.1332 30.414 12.4178 30.077C12.5268 29.9479 12.6852 29.7643 12.7697 29.6688C12.8542 29.5733 13.5206 28.7992 14.2505 27.9485C14.9803 27.0978 15.5975 26.3809 15.622 26.3555C15.6465 26.33 16.0328 25.8805 16.4806 25.3565C16.9284 24.8326 17.3086 24.4039 17.3255 24.4039C17.3424 24.4039 19.6425 27.7342 22.437 31.8046C25.2314 35.8749 27.5677 39.2773 27.6287 39.3654L27.7395 39.5256L33.4047 39.5265C38.0635 39.5273 39.066 39.5174 39.0482 39.471C39.0293 39.4217 36.3151 35.4627 29.3518 25.3277C24.339 18.0316 23.6724 17.0511 23.6915 17.0014C23.7101 16.953 24.3929 16.1544 28.8817 10.931C29.6517 10.035 30.7132 8.79919 31.2405 8.1848C31.7678 7.5704 32.3002 6.95171 32.4236 6.80993C32.547 6.66815 33.1958 5.91412 33.8655 5.13431C34.5351 4.35451 35.6734 3.02948 36.3952 2.18983C37.1168 1.35017 37.7338 0.629997 37.7662 0.589396C37.8218 0.519922 37.7274 0.515625 36.1476 0.515625H34.4701L33.724 1.38566C32.7309 2.54355 30.9358 4.63159 30.4261 5.22162C30.2009 5.48233 29.92 5.80997 29.8018 5.9497C29.6837 6.08942 29.4505 6.35945 29.2838 6.54978C29.117 6.74011 28.2767 7.71756 27.4163 8.72185C26.556 9.72615 25.8403 10.5575 25.8259 10.5693C25.8115 10.5811 25.6271 10.795 25.4162 11.0446C25.0473 11.4811 24.6719 11.918 22.9501 13.9148C22.1944 14.7912 22.1556 14.8289 22.0919 14.7483C22.0553 14.7019 19.8405 11.4807 17.1702 7.59021L12.3152 0.516527L6.63022 0.516055L0.94519 0.515625L1.17849 0.8486ZM5.61557 3.16834C5.65827 3.23352 6.72044 4.75623 7.976 6.55214C10.3572 9.9582 19.7145 23.3507 25.7323 31.9657C27.6553 34.7186 29.2521 36.9954 29.2808 37.0251C29.3218 37.0676 29.8817 37.0768 31.8971 37.0681L34.4612 37.057L27.7514 27.4544C24.0609 22.173 18.7178 14.5264 15.8778 10.4619L10.714 3.07202L8.12603 3.06093L5.53802 3.04985L5.61557 3.16834Z" fill="currentColor"/>
</g>
<defs>
<clipPath id="clip0_9056_4250">
<rect width="40" height="40" fill="white"/>
</clipPath>
</defs>
</svg>
