<svg width="56" height="56" viewBox="0 0 56 56" fill="none" xmlns="http://www.w3.org/2000/svg">
<path fill-rule="evenodd" clip-rule="evenodd" d="M1.64998 1.18785C1.82965 1.44421 5.99061 7.50063 10.8966 14.6465C15.8026 21.7924 20.3401 28.4008 20.9801 29.3319C21.6201 30.263 22.1437 31.0435 22.1437 31.0664C22.1437 31.0893 21.9054 31.3831 21.6141 31.7193C21.3229 32.0556 20.5025 33.0074 19.7912 33.8345C19.0798 34.6615 17.8805 36.0555 17.1262 36.9322C16.3719 37.8089 15.0449 39.3518 14.1772 40.3608C13.3096 41.3698 11.7493 43.1839 10.71 44.3921C7.49552 48.129 7.03163 48.6687 4.58466 51.5187C3.27807 53.0405 2.02514 54.4955 1.80042 54.7521C1.5757 55.0087 1.39182 55.2456 1.39182 55.2784C1.39182 55.317 2.21251 55.3382 3.70406 55.3382H6.01624L8.55825 52.3758C9.95639 50.7465 11.3356 49.1427 11.6231 48.8119C12.2449 48.0966 16.9865 42.5794 17.3851 42.1075C17.5377 41.9269 17.7593 41.6698 17.8777 41.5361C17.996 41.4025 18.9289 40.3187 19.9507 39.1277C20.9725 37.9367 21.8366 36.9331 21.8709 36.8974C21.9051 36.8618 22.4461 36.2325 23.073 35.4989C23.6998 34.7655 24.2321 34.1653 24.2558 34.1653C24.2795 34.1653 27.4997 38.8277 31.4119 44.5262C35.3241 50.2247 38.5948 54.988 38.6802 55.1114L38.8354 55.3356L46.7667 55.337C53.289 55.338 54.6926 55.3242 54.6676 55.2592C54.6411 55.1902 50.8412 49.6476 41.0926 35.4585C34.0746 25.244 33.1415 23.8714 33.1682 23.8017C33.1942 23.734 34.1501 22.616 40.4345 15.3032C41.5125 14.0488 42.9986 12.3187 43.7368 11.4585C44.475 10.5984 45.2204 9.73221 45.3931 9.53371C45.5659 9.33521 46.4743 8.27957 47.4118 7.18785C48.3492 6.09612 49.9429 4.24108 50.9533 3.06556C51.9637 1.89004 52.8275 0.881801 52.8728 0.824959C52.9506 0.727695 52.8185 0.72168 50.6068 0.72168H48.2582L47.2136 1.93972C45.8234 3.56078 43.3103 6.48403 42.5966 7.31007C42.2814 7.67506 41.8881 8.13377 41.7226 8.32938C41.5572 8.52499 41.2309 8.90303 40.9974 9.1695C40.764 9.43597 39.5875 10.8044 38.383 12.2104C37.1785 13.6164 36.1765 14.7803 36.1563 14.7969C36.1362 14.8134 35.8781 15.1128 35.5828 15.4622C35.0663 16.0733 34.5407 16.685 32.1303 19.4805C31.0722 20.7075 31.018 20.7602 30.9288 20.6475C30.8775 20.5825 27.7768 16.0728 24.0384 10.6261L17.2414 0.722943L9.2824 0.722282L1.32336 0.72168L1.64998 1.18785ZM7.86189 4.43548C7.92168 4.52673 9.40872 6.65852 11.1665 9.17281C14.5002 13.9413 27.6004 32.6908 36.0253 44.7518C38.7175 48.6059 40.953 51.7933 40.9932 51.8349C41.0506 51.8944 41.8345 51.9073 44.656 51.8951L48.2458 51.8796L38.852 38.436C33.6854 31.042 26.2051 20.3367 22.229 14.6465L14.9998 4.30063L11.3765 4.28511L7.75332 4.26959L7.86189 4.43548Z" fill="currentColor"/>
</svg>
