<?xml version="1.0" encoding="utf-8"?>
<!-- Generator: Adobe Illustrator 25.0.0, SVG Export Plug-In . SVG Version: 6.00 Build 0)  -->
<svg version="1.1" id="Ebene_1" xmlns="http://www.w3.org/2000/svg" xmlns:xlink="http://www.w3.org/1999/xlink" x="0px" y="0px"
	 viewBox="0 0 283.5 283.5" style="enable-background:new 0 0 283.5 283.5;" xml:space="preserve">
<style type="text/css">
	.st0{fill:#FFFFFF;}
</style>
<g>
	<defs>
		<rect id="SVGID_1_" x="109.5" y="88.5" width="85" height="85"/>
	</defs>
	<clipPath id="SVGID_2_">
		<use xlink:href="#SVGID_1_"  style="overflow:visible;"/>
	</clipPath>
</g>
<g>
	<defs>
		<rect id="SVGID_3_" x="109.5" y="88.5" width="85" height="85"/>
	</defs>
	<clipPath id="SVGID_4_">
		<use xlink:href="#SVGID_3_"  style="overflow:visible;"/>
	</clipPath>
</g>
<g>
	<defs>
		<rect id="SVGID_5_" x="109.5" y="88.5" width="85" height="85"/>
	</defs>
	<clipPath id="SVGID_6_">
		<use xlink:href="#SVGID_5_"  style="overflow:visible;"/>
	</clipPath>
</g>
<g>
	<defs>
		<rect id="SVGID_7_" x="109.3" y="88" width="86" height="86"/>
	</defs>
	<clipPath id="SVGID_8_">
		<use xlink:href="#SVGID_7_"  style="overflow:visible;"/>
	</clipPath>
</g>
<path class="st0" d="M181,122.2l-3.2-3.2c-3.9,2.7-9.4,2.3-12.9-1.2c-1.9-1.9-3-4.5-3-7.2c0-2.1,0.6-4,1.8-5.7l-3.2-3.2l-37.8,37.8
	l3.2,3.2c3.9-2.7,9.4-2.3,12.9,1.2c3.5,3.5,3.9,8.9,1.2,12.9l3.2,3.2L181,122.2z M186.3,122.2l-43.2,43.2l-8.4-8.4l1.3-1.3
	c2.5-2.5,2.5-6.5,0-9c-2.5-2.5-6.5-2.5-9,0l-1.3,1.3l-8.4-8.4l43.2-43.2l8.4,8.4l-1.3,1.3c-1.2,1.2-1.9,2.8-1.9,4.5
	c0,1.7,0.7,3.3,1.9,4.5c2.5,2.5,6.5,2.5,9,0l1.3-1.3L186.3,122.2z M195.3,131c0-23.7-19.3-43-43-43s-43,19.3-43,43s19.3,43,43,43
	S195.3,154.7,195.3,131"/>
</svg>
