<svg xmlns="http://www.w3.org/2000/svg" viewBox="0 0 16 16" stroke-linejoin="round" stroke-linecap="round" stroke="currentColor" fill="none"><g clip-path="url(#a)"><path stroke-width="1.5" d="M2.18 4.64 8 8.007l5.82-3.367M8 14.72V8m6 2.667V5.333a1.333 1.333 0 0 0-.667-1.153L8.667 1.513a1.333 1.333 0 0 0-1.334 0L2.667 4.18A1.333 1.333 0 0 0 2 5.333v5.334a1.334 1.334 0 0 0 .667 1.153l4.666 2.667a1.334 1.334 0 0 0 1.334 0l4.666-2.667A1.333 1.333 0 0 0 14 10.667Z"/></g><defs><clipPath id="a"><path d="M0 0H16V16H0z"/></clipPath></defs></svg>