<svg xmlns="http://www.w3.org/2000/svg" viewBox="0 0 40 40" stroke-linejoin="round" stroke-linecap="round" stroke="currentColor" fill="none"><g clip-path="url(#a)"><path stroke-width="2.5" d="M23.533 23.533a4.998 4.998 0 0 1-8.294-1.536 5 5 0 0 1 1.228-5.53m-14.8-14.8 36.666 36.666M29.9 29.9a16.784 16.784 0 0 1-9.9 3.433C8.333 33.333 1.667 20 1.667 20a30.75 30.75 0 0 1 8.433-9.9l19.8 19.8ZM16.5 7.067a15.2 15.2 0 0 1 3.5-.4C31.667 6.667 38.333 20 38.333 20a30.833 30.833 0 0 1-3.6 5.317L16.5 7.067Z"/></g><defs><clipPath id="a"><path d="M0 0H40V40H0z"/></clipPath></defs></svg>