<svg xmlns="http://www.w3.org/2000/svg" viewBox="0 0 32 32" stroke-linejoin="round" stroke-linecap="round" stroke="currentColor" fill="none"><g clip-path="url(#a)"><path stroke-width="2.3" d="M18.827 18.827a4 4 0 1 1-5.654-5.654M1.333 1.333l29.334 29.334M23.92 23.92A13.426 13.426 0 0 1 16 26.667C6.667 26.667 1.333 16 1.333 16A24.6 24.6 0 0 1 8.08 8.08l15.84 15.84ZM13.2 5.653a12.16 12.16 0 0 1 2.8-.32C25.333 5.333 30.667 16 30.667 16a24.668 24.668 0 0 1-2.88 4.253L13.2 5.653Z"/></g><defs><clipPath id="a"><path d="M0 0H32V32H0z"/></clipPath></defs></svg>