<svg xmlns="http://www.w3.org/2000/svg" viewBox="0 0 16 16" stroke-linejoin="round" stroke-linecap="round" stroke="currentColor" fill="none"><g clip-path="url(#a)"><path stroke-width="1.5" d="M9.413 9.413a2 2 0 1 1-2.826-2.826M.667.667l14.666 14.666M11.96 11.96A6.714 6.714 0 0 1 8 13.333C3.333 13.333.667 8 .667 8A12.3 12.3 0 0 1 4.04 4.04l7.92 7.92ZM6.6 2.827a6.08 6.08 0 0 1 1.4-.16C12.667 2.667 15.333 8 15.333 8c-.404.757-.887 1.47-1.44 2.127L6.6 2.827Z"/></g><defs><clipPath id="a"><path d="M0 0H16V16H0z"/></clipPath></defs></svg>