<svg xmlns="http://www.w3.org/2000/svg" viewBox="0 0 56 56" stroke-linejoin="round" stroke-linecap="round" stroke="currentColor" fill="none"><g clip-path="url(#a)"><path stroke-width="3.5" d="M32.947 32.947a7.002 7.002 0 0 1-10.071.177 7 7 0 0 1 .177-10.07M2.333 2.333l51.334 51.333M41.86 41.86A23.496 23.496 0 0 1 28 46.667C11.667 46.667 2.333 28 2.333 28A43.051 43.051 0 0 1 14.14 14.14l27.72 27.72ZM23.1 9.893a21.28 21.28 0 0 1 4.9-.56C44.333 9.333 53.667 28 53.667 28a43.172 43.172 0 0 1-5.04 7.443L23.1 9.893Z"/></g><defs><clipPath id="a"><path d="M0 0H56V56H0z"/></clipPath></defs></svg>