<?xml version="1.0" encoding="utf-8"?>
<!-- Generator: Adobe Illustrator 25.0.0, SVG Export Plug-In . SVG Version: 6.00 Build 0)  -->
<svg version="1.1" id="Ebene_1" xmlns="http://www.w3.org/2000/svg" xmlns:xlink="http://www.w3.org/1999/xlink" x="0px" y="0px"
	 viewBox="0 0 283.5 133.5" style="enable-background:new 0 0 283.5 133.5;" xml:space="preserve">
<style type="text/css">
	.st0{fill:#FFED00;}
</style>
<g>
	<path class="st0" d="M223.8,56.8c0-3-1.7-4.7-4-4.7c-2.3,0-4,1.7-4,4.7c0,3,1.8,4.8,4,4.8C222.1,61.6,223.8,59.8,223.8,56.8
		 M227.5,56.8c0,4.5-2.7,8-7.1,8c-2.1,0-3.8-0.9-4.6-2.4v2h-3.5V42h3.5v9.2c0.7-1.2,2.4-2.3,4.7-2.3C225,48.9,227.5,52.4,227.5,56.8
		 M208.1,64.4h-3.4c-0.1-0.3-0.1-1.1-0.1-1.7c-0.7,1.4-2.5,2.1-4.3,2.1c-3.6,0-5.7-2.7-5.7-6v-9.5h3.6v8.8c0,1.9,0.9,3.4,3,3.4
		c2.1,0,3.2-1.4,3.2-3.4v-8.9h3.6v12.3C207.9,62.9,208,63.8,208.1,64.4 M190.5,64.4h-3.6V42h3.6V64.4z M280.4,87.5l-22.8-74.5
		c-1.4-4.5-6.1-7-10.6-5.6l-74.5,22.8c-4.5,1.4-7,6.1-5.6,10.6l3.6,11.9c1.3-2.3,3.7-3.8,6.6-3.8c4,0,6.3,2.5,6.9,4.9l-3.2,1.2
		c-0.3-1.3-1.4-2.8-3.6-2.8c-2.2,0-4.1,1.6-4.1,4.7c0,3,1.9,4.7,4.2,4.7c2.3,0,3.4-1.6,3.8-2.8l3.2,1.1c-0.7,2.3-3,4.9-6.9,4.9
		c-1.1,0-2.2-0.2-3.1-0.6l15.6,51c1.4,4.5,6.1,7,10.6,5.6l74.5-22.8C279.2,96.7,281.8,91.9,280.4,87.5"/>
	<path class="st0" d="M166.4,89.7h-3.1v1.8c0,1.1-0.6,2-2,2h-0.6v3.1h2.3v6c0,2.5,1.6,4,4.1,4c1,0,1.6-0.2,1.9-0.3v-2.9
		c-0.2,0.1-0.6,0.1-1.1,0.1c-1,0-1.5-0.4-1.5-1.5v-5.4h2.6v-3.1h-2.6V89.7z M150.4,99c0-1.5,0.9-2.7,2.4-2.7c1.7,0,2.4,1.1,2.4,2.5
		v7.5h3.5v-8.1c0-2.8-1.5-5.1-4.6-5.1c-1.4,0-2.9,0.6-3.7,1.9v-1.6h-3.4v12.8h3.5V99z M141.1,101.8c-0.4,1.1-1.3,2-2.9,2
		c-1.7,0-3.1-1.2-3.2-2.9h9.2c0-0.1,0.1-0.6,0.1-1.1c0-4.1-2.4-6.6-6.3-6.6c-3.3,0-6.3,2.7-6.3,6.7c0,4.3,3.1,6.8,6.6,6.8
		c3.1,0,5.2-1.8,5.8-4.1L141.1,101.8z M135.1,98.5c0.1-1.2,1.1-2.5,2.9-2.5c2,0,2.8,1.2,2.9,2.5H135.1z M129.8,106.3v-3h-6.3
		l6.2-6.9v-2.9h-10.3v3h5.9l-6.1,6.8v3H129.8z M110.7,93.2c-3.8,0-6.7,2.8-6.7,6.8c0,3.9,2.9,6.8,6.7,6.8c3.8,0,6.7-2.9,6.7-6.8
		C117.4,96,114.5,93.2,110.7,93.2 M110.7,103.6c-1.7,0-3.2-1.2-3.2-3.6c0-2.4,1.6-3.6,3.2-3.6c1.7,0,3.2,1.2,3.2,3.6
		C114,102.4,112.4,103.6,110.7,103.6 M102.7,93.5c-0.3,0-0.5-0.1-0.8-0.1c-1.1,0-2.9,0.3-3.6,2v-1.9h-3.4v12.8h3.5v-5.8
		c0-2.8,1.5-3.6,3.3-3.6c0.3,0,0.7,0,1,0.1V93.5z M88.7,99.9c0,2.3-1.4,3.6-3.2,3.6c-1.8,0-3.2-1.4-3.2-3.6c0-2.3,1.4-3.6,3.2-3.6
		C87.3,96.4,88.7,97.7,88.7,99.9 M82.4,111.3v-6.2c0.6,0.9,1.9,1.6,3.7,1.6c3.6,0,6-2.9,6-6.7c0-3.8-2.2-6.7-5.9-6.7
		c-1.9,0-3.4,0.9-3.9,1.8v-1.6h-3.4v17.7H82.4z M76.5,93.5c-0.3,0-0.5-0.1-0.8-0.1c-1.1,0-2.9,0.3-3.6,2v-1.9h-3.4v12.8h3.5v-5.8
		c0-2.8,1.5-3.6,3.3-3.6c0.3,0,0.7,0,1,0.1V93.5z M61.8,106.3h3.3c-0.1-0.4-0.1-1.3-0.1-2.3V93.6h-3.5v7.4c0,1.5-0.9,2.5-2.4,2.5
		c-1.6,0-2.3-1.1-2.3-2.6v-7.4h-3.5v8.1c0,2.8,1.8,5,4.9,5c1.4,0,2.8-0.5,3.5-1.7C61.7,105.5,61.8,106.1,61.8,106.3 M47.9,89.7h-3.1
		v1.8c0,1.1-0.6,2-2,2h-0.7v3.1h2.3v6c0,2.5,1.6,4,4.1,4c1,0,1.6-0.2,2-0.3v-2.9c-0.2,0.1-0.6,0.1-1.1,0.1c-1,0-1.5-0.4-1.5-1.5
		v-5.4h2.6v-3.1h-2.6V89.7z M39.9,87.5h-3.5v18.8h3.5V87.5z M29.6,106.3h3.3c-0.1-0.4-0.1-1.3-0.1-2.3V93.6h-3.5v7.4
		c0,1.5-0.9,2.5-2.4,2.5c-1.6,0-2.3-1.1-2.3-2.6v-7.4h-3.5v8.1c0,2.8,1.8,5,4.9,5c1.4,0,2.8-0.5,3.5-1.7
		C29.5,105.5,29.5,106.1,29.6,106.3 M19.2,93.6h-4.5l-4.4,4.8V87.5H6.8v18.8h3.5V103l1.4-1.5l3.4,4.9h4.2l-5.2-7.4L19.2,93.6z"/>
	<path class="st0" d="M158.7,80.8c0.2,1.5,1.5,4,5.3,4c3.4,0,5-2.1,5-4.2c0-1.9-1.3-3.4-3.8-3.9l-1.8-0.4c-0.7-0.1-1.2-0.5-1.2-1.1
		c0-0.7,0.7-1.3,1.6-1.3c1.5,0,2,1,2.1,1.7l2.9-0.6c-0.2-1.4-1.4-3.7-5-3.7c-2.8,0-4.8,1.9-4.8,4.2c0,1.8,1.1,3.3,3.6,3.8l1.7,0.4
		c1,0.2,1.4,0.7,1.4,1.2c0,0.7-0.5,1.3-1.7,1.3c-1.5,0-2.3-0.9-2.3-1.9L158.7,80.8z M150.4,71.2c-3.8,0-6.7,2.8-6.7,6.8
		c0,3.9,2.9,6.8,6.7,6.8c3.8,0,6.7-2.9,6.7-6.8C157.1,74,154.2,71.2,150.4,71.2 M150.4,81.6c-1.7,0-3.2-1.2-3.2-3.6
		c0-2.4,1.6-3.6,3.2-3.6c1.7,0,3.2,1.2,3.2,3.6C153.6,80.4,152.1,81.6,150.4,81.6 M142.3,71.5c-0.3,0-0.5-0.1-0.8-0.1
		c-1.1,0-2.9,0.3-3.6,2v-1.9h-3.4v12.8h3.5v-5.8c0-2.8,1.5-3.6,3.3-3.6c0.3,0,0.6,0,1,0.1V71.5z M124.6,80.8c-1.8,0-3.1-1.2-3.1-3.2
		c0-2,1.4-3.2,3.1-3.2c1.7,0,3,1.2,3,3.2C127.6,79.5,126.4,80.8,124.6,80.8 M118.1,85c0.4,2.4,2.7,4.6,6.2,4.6
		c4.8,0,6.7-3.2,6.7-6.7V71.6h-3.3v1.5c-0.4-0.9-1.6-1.7-3.6-1.7c-3.5,0-6,2.9-6,6.2c0,3.6,2.5,6.2,6,6.2c1.8,0,3-0.8,3.6-1.6v0.9
		c0,2.5-1.2,3.6-3.4,3.6c-1.6,0-2.8-1-3-2.4L118.1,85z M111.4,67.4c0,1.1,1,2.1,2.1,2.1c1.2,0,2.1-1,2.1-2.1c0-1.2-0.9-2.2-2.1-2.2
		C112.4,65.2,111.4,66.2,111.4,67.4 M115.3,71.6h-3.5v12.8h3.5V71.6z M92.3,84.3v-7.5c0-1.4,0.9-2.5,2.4-2.5c1.6,0,2.3,1,2.3,2.4
		v7.6h3.4v-7.5c0-1.4,0.9-2.5,2.4-2.5c1.6,0,2.3,1,2.3,2.4v7.6h3.4v-8.3c0-3.4-2.3-4.9-4.6-4.9c-1.7,0-3,0.6-4.1,2.1
		c-0.7-1.4-2.1-2.1-3.8-2.1c-1.4,0-3,0.7-3.7,1.9v-1.6h-3.3v12.8H92.3z"/>
</g>
</svg>
