<svg xmlns="http://www.w3.org/2000/svg" height="196.533" width="453.547"><g fill="#fff"><path d="M48.94 147.039l9.729-12.834H69.04l-10.607 12.892 11.78 15.47H59.546l-10.606-15.41v15.41h-8.907V123.48h6.387c1.524 0 2.52.938 2.52 2.285v21.273M79.53 134.205c1.405 0 2.343.997 2.343 2.344v13.83c0 3.925 1.992 5.39 4.454 5.39 2.109 0 3.632-.821 5.274-2.344v-19.22h8.907v22.679c0 1.875.234 4.277.645 5.683h-8.146c-.351-.996-.82-2.636-.996-3.515-2.813 2.753-5.86 4.043-9.318 4.043-6.035 0-9.727-3.516-9.727-10.842v-18.048h6.563M108.184 123.481h6.33c1.405 0 2.46 1.055 2.46 2.402v36.684h-8.79V123.48M131.037 126.938c1.348 0 2.286.88 2.286 2.11v6.212h9.317v6.504h-9.317v11.427c0 1.933 1.054 3.28 3.574 3.28 1.29 0 2.696-.351 4.336-1.112l2.287 5.977c-2.99 1.466-5.86 2.168-9.084 2.168-5.918 0-9.785-3.047-9.785-9.785v-26.781h6.386M155.181 134.205c1.406 0 2.344.997 2.344 2.344v13.83c0 3.925 1.992 5.39 4.454 5.39 2.109 0 3.632-.821 5.273-2.344v-19.22h8.908v22.679c0 1.875.233 4.277.644 5.683h-8.145c-.352-.996-.82-2.636-.996-3.515-2.814 2.753-5.86 4.043-9.318 4.043-6.036 0-9.728-3.516-9.728-10.842v-18.048h6.564M192.684 162.567h-8.907v-28.362h7.148l1.407 3.458c1.524-2.52 4.512-4.103 7.559-4.103.938 0 1.7.118 2.521.41 1.288.47 1.757 1.408 1.464 2.638l-1.23 5.859c-1.582-.527-2.813-.82-4.454-.82a7.85 7.85 0 00-5.508 2.226v18.694M214.952 134.205l1.581 3.047c1.231-2.11 4.22-3.81 7.56-3.81 5.684 0 12.366 4.22 12.366 14.475 0 10.842-6.506 15.47-13.07 15.47-2.46 0-4.394-.644-6.328-2.167v12.599h-8.848v-39.614zm2.11 7.968v13.362c1.054.702 2.46 1.114 4.043 1.114 3.808 0 6.152-2.814 6.152-8.556 0-5.157-2.696-7.853-5.742-7.853-1.582 0-2.814.352-4.454 1.933M251.517 162.567h-8.908v-28.362h7.15l1.406 3.458c1.524-2.52 4.512-4.103 7.56-4.103.938 0 1.699.118 2.52.41 1.288.47 1.758 1.408 1.464 2.638l-1.23 5.859c-1.582-.527-2.812-.82-4.452-.82-2.054 0-3.987.76-5.51 2.226v18.694M294.577 148.503c0 9.142-6.096 14.883-14.769 14.883-8.964 0-14.767-5.506-14.767-15.058 0-9.201 5.979-14.885 14.826-14.885 8.849 0 14.71 5.625 14.71 15.06zm-14.828 8.146c3.518 0 5.451-2.873 5.451-8.205 0-5.45-1.992-8.321-5.45-8.321-3.398 0-5.333 2.813-5.333 8.38 0 5.332 1.876 8.146 5.332 8.146M299.44 162.567v-6.68l13.303-14.768H300.2v-6.914h20.043c1.581 0 2.577 1.055 2.577 2.403v4.219l-13.36 14.766h13.712v6.974H299.44M337.179 150.261c.058 4.043 2.402 6.094 6.034 6.094 2.99 0 5.686-.996 8.204-2.636l3.692 5.684c-4.101 2.813-8.378 3.983-12.833 3.983-8.437 0-14.005-5.447-14.005-15.117 0-10.55 7.266-14.826 13.888-14.826 8.029 0 13.244 5.274 13.244 13.83 0 .703-.059 1.992-.294 2.988zm9.024-4.336c-.118-4.454-2.051-5.92-4.338-5.92-2.226 0-4.569 1.466-4.686 5.92h9.024M369.056 134.205l1.583 3.867c1.64-2.636 4.98-4.512 8.789-4.512 5.508 0 10.021 3.048 10.021 11.016v17.99h-8.908v-15.88c0-4.22-1.874-5.626-4.454-5.626-2.11 0-3.808.88-5.274 2.344v19.163h-8.906v-28.362h7.149M402.867 126.938c1.348 0 2.285.88 2.285 2.11v6.212h9.319v6.504h-9.319v11.427c0 1.933 1.055 3.28 3.575 3.28 1.289 0 2.696-.351 4.337-1.112l2.285 5.977c-2.988 1.466-5.861 2.168-9.084 2.168-5.917 0-9.786-3.047-9.786-9.785v-26.781h6.388M97.613 100.497V60.26l-17.298 40.237h-8.193L55.097 60.26v40.237H39.081V34.319h21.754l16.022 38.413 16.75-38.413h20.024v66.178H97.613M128.48 100.497V34.319h13.564c1.639 0 2.55 1.092 2.55 2.638v63.54H128.48M192.917 62.81h21.028c1.732 0 2.646 1.365 2.646 3.003V99.59c-6.015 1.365-15.018 2.184-22.034 2.184-24.21 0-37.229-12.2-37.229-34.416 0-19.842 13.019-34.31 34.221-34.31 9.566 0 17.388 2.453 22.758 6.097L208.213 49.7c-5.004-2.364-10.472-3.55-15.39-3.55-12.924 0-18.744 8.738-18.744 21.207 0 13.203 6.733 21.578 19.657 21.578 2.279 0 5.559-.182 7.837-.546V75.463h-8.656V62.811M268.753 100.497l-7.833-18.66c-1.632-3.736-2.733-5.554-6.107-5.554H247v24.214h-15.576v-63.54c0-1.364 1.272-2.638 2.545-2.638h22.495c12.746 0 23.661 2.638 23.661 18.932 0 7.373-4.003 14.656-11.737 16.657 3.828 1.276 7.633 6.191 9.737 11.472l7.555 19.117zm-13.02-53.892H247v17.022h8.734c5.011 0 9.383-2.819 9.383-9.102 0-6.828-3.921-7.92-9.383-7.92M323.01 101.773c-21.225 0-31.869-15.839-31.869-34.503 0-18.571 11.558-34.223 32.767-34.223 20.21 0 31.221 15.196 31.221 33.769 0 18.663-12.278 34.957-32.12 34.957zm.535-55.622c-9.186 0-15.47 6.734-15.47 21.12 0 14.473 6.366 21.393 15.746 21.393 8.099 0 14.386-6.92 14.386-21.394 0-14.385-6.287-21.12-14.662-21.12M389.09 101.773c-11.198 0-21.3-4.004-25.94-7.193l7.005-12.473c4.188 2.55 12.656 6.465 20.213 6.465 4.727 0 10.11-1.002 10.11-6.19 0-5.007-6.015-6.554-13.93-8.83-9.565-2.73-20.667-6.829-20.667-18.935 0-13.38 11.927-21.57 27.49-21.57 10.562 0 18.75 3.729 22.934 7.734l-8.465 9.558c-4.541-2.734-9.552-4.827-14.743-4.827-6.916 0-10.286 2.548-10.286 6.192 0 4.093 3.824 5.644 10.466 7.83 10.022 3.277 23.758 6.188 23.758 19.208 0 13.199-10.93 23.03-27.946 23.03"/></g></svg>