<svg width="274" height="114" xmlns="http://www.w3.org/2000/svg">
 <style type="text/css">.st0{fill:#FFED00;}</style>

 <g>
  <title>Layer 1</title>
  <g id="svg_1">
   <path id="svg_2" d="m159.49844,82.68828l-3.1,0l0,1.8c0,1.1 -0.6,2 -2,2l-0.6,0l0,3.1l2.3,0l0,6c0,2.5 1.6,4 4.1,4c1,0 1.6,-0.2 1.9,-0.3l0,-2.9c-0.2,0.1 -0.6,0.1 -1.1,0.1c-1,0 -1.5,-0.4 -1.5,-1.5l0,-5.4l2.6,0l0,-3.1l-2.6,0l0,-3.8zm-16,9.3c0,-1.5 0.9,-2.7 2.4,-2.7c1.7,0 2.4,1.1 2.4,2.5l0,7.5l3.5,0l0,-8.1c0,-2.8 -1.5,-5.1 -4.6,-5.1c-1.4,0 -2.9,0.6 -3.7,1.9l0,-1.6l-3.4,0l0,12.8l3.5,0l0,-7.2l-0.1,0zm-9.2,2.8c-0.4,1.1 -1.3,1.9 -2.9,1.9c-1.7,0 -3.1,-1.2 -3.2,-2.9l9.2,0c0,-0.1 0.1,-0.6 0.1,-1.1c0,-4.1 -2.4,-6.6 -6.3,-6.6c-3.3,0 -6.3,2.7 -6.3,6.7c0,4.3 3.1,6.8 6.6,6.8c3.1,0 5.2,-1.8 5.8,-4.1l-3,-0.7zm-6.1,-3.3c0.1,-1.2 1.1,-2.5 2.9,-2.5c2,0 2.8,1.2 2.9,2.5l-5.8,0zm-5.2,7.8l0,-3l-6.3,0l6.2,-6.9l0,-2.9l-10.3,0l0,3l5.9,0l-6.1,6.8l0,3l10.6,0zm-19.1,-13.1c-3.8,0 -6.7,2.8 -6.7,6.8c0,3.9 2.9,6.8 6.7,6.8c3.8,0 6.7,-2.9 6.7,-6.8c0,-4 -2.9,-6.8 -6.7,-6.8m0,10.4c-1.7,0 -3.2,-1.2 -3.2,-3.6c0,-2.4 1.6,-3.6 3.2,-3.6c1.7,0 3.2,1.2 3.2,3.6c0,2.4 -1.5,3.6 -3.2,3.6m-8.1,-10.1c-0.3,0 -0.5,-0.1 -0.8,-0.1c-1.1,0 -2.9,0.3 -3.6,2l0,-1.9l-3.4,0l0,12.8l3.5,0l0,-5.8c0,-2.8 1.5,-3.6 3.3,-3.6c0.3,0 0.7,0 1,0.1l0,-3.5zm-13.9,6.5c0,2.3 -1.4,3.6 -3.2,3.6c-1.8,0 -3.2,-1.4 -3.2,-3.6c0,-2.3 1.4,-3.6 3.2,-3.6c1.8,0 3.2,1.3 3.2,3.6m-6.3,11.3l0,-6.2c0.6,0.9 1.9,1.6 3.7,1.6c3.6,0 6,-2.9 6,-6.7c0,-3.8 -2.2,-6.7 -5.9,-6.7c-1.9,0 -3.4,0.9 -3.9,1.8l0,-1.6l-3.4,0l0,17.7l3.5,0l0,0.1zm-5.9,-17.8c-0.3,0 -0.5,-0.1 -0.8,-0.1c-1.1,0 -2.9,0.3 -3.6,2l0,-1.9l-3.4,0l0,12.8l3.5,0l0,-5.8c0,-2.8 1.5,-3.6 3.3,-3.6c0.3,0 0.7,0 1,0.1l0,-3.5zm-14.7,12.8l3.3,0c-0.1,-0.4 -0.1,-1.3 -0.1,-2.3l0,-10.5l-3.5,0l0,7.4c0,1.5 -0.9,2.5 -2.4,2.5c-1.6,0 -2.3,-1.1 -2.3,-2.6l0,-7.4l-3.5,0l0,8.1c0,2.8 1.8,5 4.9,5c1.4,0 2.8,-0.5 3.5,-1.7c0,0.7 0,1.3 0.1,1.5m-14,-16.6l-3.1,0l0,1.8c0,1.1 -0.6,2 -2,2l-0.7,0l0,3.1l2.3,0l0,6c0,2.5 1.6,4 4.1,4c1,0 1.6,-0.2 2,-0.3l0,-2.9c-0.2,0.1 -0.6,0.1 -1.1,0.1c-1,0 -1.5,-0.4 -1.5,-1.5l0,-5.4l2.6,0l0,-3.1l-2.6,0l0,-3.8zm-7.9,-2.2l-3.5,0l0,18.8l3.5,0l0,-18.8zm-10.4,18.8l3.3,0c-0.1,-0.4 -0.1,-1.3 -0.1,-2.3l0,-10.5l-3.5,0l0,7.4c0,1.5 -0.9,2.5 -2.4,2.5c-1.6,0 -2.3,-1.1 -2.3,-2.6l0,-7.4l-3.5,0l0,8.1c0,2.8 1.8,5 4.9,5c1.4,0 2.8,-0.5 3.5,-1.7c0,0.7 0.1,1.3 0.1,1.5m-10.3,-12.7l-4.5,0l-4.4,4.8l0,-10.9l-3.5,0l0,18.8l3.5,0l0,-3.4l1.4,-1.4l3.4,4.9l4.2,0l-5.2,-7.4l5.1,-5.4z" class="st0"/>
   <path id="svg_3" d="m151.89844,73.78828c0.2,1.5 1.5,4 5.3,4c3.4,0 5,-2.1 5,-4.2c0,-1.9 -1.3,-3.4 -3.8,-3.9l-1.8,-0.4c-0.7,-0.1 -1.2,-0.5 -1.2,-1.1c0,-0.7 0.7,-1.3 1.6,-1.3c1.5,0 2,1 2.1,1.7l2.9,-0.6c-0.2,-1.4 -1.4,-3.7 -5,-3.7c-2.8,0 -4.8,1.9 -4.8,4.2c0,1.8 1.1,3.3 3.6,3.8l1.7,0.4c1,0.2 1.4,0.7 1.4,1.2c0,0.7 -0.5,1.3 -1.7,1.3c-1.5,0 -2.3,-0.9 -2.3,-1.9l-3,0.5zm-8.4,-9.6c-3.8,0 -6.7,2.8 -6.7,6.8c0,3.9 2.9,6.8 6.7,6.8c3.8,0 6.7,-2.9 6.7,-6.8c0,-4 -2.9,-6.8 -6.7,-6.8m0,10.4c-1.7,0 -3.2,-1.2 -3.2,-3.6c0,-2.4 1.6,-3.6 3.2,-3.6c1.7,0 3.2,1.2 3.2,3.6c0.1,2.4 -1.5,3.6 -3.2,3.6m-8,-10.1c-0.3,0 -0.5,-0.1 -0.8,-0.1c-1.1,0 -2.9,0.3 -3.6,2l0,-1.9l-3.4,0l0,12.8l3.5,0l0,-5.8c0,-2.8 1.5,-3.6 3.3,-3.6c0.3,0 0.6,0 1,0.1l0,-3.5zm-17.7,9.3c-1.8,0 -3.1,-1.2 -3.1,-3.2c0,-2 1.4,-3.2 3.1,-3.2c1.7,0 3,1.2 3,3.2c0,1.9 -1.3,3.2 -3,3.2m-6.6,4.3c0.4,2.4 2.7,4.6 6.2,4.6c4.8,0 6.7,-3.2 6.7,-6.7l0,-11.4l-3.3,0l0,1.5c-0.4,-0.9 -1.6,-1.7 -3.6,-1.7c-3.5,0 -6,2.9 -6,6.2c0,3.6 2.5,6.2 6,6.2c1.8,0 3,-0.8 3.6,-1.6l0,0.9c0,2.5 -1.2,3.6 -3.4,3.6c-1.6,0 -2.8,-1 -3,-2.4l-3.2,0.8zm-6.6,-17.7c0,1.1 1,2.1 2.1,2.1c1.2,0 2.1,-1 2.1,-2.1c0,-1.2 -0.9,-2.2 -2.1,-2.2c-1.2,0 -2.1,1 -2.1,2.2m3.8,4.2l-3.5,0l0,12.8l3.5,0l0,-12.8zm-23,12.7l0,-7.5c0,-1.4 0.9,-2.5 2.4,-2.5c1.6,0 2.3,1 2.3,2.4l0,7.6l3.4,0l0,-7.5c0,-1.4 0.9,-2.5 2.4,-2.5c1.6,0 2.3,1 2.3,2.4l0,7.6l3.4,0l0,-8.3c0,-3.4 -2.3,-4.9 -4.6,-4.9c-1.7,0 -3,0.6 -4.1,2.1c-0.7,-1.4 -2.1,-2.1 -3.8,-2.1c-1.4,0 -3,0.7 -3.7,1.9l0,-1.6l-3.5,0l0,12.8l3.5,0l0,0.1z" class="st0"/>
   <path id="svg_4" d="m263.89844,48.98828l-1,-3.2c-0.4,-0.6 -1.1,-1.2 -2.4,-1.2c-1.3,0 -2.2,0.8 -2.2,1.7c0,0.8 0.6,1.4 1.5,1.6l2.3,0.5c0.8,0.2 1.3,0.4 1.8,0.6m-67.4,2.1l0,-0.6l-3.9,0.6c-1.1,0.2 -2,0.8 -2,2c0,1 0.8,1.9 2.2,1.9c2,0 3.7,-0.9 3.7,-3.9m45.5,-1.3c0,3 1.9,4.7 4.2,4.7c2.3,0 3.4,-1.6 3.8,-2.8l3.2,1.1c-0.7,2.3 -3,4.9 -6.9,4.9c-4.4,0 -7.8,-3.4 -7.8,-8c0,-4.6 3.4,-8 7.7,-8c4,0 6.3,2.5 6.9,4.9l-3.2,1.2c-0.3,-1.3 -1.4,-2.8 -3.6,-2.8c-2.4,0.2 -4.3,1.8 -4.3,4.8m-6.2,-12.8c0,1.3 -1.1,2.3 -2.3,2.3c-1.3,0 -2.3,-1 -2.3,-2.3s1.1,-2.3 2.3,-2.3c1.2,0 2.3,1 2.3,2.3m-15.5,9.4c0,0.8 0.6,1.4 1.5,1.6l2.3,0.5c2.8,0.6 4.3,2.3 4.3,4.6c0,2.3 -1.9,4.8 -5.7,4.8c-4.4,0 -6,-2.8 -6.2,-4.5l3.1,-0.9c0.1,1.4 1.1,2.6 3.1,2.6c1.5,0 2.3,-0.8 2.3,-1.7c0,-0.8 -0.6,-1.4 -1.8,-1.7l-2.2,-0.5c-2.7,-0.6 -4,-2.3 -4,-4.4c0,-2.6 2.4,-4.9 5.5,-4.9c4.2,0 5.6,2.7 5.8,4.2l-3,0.9c-0.1,-0.9 -0.8,-2.3 -2.8,-2.3c-1.3,0 -2.2,0.8 -2.2,1.7m-13.8,0c0,0.8 0.6,1.4 1.5,1.6l2.3,0.5c2.8,0.6 4.3,2.3 4.3,4.6c0,2.3 -1.9,4.8 -5.7,4.8c-4.4,0 -6,-2.8 -6.2,-4.5l3.1,-0.9c0.1,1.4 1.1,2.6 3.1,2.6c1.5,0 2.3,-0.8 2.3,-1.7c0,-0.8 -0.6,-1.4 -1.8,-1.7l-2.2,-0.5c-2.7,-0.6 -4,-2.3 -4,-4.4c0,-2.6 2.4,-4.9 5.5,-4.9c4.2,0 5.6,2.7 5.8,4.2l-3,0.9c-0.1,-0.9 -0.8,-2.3 -2.8,-2.3c-1.3,0 -2.2,0.8 -2.2,1.7m-6.3,11l-3.3,0c0,-0.1 -0.2,-0.7 -0.2,-1.9c-0.7,1.1 -2.2,2.4 -4.6,2.4c-3.2,0 -5.1,-2.2 -5.1,-4.5c0,-2.7 2,-4.2 4.5,-4.5l3.9,-0.6c0.9,-0.1 1.1,-0.6 1.1,-1.1c0,-1.3 -0.9,-2.3 -2.8,-2.3c-1.9,0 -2.9,1.2 -3.1,2.7l-3.3,-0.7c0.3,-2.6 2.6,-4.9 6.3,-4.9c4.6,0 6.4,2.6 6.4,5.6l0,7.5c0,1.2 0.2,2.1 0.2,2.3m31.5,-15.1l3.6,0l0,15.1l-3.6,0l0,-15.1zm-48.1,15.1l-3.6,0l0,-22.4l3.6,0l0,22.4zm89.9,23.1l-7.7,-25.1c-0.8,1.4 -2.5,2.5 -5,2.5c-4.4,0 -6,-2.8 -6.2,-4.5l3.1,-0.9c0.1,1.4 1.1,2.6 3.1,2.6c1.5,0 2.3,-0.8 2.3,-1.7c0,-0.8 -0.6,-1.4 -1.8,-1.7l-2.2,-0.5c-2.7,-0.6 -4,-2.3 -4,-4.4c0,-2.6 2.4,-4.9 5.5,-4.9c0.4,0 0.8,0 1.2,0.1l-11,-36c-1.4,-4.5 -6.1,-7 -10.6,-5.6l-74.5,22.8c-4.5,1.4 -7,6.1 -5.6,10.6l3.6,11.9c1.3,-2.3 3.7,-3.8 6.6,-3.8c4,0 6.3,2.5 6.9,4.9l-3.2,1.2c-0.3,-1.3 -1.4,-2.8 -3.6,-2.8c-2.2,0 -4.1,1.6 -4.1,4.7s1.9,4.7 4.2,4.7c2.3,0 3.4,-1.6 3.8,-2.8l3.2,1.1c-0.7,2.3 -3,4.9 -6.9,4.9c-1.1,0 -2.2,-0.2 -3.1,-0.6l15.6,51c1.4,4.5 6.1,7 10.6,5.6l74.5,-22.8c4.2,-1.3 6.7,-6 5.3,-10.5" class="st0"/>
  </g>
 </g>
</svg>