<svg xmlns="http://www.w3.org/2000/svg" viewBox="0 0 56 56" stroke-linejoin="round" stroke-linecap="round" stroke="currentColor" fill="none"><path stroke-width="3.5" d="M49 7H7c-2.577 0-4.667 2.35-4.667 5.25v31.5C2.333 46.65 4.423 49 7 49h42c2.577 0 4.667-2.35 4.667-5.25v-31.5C53.667 9.35 51.577 7 49 7Z"/><path stroke-width="3.5" d="M32.667 35V16.333h-21V35h21Zm0 0h11.666v-7.292l-5-4.375h-6.666V35Zm-7-11.667L20.854 28l-2.187-2.121M21 38.5a3.5 3.5 0 1 1-7 0 3.5 3.5 0 0 1 7 0Zm21 0a3.5 3.5 0 1 1-7 0 3.5 3.5 0 0 1 7 0Z"/></svg>