<svg xmlns="http://www.w3.org/2000/svg" viewBox="0 0 40 40" stroke-linejoin="round" stroke-linecap="round" stroke="currentColor" fill="none"><path stroke-width="2.5" d="M35 5H5C3.16 5 1.667 6.679 1.667 8.75v22.5C1.667 33.321 3.159 35 5 35h30c1.841 0 3.333-1.679 3.333-3.75V8.75C38.333 6.679 36.841 5 35 5Z"/><path stroke-width="2.5" d="M23.333 25V11.667h-15V25h15Zm0 0h8.334v-5.208l-3.572-3.125h-4.762V25Zm-5-8.333L14.896 20l-1.563-1.515M15 27.5a2.5 2.5 0 1 1-5 0 2.5 2.5 0 0 1 5 0Zm15 0a2.5 2.5 0 1 1-5 0 2.5 2.5 0 0 1 5 0Z"/></svg>