<svg xmlns="http://www.w3.org/2000/svg" viewBox="0 0 16 16" stroke-linejoin="round" stroke-linecap="round" stroke="currentColor" fill="none"><g stroke-width="1.5" clip-path="url(#a)"><path d="M14 2H2C1.264 2 .667 2.672.667 3.5v9c0 .828.597 1.5 1.333 1.5h12c.736 0 1.333-.672 1.333-1.5v-9c0-.828-.597-1.5-1.333-1.5Z"/><path d="M9.333 10V4.667h-6V10h6Zm0 0h3.334V7.917l-1.429-1.25H9.333V10Zm-2-3.333L5.958 8l-.625-.606M6 11a1 1 0 1 1-2 0 1 1 0 0 1 2 0Zm6 0a1 1 0 1 1-2 0 1 1 0 0 1 2 0Z"/></g><defs><clipPath id="a"><path d="M0 0H16V16H0z"/></clipPath></defs></svg>