<?xml version="1.0" encoding="UTF-8"?>
<!-- Generator: Adobe Illustrator 19.0.1, SVG Export Plug-In . SVG Version: 6.00 Build 0)  -->
<!DOCTYPE svg PUBLIC "-//W3C//DTD SVG 1.1//EN" "http://www.w3.org/Graphics/SVG/1.1/DTD/svg11.dtd">
<svg version="1.1" xmlns="http://www.w3.org/2000/svg" xmlns:xlink="http://www.w3.org/1999/xlink" x="0px" y="0px" viewBox="0 0 283.5 52.1" enable-background="new 0 0 283.5 52.1" xml:space="preserve">
<g id="Background">
	<rect x="-28.6" y="-24" fill="none" width="340" height="100"/>
</g>
<g id="MIGROS_x005F_RGB">
	<g>
		<path fill="#EB690B" d="M48,50.1V22.3L36,50.1h-6.6L17.6,22.3v27.9H5.3V1.9h16.5l11.4,27.2L45,1.9h15.3v48.3H48z"/>
		<path fill="#EB690B" d="M69.8,50.1V1.9h10.6c0.9,0,1.8,0.9,1.8,1.9v46.3H69.8z"/>
		<path fill="#EB690B" d="M116.5,22.4h15.7c1.2,0,1.9,1,1.9,2.2v24.9c-4.4,1-11.3,1.6-16.4,1.6c-18,0-27.5-8.6-27.5-25.1    c0-14.8,9.5-25,25.3-25c7,0,13.1,1.9,17,4.5l-4.9,8.3c-3.4-1.5-8-2.6-11.2-2.6c-9.1,0-13.3,6-13.3,14.8c0,9.3,4.9,15.1,14,15.1    c1.7,0,3.7-0.1,5.4-0.3v-8.5h-6V22.4z"/>
		<path fill="#EB690B" d="M170.7,50.1L165,36.9c-1.2-2.7-2-4-4.5-4h-5v17.3h-12.1V3.8c0-1,1.1-1.9,1.9-1.9h17.1    c9.3,0,17.3,1.9,17.3,13.9c0,5.4-3,10.9-8.6,12c2.8,0.9,5.6,4.5,7.1,8.4l5.5,13.9H170.7z M161.6,11.2h-6.1v12.1h6.1    c3.6,0,6.5-1.9,6.5-6.5C168.1,12.1,165.2,11.2,161.6,11.2z"/>
		<path fill="#EB690B" d="M210.6,51.1c-15.8,0-24.2-11.2-24.2-25.1c0-13.8,8.4-25,24.2-25c14.8,0,23.2,11.2,23.2,25    C233.7,39.9,225.4,51.1,210.6,51.1z M210.6,11.2c-6.5,0-11.1,4.6-11.1,14.8c0,10.3,4.6,14.9,11.1,14.9c5.6,0,10.2-4.6,10.2-14.9    C220.7,15.8,216.1,11.2,210.6,11.2z"/>
		<path fill="#EB690B" d="M257.5,51.1c-8.2,0-15.7-2.9-19.1-5.2l5.5-9.8c3.1,1.9,9,4.7,14.5,4.7c3.1,0,7.1-0.6,7.1-4.1    c0-3.2-4.4-4.2-10.2-5.9c-7-2-15.1-4.8-15.1-14.1c0-10.1,9-15.7,20.6-15.7c7.7,0,13.7,2.7,16.7,5.6l-6.7,7.6    c-3.3-2-6.7-3.5-10.5-3.5c-4.6,0-7.2,1.7-7.2,4.3c0,2.5,3.3,3.8,7.5,5c7.4,2.3,17.5,4.6,17.5,14.3    C278.2,44.2,270.2,51.1,257.5,51.1z"/>
	</g>
</g>
</svg>