<?xml version="1.0" encoding="utf-8"?>
<!-- Generator: Adobe Illustrator 25.0.0, SVG Export Plug-In . SVG Version: 6.00 Build 0)  -->
<svg version="1.1" id="Ebene_1" xmlns="http://www.w3.org/2000/svg" xmlns:xlink="http://www.w3.org/1999/xlink" x="0px" y="0px"
	 viewBox="0 0 2199.7 566.8" style="enable-background:new 0 0 2199.7 566.8;" xml:space="preserve">
<style type="text/css">
	.st0{fill:#009FE3;}
	.st1{fill:#83D0F5;}
</style>
<g>
	<path class="st0" d="M610.9,366.3c0-37.8,22.9-61.2,55.3-61.2c24.3,0,45.7,12.8,51.3,41.4h-17.8c-4.8-18.6-18.4-25.8-33.5-25.8
		c-22.4,0-37,16.9-37,45.6c0,28.6,14.6,45.6,37,45.6c16,0,31.6-9.5,34.4-30.3h17.6c-3.3,30.8-26.6,45.9-52,45.9
		C633.9,427.5,610.9,404.1,610.9,366.3z"/>
	<path class="st0" d="M802.5,340v84.9h-15.8v-12.7c-5.4,8.4-14.6,14.6-26.6,14.6c-18.3,0-29.8-10.5-29.8-29.9V340h16.4v54.6
		c0,12.2,6.4,17.8,17.9,17.8c10.2,0,21.4-7.4,21.4-24.5V340H802.5z"/>
	<path class="st0" d="M819.4,307.7h16.4v117.1h-16.4V307.7z"/>
	<path class="st0" d="M875.8,353.5v51c0,4.9,2.5,7.2,9.7,7.2h7.4v13.2c-3.6,0.3-7.1,0.5-10,0.5c-15.3,0-23.5-5.3-23.5-19.4v-52.5
		h-13.7V340h13.7v-24.3h16.4V340h17.1v13.5H875.8z"/>
	<path class="st0" d="M976.6,340v84.9h-15.8v-12.7c-5.4,8.4-14.6,14.6-26.6,14.6c-18.3,0-29.8-10.5-29.8-29.9V340h16.4v54.6
		c0,12.2,6.4,17.8,17.9,17.8c10.2,0,21.4-7.4,21.4-24.5V340H976.6z"/>
	<path class="st0" d="M1040.6,338.8v15.6h-4.1c-16.3,0-26.5,8.1-26.5,24.3v46h-16.4V340h15.8v15.1c4.6-9.2,13-16.4,26.5-16.4
		C1037.3,338.7,1038.8,338.7,1040.6,338.8z"/>
	<path class="st0" d="M1128.7,387.8h-64c1.5,17.3,10.7,25.2,24.3,25.2c11,0,18.1-5.6,21.1-14.1h16.6c-4.3,16.4-17.6,28-38,28
		c-24,0-40.6-17.1-40.6-44.4c0-26.6,16.1-44.4,40.3-44.4c25.7,0,40.3,19.6,40.3,45.1V387.8z M1064.9,374.8h46.9
		c-1.5-13.2-9.5-23-23.4-23C1076.1,351.8,1067.1,359.2,1064.9,374.8z"/>
	<path class="st0" d="M1264.2,344.7c0,21.7-13.6,36.8-40.1,36.8h-32.2v43.3h-17.6V307.7h49.8
		C1250.6,307.7,1264.2,322.9,1264.2,344.7z M1246.3,344.7c0-13.6-7.7-21.5-22.5-21.5h-31.9v42.9h31.9
		C1238.6,366.1,1246.3,358.4,1246.3,344.7z"/>
	<path class="st0" d="M1353.5,387.8h-64c1.5,17.3,10.7,25.2,24.3,25.2c11,0,18.1-5.6,21.1-14.1h16.6c-4.3,16.4-17.6,28-38,28
		c-24,0-40.6-17.1-40.6-44.4c0-26.6,16.1-44.4,40.3-44.4c25.7,0,40.3,19.6,40.3,45.1V387.8z M1289.7,374.8h46.9
		c-1.5-13.2-9.5-23-23.4-23C1300.9,351.8,1291.9,359.2,1289.7,374.8z"/>
	<path class="st0" d="M1413.6,338.8v15.6h-4.1c-16.3,0-26.5,8.1-26.5,24.3v46h-16.4V340h15.8v15.1c4.6-9.2,13-16.4,26.5-16.4
		C1410.3,338.7,1411.7,338.7,1413.6,338.8z"/>
	<path class="st0" d="M1421.1,382.4c0-27.1,16.1-44.4,40.5-44.4c21.1,0,35.2,12.3,37.8,31.6h-16.8c-2.3-11.8-11-17.3-21.1-17.3
		c-13.5,0-23.4,9.5-23.4,30.1c0,20.6,10.2,30.1,23.4,30.1c10.2,0,19.2-5.6,21.2-17.9h16.8c-2.6,20.1-17.8,32.2-38,32.2
		C1437.6,426.8,1421.1,409.5,1421.1,382.4z"/>
	<path class="st0" d="M1587.4,387.8h-64c1.5,17.3,10.7,25.2,24.3,25.2c11,0,18.1-5.6,21.1-14.1h16.6c-4.3,16.4-17.6,28-38,28
		c-24,0-40.6-17.1-40.6-44.4c0-26.6,16.1-44.4,40.3-44.4c25.7,0,40.3,19.6,40.3,45.1V387.8z M1523.6,374.8h46.9
		c-1.5-13.2-9.5-23-23.4-23C1534.8,351.8,1525.7,359.2,1523.6,374.8z"/>
	<path class="st0" d="M1672.6,367.9v56.9h-16.4v-54.6c0-12.2-6.4-17.8-17.9-17.8c-10,0-21.4,7.4-21.4,24.5v47.9h-16.4V340h15.8v12.7
		c5.6-8.4,14.6-14.6,26.6-14.6C1661.2,338,1672.6,348.5,1672.6,367.9z"/>
	<path class="st0" d="M1712.7,353.5v51c0,4.9,2.5,7.2,9.7,7.2h7.4v13.2c-3.6,0.3-7.1,0.5-10,0.5c-15.3,0-23.5-5.3-23.5-19.4v-52.5
		h-13.6V340h13.6v-24.3h16.4V340h17.1v13.5H1712.7z"/>
	<path class="st0" d="M1818.9,412.2v12.7c-2.5,0.3-5.4,0.5-8.1,0.5c-10.5,0-15.3-3.8-16.4-12c-5.8,8.9-15.3,13.5-27.6,13.5
		c-18.3,0-30.3-8.9-30.3-25.2c0-13.7,8.2-24,31.9-26.3l12.5-1.3c8.2-1,12.7-3.8,12.7-10.7c0-7.9-4.1-12.2-17.4-12.2
		s-18.9,3.8-19.7,15.3h-16.3c1-17.1,10.5-28.5,36-28.5c24.3,0,33.5,10.2,33.5,25v44.9c0,2.6,1.3,4.3,4.6,4.3H1818.9z M1793.6,391.3
		v-8.9c-2.5,2-5.9,3-10.5,3.5l-11.8,1.3c-13.7,1.6-17.8,6.4-17.8,14c0,7.7,5.1,12.8,15.8,12.8C1781.3,414,1793.6,407.2,1793.6,391.3
		z"/>
	<path class="st0" d="M1906.9,340v81.7c0,22.2-13.3,37.3-40.5,37.3c-23,0-35.9-11.3-37.5-28.3h16.4c1.3,10,8.7,15,21.2,15
		c15.5,0,23.8-8.1,23.8-23.7v-9.4c-6.1,8.4-15.3,13.2-27.3,13.2c-23.5,0-39-17.4-39-43.9c0-26.6,15.3-43.9,38.8-43.9
		c12.5,0,22,5.3,28.1,14v-12H1906.9z M1891,381.9c0-18.9-9.7-29.8-24.8-29.8c-15.1,0-24.8,11.5-24.8,29.8c0,18.4,9.7,29.8,24.8,29.8
		C1881.3,411.7,1891,400.8,1891,381.9z"/>
	<path class="st0" d="M2000.5,387.8h-64c1.5,17.3,10.7,25.2,24.3,25.2c11,0,18.1-5.6,21.1-14.1h16.6c-4.3,16.4-17.6,28-38,28
		c-24,0-40.6-17.1-40.6-44.4c0-26.6,16.1-44.4,40.3-44.4c25.7,0,40.3,19.6,40.3,45.1V387.8z M1936.7,374.8h46.9
		c-1.5-13.2-9.5-23-23.4-23C1947.9,351.8,1938.8,359.2,1936.7,374.8z"/>
</g>
<polygon class="st0" points="719.3,258.5 719.3,191 690.3,258.5 674.3,258.5 645.8,191 645.8,258.5 615.8,258.5 615.8,141.5 
	655.9,141.5 683.4,207.6 712.3,141.5 749.3,141.5 749.3,258.5 "/>
<g>
	<path class="st0" d="M772.3,258.5v-117h25.6c2.3,0,4.5,2.3,4.5,4.7v112.4H772.3z"/>
	<path class="st0" d="M885.5,191.1h38c3,0,4.7,2.5,4.7,5.3v60.5c-10.7,2.4-27.4,3.8-39.9,3.8c-43.7,0-66.7-20.8-66.7-60.9
		c0-35.8,23-60.6,61.4-60.6c16.9,0,31.7,4.5,41.2,10.9l-11.8,20.1c-8.2-3.7-19.3-6.3-27.2-6.3c-22.1,0-32.4,14.6-32.4,35.8
		c0,22.6,11.9,36.6,34,36.6c4,0,9-0.2,13.1-0.8V215h-14.5V191.1z"/>
	<path class="st0" d="M995,164h-14.7v29.3H995c8.8,0,15.7-4.7,15.7-15.8C1010.7,166.3,1003.8,164,995,164 M1017.2,258.5l-13.9-32.2
		c-2.8-6.6-4.8-9.8-10.8-9.8h-12.2v42h-29.4V146.2c0-2.4,2.7-4.7,4.6-4.7H997c22.6,0,41.9,4.7,41.9,33.8c0,13-7.2,26.4-20.8,29.1
		c6.7,2.3,13.5,11,17.2,20.3l13.4,33.8H1017.2z"/>
	<path class="st0" d="M1113.8,164c-15.8,0-27,11.3-27,35.8c0,24.9,11.2,36.1,27,36.1c13.5,0,24.6-11.2,24.6-36.1
		C1138.4,175.3,1127.3,164,1113.8,164 M1113.8,260.8c-38.3,0-58.6-27.1-58.6-60.9c0-33.6,20.3-60.6,58.6-60.6
		c35.9,0,56.2,27.1,56.2,60.6C1170,233.7,1149.7,260.8,1113.8,260.8"/>
	<path class="st0" d="M1227.6,260.8c-19.8,0-38.2-7.1-46.4-12.7l13.3-23.7c7.4,4.5,21.9,11.4,35.3,11.4c7.6,0,17.1-1.5,17.1-9.9
		c0-7.9-10.7-10.3-24.7-14.3c-16.9-4.8-36.5-11.6-36.5-34.3c0-24.5,21.7-38.2,50.1-38.2c18.7,0,33.2,6.6,40.6,13.7l-16.2,18.5
		c-8-4.8-16.3-8.5-25.5-8.5c-11.1,0-17.4,4.2-17.4,10.3c0,6.1,8,9.2,18.2,12.2c17.9,5.5,42.3,11.2,42.3,34.6
		C1277.8,244.2,1258.5,260.8,1227.6,260.8"/>
</g>
<path class="st1" d="M518.1,143.1L518.1,143.1c-34.2-34.2-89.7-34.2-123.9,0l-41.2,41.2l62,62c38.6,37.5,34,85.1,33,91l70.2-70.2
	C552.4,232.9,552.3,177.3,518.1,143.1"/>
<path class="st0" d="M397.5,264.3L283.8,150.6l0,0c-34.2-34.2-89.7-34.2-123.9,0s-34.2,89.7,0,123.9l0,0l175.7,175.7l62-62
	C431.7,354,431.7,298.5,397.5,264.3"/>
</svg>
