<svg xmlns="http://www.w3.org/2000/svg" viewBox="0 0 32 32" stroke-linejoin="round" stroke-linecap="round" stroke="currentColor" fill="none"><path stroke-width="2.3" d="M8 8h.013M8 24h.013M5.333 2.667h21.334a2.667 2.667 0 0 1 2.666 2.666v5.334a2.667 2.667 0 0 1-2.666 2.666H5.333a2.667 2.667 0 0 1-2.666-2.666V5.333a2.667 2.667 0 0 1 2.666-2.666Zm0 16h21.334a2.667 2.667 0 0 1 2.666 2.666v5.334a2.667 2.667 0 0 1-2.666 2.666H5.333a2.667 2.667 0 0 1-2.666-2.666v-5.334a2.667 2.667 0 0 1 2.666-2.666Z"/></svg>