<svg xmlns="http://www.w3.org/2000/svg" viewBox="0 0 40 40" stroke-linejoin="round" stroke-linecap="round" stroke="currentColor" fill="none"><path stroke-width="2.5" d="M10 10h.017M10 30h.017M6.667 3.333h26.666a3.333 3.333 0 0 1 3.334 3.334v6.666a3.333 3.333 0 0 1-3.334 3.334H6.667a3.333 3.333 0 0 1-3.334-3.334V6.667a3.333 3.333 0 0 1 3.334-3.334Zm0 20h26.666a3.333 3.333 0 0 1 3.334 3.334v6.666a3.333 3.333 0 0 1-3.334 3.334H6.667a3.333 3.333 0 0 1-3.334-3.334v-6.666a3.333 3.333 0 0 1 3.334-3.334Z"/></svg>