<svg xmlns="http://www.w3.org/2000/svg" viewBox="0 0 56 56" stroke-linejoin="round" stroke-linecap="round" stroke="currentColor" fill="none"><path stroke-width="3.5" d="M14 14h.023M14 42h.023M9.333 4.667h37.334a4.667 4.667 0 0 1 4.666 4.666v9.334a4.667 4.667 0 0 1-4.666 4.666H9.333a4.667 4.667 0 0 1-4.666-4.666V9.333a4.667 4.667 0 0 1 4.666-4.666Zm0 28h37.334a4.667 4.667 0 0 1 4.666 4.666v9.334a4.667 4.667 0 0 1-4.666 4.666H9.333a4.667 4.667 0 0 1-4.666-4.666v-9.334a4.667 4.667 0 0 1 4.666-4.666Z"/></svg>