<svg xmlns="http://www.w3.org/2000/svg" viewBox="0 0 40 40" stroke-linejoin="round" stroke-linecap="round" stroke="currentColor" fill="none"><path stroke-width="2.5" d="M37.567 10.7a4.634 4.634 0 0 0-3.234-3.333c-2.866-.7-14.333-.7-14.333-.7s-11.467 0-14.333.766a4.633 4.633 0 0 0-3.234 3.334 48.334 48.334 0 0 0-.766 8.816 48.333 48.333 0 0 0 .766 8.884 4.634 4.634 0 0 0 3.234 3.2c2.866.766 14.333.766 14.333.766s11.467 0 14.333-.766a4.632 4.632 0 0 0 3.234-3.334c.52-2.887.777-5.816.766-8.75a48.334 48.334 0 0 0-.766-8.883Z"/><path stroke-width="2.5" d="m16.25 25.033 9.583-5.45-9.583-5.45v10.9Z"/></svg>