<svg xmlns="http://www.w3.org/2000/svg" viewBox="0 0 48 48" stroke-linejoin="round" stroke-linecap="round" stroke="currentColor" fill="none"><path stroke-width="3" d="M45.08 12.84a5.56 5.56 0 0 0-3.88-4C37.76 8 24 8 24 8s-13.76 0-17.2.92a5.56 5.56 0 0 0-3.88 4A58 58 0 0 0 2 23.5a58 58 0 0 0 .92 10.66A5.56 5.56 0 0 0 6.8 38c3.44.92 17.2.92 17.2.92s13.76 0 17.2-.92a5.56 5.56 0 0 0 3.88-4c.625-3.465.933-6.98.92-10.5a57.992 57.992 0 0 0-.92-10.66Z"/><path stroke-width="3" d="M19.5 30.04 31 23.5l-11.5-6.54v13.08Z"/></svg>