<svg xmlns="http://www.w3.org/2000/svg" viewBox="0 0 16 16" stroke-linejoin="round" stroke-linecap="round" stroke="currentColor" fill="none"><g stroke-width="1.5" clip-path="url(#a)"><path d="M15.027 4.28a1.853 1.853 0 0 0-1.294-1.333C12.587 2.667 8 2.667 8 2.667s-4.587 0-5.733.306A1.853 1.853 0 0 0 .973 4.307a19.333 19.333 0 0 0-.306 3.526c-.008 1.192.095 2.381.306 3.554a1.853 1.853 0 0 0 1.294 1.28c1.146.306 5.733.306 5.733.306s4.587 0 5.733-.306a1.854 1.854 0 0 0 1.294-1.334 19.33 19.33 0 0 0 .306-3.5 19.33 19.33 0 0 0-.306-3.553Z"/><path d="m6.5 10.013 3.833-2.18L6.5 5.653v4.36Z"/></g><defs><clipPath id="a"><path d="M0 0H16V16H0z"/></clipPath></defs></svg>