<svg xmlns="http://www.w3.org/2000/svg" viewBox="0 0 24 24" stroke-linejoin="round" stroke-linecap="round" stroke="currentColor" fill="none"><path stroke-width="2" d="M22.54 6.42a2.78 2.78 0 0 0-1.94-2C18.88 4 12 4 12 4s-6.88 0-8.6.46a2.78 2.78 0 0 0-1.94 2A29 29 0 0 0 1 11.75a29 29 0 0 0 .46 5.33A2.78 2.78 0 0 0 3.4 19c1.72.46 8.6.46 8.6.46s6.88 0 8.6-.46a2.78 2.78 0 0 0 1.94-2c.312-1.732.466-3.49.46-5.25a29.005 29.005 0 0 0-.46-5.33Z"/><path stroke-width="2" d="m9.75 15.02 5.75-3.27-5.75-3.27v6.54Z"/></svg>