<svg xmlns="http://www.w3.org/2000/svg" viewBox="0 0 56 56" stroke-linejoin="round" stroke-linecap="round" stroke="currentColor" fill="none"><path stroke-width="3.5" d="M52.593 14.98a6.487 6.487 0 0 0-4.526-4.667C44.053 9.333 28 9.333 28 9.333s-16.053 0-20.067 1.074a6.486 6.486 0 0 0-4.526 4.666 67.666 67.666 0 0 0-1.074 12.344 67.667 67.667 0 0 0 1.074 12.436 6.486 6.486 0 0 0 4.526 4.48C11.947 45.407 28 45.407 28 45.407s16.053 0 20.067-1.074a6.487 6.487 0 0 0 4.526-4.666 67.667 67.667 0 0 0 1.074-12.25 67.666 67.666 0 0 0-1.074-12.437Z"/><path stroke-width="3.5" d="m22.75 35.047 13.417-7.63-13.417-7.63v15.26Z"/></svg>