<svg xmlns="http://www.w3.org/2000/svg" width="72" height="72" viewBox="0 0 72 72">
    <path fill="none" d="M0 0h72v72H0z"/>
    <path fill="#FFF" d="M61.536 32.279l-5.237-13.662a5.388 5.388 0 0 0 2.33-2.485c.584-1.272.653-2.705.169-4.108a5.346 5.346 0 0 0-2.815-3.034c-1.268-.575-2.62-.672-4.089-.167l-12.305 4.491a8.258 8.258 0 0 0-3.839-.941 8.279 8.279 0 0 0-7.688 5.147l-12.094 4.41a5.392 5.392 0 0 0-3.266 6.889 5.366 5.366 0 0 0 2.113 2.679c-.267.61-.534 1.211-.801 1.81-1.16 2.616-2.359 5.32-3.572 8.803-.797 2.308-.679 4.243.378 6.263 2.019 3.903 5.434 6.457 9.375 7.104a5.333 5.333 0 0 0-.695 2.642 5.385 5.385 0 0 0 5.377 5.381H46.64a5.387 5.387 0 0 0 5.382-5.381 5.388 5.388 0 0 0-5.382-5.382h-5.49V42.352c2.344 2.279 5.379 3.563 8.653 3.563 4.702 0 8.926-2.662 11.299-7.12 1.408-2.647 1.041-4.695.434-6.516zM49.75 27.145l.167-.374 1.644 4.285-3.507.001c.564-1.363 1.133-2.643 1.696-3.912zm-20.92 1.531l1.543-.564v4.586l-1.543-4.022zm-5.042 11.657h-3.143c.52-1.236 1.032-2.385 1.52-3.477l.157-.354 1.466 3.831zm6.585 12.166v.239h-.278c.094-.078.186-.157.278-.239z"/>
    <path fill="#404759" d="M58.216 33.386L51.82 16.712c-.005-.039-.027-.073-.047-.111l2.614-.953a1.843 1.843 0 0 0 1.062-.977c.209-.455.23-.959.067-1.433a1.873 1.873 0 0 0-.98-1.063 1.921 1.921 0 0 0-1.441-.066l-14.008 5.112a4.797 4.797 0 0 0-3.336-1.35 4.816 4.816 0 0 0-4.781 4.312l-13.842 5.048a1.836 1.836 0 0 0-1.063.977 1.895 1.895 0 0 0-.066 1.432c.266.743.979 1.24 1.771 1.24.208 0 .425-.034.646-.111l1.529-.562c-.912 2.433-1.833 4.502-2.729 6.518-1.134 2.557-2.301 5.189-3.464 8.527-.487 1.408-.438 2.332.179 3.512 1.741 3.366 4.837 5.373 8.262 5.373 3.376 0 6.448-1.968 8.216-5.268.75-1.417.663-2.363.21-3.762l-6.328-16.5 7.799-2.851a4.713 4.713 0 0 0 1.785 1.321v31.158h-8.996A1.882 1.882 0 0 0 23 58.12c0 1.042.84 1.881 1.877 1.881H46.64a1.878 1.878 0 0 0 1.882-1.881c0-1.043-.84-1.882-1.882-1.882h-8.99V25.104a4.78 4.78 0 0 0 1.513-1.022 4.793 4.793 0 0 0 1.409-3.386l7.119-2.6c-.955 2.6-1.923 4.785-2.865 6.897-1.128 2.542-2.305 5.176-3.464 8.535-.491 1.406-.452 2.327.175 3.524 1.748 3.355 4.841 5.361 8.267 5.361 3.377 0 6.454-1.967 8.209-5.265.753-1.414.666-2.373.203-3.762zm-29.369 10.37c.009.02.014.049.024.077H15.55c1.122-3.241 2.273-5.837 3.399-8.359 1.081-2.436 2.195-4.945 3.304-8.098l.28-.104 6.314 16.484zm14.157-9.196c.038-.127.086-.262.135-.422 1.129-3.274 2.285-5.874 3.414-8.416 1.129-2.537 2.286-5.153 3.434-8.465l.011-.01.019.01 6.426 16.751c.062.207.115.386.157.545l-13.596.007z"/>
</svg>
