<svg xmlns="http://www.w3.org/2000/svg" viewBox="0 0 24 24" stroke-linejoin="round" stroke-linecap="round" stroke="currentColor" fill="none"><path d="m1 11-.9-.438-.1.208V11h1Zm14 8a1 1 0 1 0 0-2v2Zm-7-2a1 1 0 1 0 0 2v-2Zm12 0a1 1 0 1 0 0 2v-2ZM3 19a1 1 0 1 0 0-2v2ZM4.405 4V3a1 1 0 0 0-.899.563l.9.437Zm9.73 0 .767-.642A1 1 0 0 0 14.135 3v1ZM1 12h20v-2H1v2Zm21 1v3h2v-3h-2ZM2 16v-5H0v5h2Zm13 1H8v2h7v-2Zm6 0h-1v2h1v-2ZM0 16a3 3 0 0 0 3 3v-2a1 1 0 0 1-1-1H0Zm22 0a1 1 0 0 1-1 1v2a3 3 0 0 0 3-3h-2Zm-1-4a1 1 0 0 1 1 1h2a3 3 0 0 0-3-3v2Zm-19.1-.563 3.405-7-1.799-.874-3.405 7 1.798.874ZM4.404 5h9.73V3h-9.73v2Zm8.964-.358 5.864 7 1.534-1.284-5.865-7-1.533 1.284ZM7 18.5A1.5 1.5 0 0 1 5.5 20v2A3.5 3.5 0 0 0 9 18.5H7ZM5.5 20A1.5 1.5 0 0 1 4 18.5H2A3.5 3.5 0 0 0 5.5 22v-2ZM4 18.5A1.5 1.5 0 0 1 5.5 17v-2A3.5 3.5 0 0 0 2 18.5h2ZM5.5 17A1.5 1.5 0 0 1 7 18.5h2A3.5 3.5 0 0 0 5.5 15v2ZM19 18.5a1.5 1.5 0 0 1-1.5 1.5v2a3.5 3.5 0 0 0 3.5-3.5h-2ZM17.5 20a1.5 1.5 0 0 1-1.5-1.5h-2a3.5 3.5 0 0 0 3.5 3.5v-2ZM16 18.5a1.5 1.5 0 0 1 1.5-1.5v-2a3.5 3.5 0 0 0-3.5 3.5h2Zm1.5-1.5a1.5 1.5 0 0 1 1.5 1.5h2a3.5 3.5 0 0 0-3.5-3.5v2ZM12 11V4h-2v7h2Z"/></svg>