<svg xmlns="http://www.w3.org/2000/svg" viewBox="0 0 56 56" stroke-linejoin="round" stroke-linecap="round" stroke="currentColor" fill="none"><path d="M2.333 25.667.76 24.9l-.177.363v.403h1.75ZM35 43.75a1.75 1.75 0 1 0 0-3.5v3.5Zm-16.333-3.5a1.75 1.75 0 1 0 0 3.5v-3.5Zm28 0a1.75 1.75 0 1 0 0 3.5v-3.5ZM7 43.75a1.75 1.75 0 1 0 0-3.5v3.5Zm3.28-34.417v-1.75c-.67 0-1.281.383-1.574.985l1.573.765Zm22.702 0 1.341-1.124a1.75 1.75 0 0 0-1.341-.626v1.75ZM2.333 27.417H49v-3.5H2.333v3.5Zm49.584 2.916v7h3.5v-7h-3.5Zm-47.834 7V25.667h-3.5v11.666h3.5ZM35 40.25H18.667v3.5H35v-3.5Zm14 0h-2.333v3.5H49v-3.5ZM.583 37.333A6.417 6.417 0 0 0 7 43.75v-3.5a2.917 2.917 0 0 1-2.917-2.917h-3.5Zm51.334 0A2.917 2.917 0 0 1 49 40.25v3.5a6.417 6.417 0 0 0 6.417-6.417h-3.5ZM49 27.417a2.917 2.917 0 0 1 2.917 2.916h3.5A6.417 6.417 0 0 0 49 23.917v3.5Zm-45.093-.985L11.853 10.1 8.706 8.568.76 24.9l3.147 1.531Zm6.372-15.349h22.703v-3.5H10.279v3.5Zm21.362-.626 13.684 16.334 2.683-2.248L34.323 8.209l-2.682 2.248Zm-14.724 32.71a4.083 4.083 0 0 1-4.084 4.083v3.5a7.583 7.583 0 0 0 7.584-7.583h-3.5Zm-4.084 4.083a4.083 4.083 0 0 1-4.083-4.083h-3.5a7.583 7.583 0 0 0 7.583 7.583v-3.5ZM8.75 43.167a4.083 4.083 0 0 1 4.083-4.084v-3.5a7.583 7.583 0 0 0-7.583 7.584h3.5Zm4.083-4.084a4.083 4.083 0 0 1 4.084 4.084h3.5a7.583 7.583 0 0 0-7.584-7.584v3.5Zm32.084 4.084a4.083 4.083 0 0 1-4.084 4.083v3.5a7.583 7.583 0 0 0 7.584-7.583h-3.5Zm-4.084 4.083a4.083 4.083 0 0 1-4.083-4.083h-3.5a7.583 7.583 0 0 0 7.583 7.583v-3.5Zm-4.083-4.083a4.083 4.083 0 0 1 4.083-4.084v-3.5a7.583 7.583 0 0 0-7.583 7.584h3.5Zm4.083-4.084a4.083 4.083 0 0 1 4.084 4.084h3.5a7.583 7.583 0 0 0-7.584-7.584v3.5ZM27.417 25.667V9.333h-3.5v16.334h3.5Z"/></svg>