<svg xmlns="http://www.w3.org/2000/svg" viewBox="0 0 16 16" stroke-linejoin="round" stroke-linecap="round" stroke="currentColor" fill="none"><g clip-path="url(#a)"><path d="m.667 7.333-.675-.328-.075.156v.172h.75ZM10 12.75a.75.75 0 1 0 0-1.5v1.5Zm-4.667-1.5a.75.75 0 1 0 0 1.5v-1.5Zm8 0a.75.75 0 1 0 0 1.5v-1.5ZM2 12.75a.75.75 0 0 0 0-1.5v1.5Zm.937-10.083v-.75a.75.75 0 0 0-.675.422l.675.328Zm6.486 0 .575-.482a.75.75 0 0 0-.575-.268v.75ZM.667 8.083H14v-1.5H.667v1.5Zm13.916.584v2h1.5v-2h-1.5Zm-13.166 2V7.333h-1.5v3.334h1.5ZM10 11.25H5.333v1.5H10v-1.5Zm4 0h-.667v1.5H14v-1.5Zm-14.083-.583c0 1.15.932 2.083 2.083 2.083v-1.5a.583.583 0 0 1-.583-.583h-1.5Zm14.666 0a.583.583 0 0 1-.583.583v1.5c1.15 0 2.083-.933 2.083-2.083h-1.5ZM14 8.083c.322 0 .583.261.583.584h1.5c0-1.151-.932-2.084-2.083-2.084v1.5ZM1.341 7.661l2.27-4.666-1.349-.656-2.27 4.666 1.349.656Zm1.596-4.244h6.486v-1.5H2.937v1.5Zm5.911-.269 3.91 4.667 1.15-.963-3.91-4.667-1.15.963Zm-4.265 9.185c0 .507-.41.917-.916.917v1.5a2.417 2.417 0 0 0 2.416-2.417h-1.5Zm-.916.917a.917.917 0 0 1-.917-.917h-1.5a2.417 2.417 0 0 0 2.417 2.417v-1.5Zm-.917-.917c0-.506.41-.916.917-.916v-1.5a2.417 2.417 0 0 0-2.417 2.416h1.5Zm.917-.916c.506 0 .916.41.916.916h1.5a2.417 2.417 0 0 0-2.416-2.416v1.5Zm8.916.916c0 .507-.41.917-.916.917v1.5a2.417 2.417 0 0 0 2.416-2.417h-1.5Zm-.916.917a.917.917 0 0 1-.917-.917h-1.5a2.417 2.417 0 0 0 2.417 2.417v-1.5Zm-.917-.917c0-.506.41-.916.917-.916v-1.5a2.417 2.417 0 0 0-2.417 2.416h1.5Zm.917-.916c.506 0 .916.41.916.916h1.5a2.417 2.417 0 0 0-2.416-2.416v1.5ZM8.083 7.333V2.667h-1.5v4.666h1.5Z"/></g><defs><clipPath id="a"><path d="M0 0H16V16H0z"/></clipPath></defs></svg>