<svg xmlns="http://www.w3.org/2000/svg" viewBox="0 0 32 32" stroke-linejoin="round" stroke-linecap="round" stroke="currentColor" fill="none"><path d="M1.333 14.667.3 14.164l-.116.238v.265h1.15ZM20 25.15a1.15 1.15 0 1 0 0-2.3v2.3Zm-9.333-2.3a1.15 1.15 0 0 0 0 2.3v-2.3Zm16 0a1.15 1.15 0 0 0 0 2.3v-2.3ZM4 25.15a1.15 1.15 0 1 0 0-2.3v2.3ZM5.874 5.333v-1.15c-.44 0-.842.252-1.034.647l1.034.503Zm12.973 0 .881-.738a1.15 1.15 0 0 0-.881-.412v1.15ZM1.333 15.817H28v-2.3H1.333v2.3Zm28.184 1.516v4h2.3v-4h-2.3Zm-27.034 4v-6.666h-2.3v6.666h2.3ZM20 22.85h-9.333v2.3H20v-2.3Zm8 0h-1.333v2.3H28v-2.3ZM.183 21.333A3.817 3.817 0 0 0 4 25.15v-2.3a1.517 1.517 0 0 1-1.517-1.517h-2.3Zm29.334 0c0 .838-.68 1.517-1.517 1.517v2.3a3.817 3.817 0 0 0 3.817-3.817h-2.3ZM28 15.817c.838 0 1.517.679 1.517 1.516h2.3A3.817 3.817 0 0 0 28 13.517v2.3ZM2.367 15.17l4.541-9.334L4.84 4.83.3 14.164l2.067 1.006Zm3.507-8.687h12.973v-2.3H5.874v2.3Zm12.091-.411 7.82 9.333 1.763-1.477-7.82-9.333-1.763 1.477ZM9.517 24.667a2.183 2.183 0 0 1-2.184 2.183v2.3a4.483 4.483 0 0 0 4.484-4.483h-2.3ZM7.333 26.85a2.183 2.183 0 0 1-2.183-2.183h-2.3a4.483 4.483 0 0 0 4.483 4.483v-2.3ZM5.15 24.667c0-1.206.978-2.184 2.183-2.184v-2.3a4.483 4.483 0 0 0-4.483 4.484h2.3Zm2.183-2.184c1.206 0 2.184.978 2.184 2.184h2.3a4.483 4.483 0 0 0-4.484-4.484v2.3Zm18.184 2.184a2.183 2.183 0 0 1-2.184 2.183v2.3a4.483 4.483 0 0 0 4.484-4.483h-2.3Zm-2.184 2.183a2.183 2.183 0 0 1-2.183-2.183h-2.3a4.483 4.483 0 0 0 4.483 4.483v-2.3Zm-2.183-2.183c0-1.206.978-2.184 2.183-2.184v-2.3a4.483 4.483 0 0 0-4.483 4.484h2.3Zm2.183-2.184c1.206 0 2.184.978 2.184 2.184h2.3a4.483 4.483 0 0 0-4.484-4.484v2.3Zm-7.516-7.816V5.333h-2.3v9.334h2.3Z"/></svg>