<svg xmlns="http://www.w3.org/2000/svg" viewBox="0 0 48 48" stroke-linejoin="round" stroke-linecap="round" stroke="currentColor" fill="none"><path d="m2 22-1.349-.656-.151.31V22H2Zm28 15.5a1.5 1.5 0 0 0 0-3v3Zm-14-3a1.5 1.5 0 0 0 0 3v-3Zm24 0a1.5 1.5 0 0 0 0 3v-3Zm-34 3a1.5 1.5 0 0 0 0-3v3ZM8.81 8V6.5a1.5 1.5 0 0 0-1.348.844L8.811 8Zm19.46 0 1.15-.963a1.5 1.5 0 0 0-1.15-.537V8ZM2 23.5h40v-3H2v3ZM44.5 26v6h3v-6h-3Zm-41 6V22h-3v10h3ZM30 34.5H16v3h14v-3Zm12 0h-2v3h2v-3ZM.5 32A5.5 5.5 0 0 0 6 37.5v-3A2.5 2.5 0 0 1 3.5 32h-3Zm44 0a2.5 2.5 0 0 1-2.5 2.5v3a5.5 5.5 0 0 0 5.5-5.5h-3ZM42 23.5a2.5 2.5 0 0 1 2.5 2.5h3a5.5 5.5 0 0 0-5.5-5.5v3Zm-38.651-.844 6.81-14-2.697-1.312-6.81 14 2.697 1.312ZM8.81 9.5h19.46v-3H8.81v3Zm18.31-.537 11.73 14 2.299-1.926-11.73-14-2.3 1.926ZM14.5 37a3.5 3.5 0 0 1-3.5 3.5v3a6.5 6.5 0 0 0 6.5-6.5h-3ZM11 40.5A3.5 3.5 0 0 1 7.5 37h-3a6.5 6.5 0 0 0 6.5 6.5v-3ZM7.5 37a3.5 3.5 0 0 1 3.5-3.5v-3A6.5 6.5 0 0 0 4.5 37h3Zm3.5-3.5a3.5 3.5 0 0 1 3.5 3.5h3a6.5 6.5 0 0 0-6.5-6.5v3ZM38.5 37a3.5 3.5 0 0 1-3.5 3.5v3a6.5 6.5 0 0 0 6.5-6.5h-3ZM35 40.5a3.5 3.5 0 0 1-3.5-3.5h-3a6.5 6.5 0 0 0 6.5 6.5v-3ZM31.5 37a3.5 3.5 0 0 1 3.5-3.5v-3a6.5 6.5 0 0 0-6.5 6.5h3Zm3.5-3.5a3.5 3.5 0 0 1 3.5 3.5h3a6.5 6.5 0 0 0-6.5-6.5v3ZM23.5 22V8h-3v14h3Z"/></svg>