<svg xmlns="http://www.w3.org/2000/svg" viewBox="0 0 40 40" stroke-linejoin="round" stroke-linecap="round" stroke="currentColor" fill="none"><path d="m1.667 18.333-1.124-.546-.126.258v.288h1.25ZM25 31.25a1.25 1.25 0 0 0 0-2.5v2.5Zm-11.667-2.5a1.25 1.25 0 1 0 0 2.5v-2.5Zm20 0a1.25 1.25 0 1 0 0 2.5v-2.5ZM5 31.25a1.25 1.25 0 0 0 0-2.5v2.5ZM7.342 6.667v-1.25a1.25 1.25 0 0 0-1.124.703l1.124.547Zm16.216 0 .959-.803a1.25 1.25 0 0 0-.959-.447v1.25ZM1.668 19.583H35v-2.5H1.667v2.5Zm35.416 2.084v5h2.5v-5h-2.5Zm-34.166 5v-8.334h-2.5v8.334h2.5ZM25 28.75H13.333v2.5H25v-2.5Zm10 0h-1.667v2.5H35v-2.5ZM.417 26.667A4.583 4.583 0 0 0 5 31.25v-2.5a2.083 2.083 0 0 1-2.083-2.083h-2.5Zm36.666 0c0 1.15-.932 2.083-2.083 2.083v2.5a4.583 4.583 0 0 0 4.583-4.583h-2.5ZM35 19.583c1.15 0 2.083.933 2.083 2.084h2.5A4.583 4.583 0 0 0 35 17.083v2.5ZM2.79 18.88 8.467 7.213 6.218 6.12.543 17.786 2.79 18.88ZM7.343 7.917h16.216v-2.5H7.343v2.5ZM22.6 7.469l9.775 11.667 1.916-1.605-9.774-11.667L22.6 7.469ZM12.083 30.833a2.917 2.917 0 0 1-2.916 2.917v2.5a5.417 5.417 0 0 0 5.416-5.417h-2.5ZM9.167 33.75a2.917 2.917 0 0 1-2.917-2.917h-2.5a5.417 5.417 0 0 0 5.417 5.417v-2.5ZM6.25 30.833a2.917 2.917 0 0 1 2.917-2.916v-2.5a5.417 5.417 0 0 0-5.417 5.416h2.5Zm2.917-2.916a2.917 2.917 0 0 1 2.916 2.916h2.5a5.417 5.417 0 0 0-5.416-5.416v2.5Zm22.916 2.916a2.917 2.917 0 0 1-2.916 2.917v2.5a5.417 5.417 0 0 0 5.416-5.417h-2.5Zm-2.916 2.917a2.917 2.917 0 0 1-2.917-2.917h-2.5a5.417 5.417 0 0 0 5.417 5.417v-2.5Zm-2.917-2.917a2.917 2.917 0 0 1 2.917-2.916v-2.5a5.417 5.417 0 0 0-5.417 5.416h2.5Zm2.917-2.916a2.917 2.917 0 0 1 2.916 2.916h2.5a5.417 5.417 0 0 0-5.416-5.416v2.5Zm-9.584-9.584V6.667h-2.5v11.666h2.5Z"/></svg>