<?xml version="1.0" encoding="utf-8"?>
<!-- Generator: Adobe Illustrator 16.0.0, SVG Export Plug-In . SVG Version: 6.00 Build 0)  -->
<!DOCTYPE svg PUBLIC "-//W3C//DTD SVG 1.1//EN" "http://www.w3.org/Graphics/SVG/1.1/DTD/svg11.dtd">
<svg version="1.1" id="Ebene_1" xmlns="http://www.w3.org/2000/svg" xmlns:xlink="http://www.w3.org/1999/xlink" x="0px" y="0px"
	 width="19.285px" height="28.801px" viewBox="0 0 19.285 28.801" enable-background="new 0 0 19.285 28.801" xml:space="preserve">
<path fill="none" stroke="#003a56" stroke-width="1.5" stroke-linecap="round" stroke-linejoin="round" stroke-miterlimit="10" d="
	M1.578,2.923C1.159,3.588,1.165,4.287,1.136,5.257L0.751,18.789C0.72,19.874,1.129,20.923,1.884,21.7
	c0.273,0.28,0.584,0.515,0.918,0.702l-1.756,5.648h2.596l0.668-1.675h10.663l0.669,1.675h2.596l-1.756-5.648
	c0.334-0.188,0.645-0.422,0.917-0.702c0.755-0.777,1.164-1.826,1.134-2.911L18.147,5.257c-0.071-2.51-2.126-4.507-4.637-4.507H9.642
	H5.773h-4.17"/>
<path fill="none" stroke="#003a56" stroke-width="1.5" stroke-linecap="round" stroke-linejoin="round" stroke-miterlimit="10" d="
	M3.801,5.254c0.026-0.822,0.586-1.472,1.267-1.472h9.146c0.683,0,1.241,0.649,1.268,1.472l0.163,5.039
	c0.015,0.416-0.113,0.821-0.353,1.121c-0.238,0.3-0.568,0.47-0.914,0.47H4.904c-0.345,0-0.674-0.17-0.913-0.47
	s-0.367-0.705-0.353-1.122L3.801,5.254z"/>
<line fill="none" stroke="#003a56" stroke-width="1.5" stroke-linecap="round" stroke-linejoin="round" stroke-miterlimit="10" x1="5.256" y1="23.616" x2="14.027" y2="23.616"/>
<circle fill="none" stroke="#003a56" stroke-width="1.5" stroke-linecap="round" stroke-linejoin="round" stroke-miterlimit="10" cx="5.87" cy="18.459" r="1.574"/>
<circle fill="none" stroke="#003a56" stroke-width="1.5" stroke-linecap="round" stroke-linejoin="round" stroke-miterlimit="10" cx="13.414" cy="18.459" r="1.574"/>
</svg>
