<?xml version="1.0" encoding="utf-8"?>
<!-- Generator: Adobe Illustrator 16.0.0, SVG Export Plug-In . SVG Version: 6.00 Build 0)  -->
<!DOCTYPE svg PUBLIC "-//W3C//DTD SVG 1.1//EN" "http://www.w3.org/Graphics/SVG/1.1/DTD/svg11.dtd">
<svg version="1.1" id="Ebene_1" xmlns="http://www.w3.org/2000/svg" xmlns:xlink="http://www.w3.org/1999/xlink" x="0px" y="0px"
	 width="22.729px" height="22.729px" viewBox="0 0 22.729 22.729" enable-background="new 0 0 22.729 22.729" xml:space="preserve">
<g>
	
		<rect x="2.984" y="18.068" fill="none" stroke="#003a56" stroke-width="1.5" stroke-linecap="round" stroke-linejoin="round" stroke-miterlimit="10" width="3.352" height="3.91"/>
	
		<rect x="16.392" y="18.068" fill="none" stroke="#003a56" stroke-width="1.5" stroke-linecap="round" stroke-linejoin="round" stroke-miterlimit="10" width="3.353" height="3.91"/>
	<path fill="none" stroke="#003a56" stroke-width="1.5" stroke-linecap="round" stroke-linejoin="round" stroke-miterlimit="10" d="
		M21.979,10.684c0-1.071-0.803-1.944-1.84-2.083l0.164,1.082L2.426,9.689l0.156-1.089C1.549,8.742,0.75,9.613,0.75,10.684v7.385
		h2.234h3.352h10.056h3.353h2.234V10.684z"/>
	<path fill="none" stroke="#003a56" stroke-width="1.5" stroke-linecap="round" stroke-linejoin="round" stroke-miterlimit="10" d="
		M3.424,3.455L2.583,8.601L2.426,9.689l17.877-0.007l-0.164-1.082l-0.702-4.666c-0.425-1.76-2.073-3.185-3.676-3.185H11.56H3.424"/>
	<path fill="none" stroke="#003a56" stroke-width="1.5" stroke-linecap="round" stroke-linejoin="round" stroke-miterlimit="10" d="
		M5.949,12.407c-0.811,0-1.468,0.664-1.468,1.48s0.657,1.48,1.468,1.48c0.807,0,1.465-0.664,1.465-1.48S6.756,12.407,5.949,12.407z"
		/>
	
		<ellipse fill="none" stroke="#003a56" stroke-width="1.5" stroke-linecap="round" stroke-linejoin="round" stroke-miterlimit="10" cx="16.781" cy="13.888" rx="1.467" ry="1.48"/>
</g>
</svg>
