<?xml version="1.0" encoding="utf-8"?>
<!-- Generator: Adobe Illustrator 16.0.0, SVG Export Plug-In . SVG Version: 6.00 Build 0)  -->
<!DOCTYPE svg PUBLIC "-//W3C//DTD SVG 1.1//EN" "http://www.w3.org/Graphics/SVG/1.1/DTD/svg11.dtd">
<svg version="1.1" id="Ebene_1" xmlns="http://www.w3.org/2000/svg" xmlns:xlink="http://www.w3.org/1999/xlink" x="0px" y="0px"
	 width="32.744px" height="20.247px" viewBox="0 0 32.744 20.247" enable-background="new 0 0 32.744 20.247" xml:space="preserve">
<path fill="none" stroke="#003a56" stroke-width="1.5" stroke-linecap="round" stroke-linejoin="round" stroke-miterlimit="10" d="
	M20.388,13.248c0,3.451,2.598,6.249,5.803,6.249c1.759,0,3.334-0.842,4.398-2.172c0.875-1.094,1.404-2.519,1.404-4.077
	c0-3.452-2.597-6.249-5.803-6.249c-0.68,0-1.334,0.126-1.941,0.358l-3.232,3.061C20.615,11.268,20.388,12.229,20.388,13.248"/>
<path fill="none" stroke="#003a56" stroke-width="1.5" stroke-linecap="round" stroke-linejoin="round" stroke-miterlimit="10" d="
	M5.859,6.999c-3.182,0.413-5.451,3.536-5.066,6.976c0.381,3.439,3.271,5.891,6.453,5.477c3.181-0.414,5.449-3.536,5.066-6.976"/>
<path fill="none" stroke="#003a56" stroke-width="1.5" stroke-linecap="round" stroke-linejoin="round" stroke-miterlimit="10" d="
	M25.746,13.248c0,0-6.25-5.897-6.25-12.498h3.125c1.41,0,2.461,3.022-0.47,3.475"/>
<polyline fill="none" stroke="#003a56" stroke-width="1.5" stroke-linecap="round" stroke-linejoin="round" stroke-miterlimit="10" points="
	6.999,13.248 10.072,2.535 20.388,3.032 6.999,13.248 "/>
<line fill="none" stroke="#003a56" stroke-width="1.5" stroke-linecap="round" stroke-linejoin="round" stroke-miterlimit="10" x1="11.462" y1="0.75" x2="5.212" y2="0.75"/>
</svg>
