<?xml version="1.0" encoding="utf-8"?>
<!-- Generator: Adobe Illustrator 16.0.0, SVG Export Plug-In . SVG Version: 6.00 Build 0)  -->
<!DOCTYPE svg PUBLIC "-//W3C//DTD SVG 1.1//EN" "http://www.w3.org/Graphics/SVG/1.1/DTD/svg11.dtd">
<svg version="1.1" id="Ebene_1" xmlns="http://www.w3.org/2000/svg" xmlns:xlink="http://www.w3.org/1999/xlink" x="0px" y="0px"
	 width="16.508px" height="26.992px" viewBox="0 0 16.508 26.992" enable-background="new 0 0 16.508 26.992" xml:space="preserve">
<path fill="none" stroke="#003a56" stroke-width="1.5" stroke-miterlimit="10" d="M8.252,5.253C7.01,5.253,6,4.243,6,3.001
	C6,1.76,7.01,0.75,8.252,0.75c1.24,0,2.25,1.01,2.25,2.251C10.502,4.243,9.492,5.253,8.252,5.253z"/>
<path fill="none" stroke="#003a56" stroke-width="1.5" stroke-linejoin="round" stroke-miterlimit="10" d="M12.729,26.242
	c-0.562,0-1.058-0.34-1.264-0.866c0-0.001-0.001-0.001-0.001-0.002L7.49,17.44l-0.729,3.024c-0.01,0.04-0.028,0.079-0.053,0.112
	l-3.653,4.644c-0.012,0.017-0.025,0.031-0.04,0.045c-0.246,0.227-0.566,0.352-0.904,0.352c-0.751,0-1.361-0.612-1.361-1.365
	c0-0.189,0.041-0.377,0.121-0.556c0.01-0.023,0.023-0.046,0.039-0.065l3.265-3.868c0.007-0.011,0.015-0.021,0.022-0.032l0.045-0.055
	l0.779-5.227l0.115-2.843l-1.332,0.815L3.33,15.377c-0.127,0.575-0.627,0.978-1.193,0.978c-0.671,0-1.217-0.548-1.217-1.221
	c0-0.136,0.023-0.271,0.067-0.4l0.591-3.614c0.01-0.064,0.04-0.124,0.086-0.17l1.97-1.756c0.853-0.633,2.05-1.712,2.745-1.712
	c0.012,0,2.326,0.172,2.326,0.172c0.008,0,0.017,0,0.022,0.001c0.487,0.054,0.937,0.282,1.267,0.644
	c0.014,0.016,0.027,0.032,0.037,0.051l0.371,0.625c0.006,0.009,0.01,0.019,0.016,0.028l1.896,3.206l2.435,0.68
	c0.587,0.1,1.01,0.602,1.01,1.203c0,0.673-0.545,1.221-1.217,1.221c-0.182,0-0.363-0.042-0.529-0.122l-3.207-1.062
	c-0.068-0.023-0.127-0.071-0.166-0.134l-1.077-1.776L9.42,15.078l4.598,9.378c0.006,0.014,0.012,0.028,0.018,0.044
	c0.037,0.118,0.055,0.241,0.055,0.378C14.09,25.63,13.479,26.242,12.729,26.242z"/>
</svg>
