<svg xmlns="http://www.w3.org/2000/svg" viewBox="0 0 48 48" stroke-linejoin="round" stroke-linecap="round" stroke="currentColor" fill="none"><path stroke-width="3" d="m15 41 9-19m-3.12 7.114C21.929 32.2 24.312 34 27 34c4.97 0 9-3.796 9-9.771a12.399 12.399 0 0 0-1.118-5.164 12.192 12.192 0 0 0-3.158-4.199 11.928 11.928 0 0 0-4.606-2.446 11.796 11.796 0 0 0-5.19-.237 11.886 11.886 0 0 0-4.801 2.019 12.135 12.135 0 0 0-3.513 3.895 12.417 12.417 0 0 0-.893 10.284M43.999 24c0 11.046-8.954 20-20 20S4 35.046 4 24 12.954 4 24 4s20 8.954 20 20Z"/></svg>