<svg xmlns="http://www.w3.org/2000/svg" viewBox="0 0 56 56" stroke-linejoin="round" stroke-linecap="round" stroke="currentColor" fill="none"><path stroke-width="3.5" d="M17.5 47.833 28 25.667m-3.64 8.3c1.224 3.6 4.004 5.7 7.14 5.7 5.799 0 10.5-4.43 10.5-11.4a14.464 14.464 0 0 0-1.305-6.024 14.223 14.223 0 0 0-3.684-4.899 13.918 13.918 0 0 0-5.373-2.854 13.761 13.761 0 0 0-6.055-.276 13.867 13.867 0 0 0-5.601 2.355 14.16 14.16 0 0 0-4.1 4.544 14.485 14.485 0 0 0-1.042 11.999M51.333 28c0 12.887-10.446 23.333-23.333 23.333C15.113 51.333 4.667 40.887 4.667 28 4.667 15.113 15.113 4.667 28 4.667c12.887 0 23.333 10.446 23.333 23.333Z"/></svg>