<svg xmlns="http://www.w3.org/2000/svg" viewBox="0 0 40 40" stroke-linejoin="round" stroke-linecap="round" stroke="currentColor" fill="none"><path stroke-width="2.5" d="M12.5 34.167 20 18.333m-2.6 5.929c.874 2.571 2.86 4.071 5.1 4.071 4.142 0 7.5-3.163 7.5-8.142a10.33 10.33 0 0 0-.932-4.303 10.16 10.16 0 0 0-2.632-3.5A9.941 9.941 0 0 0 22.6 10.35a9.83 9.83 0 0 0-4.325-.197 9.904 9.904 0 0 0-4.002 1.682 10.113 10.113 0 0 0-2.928 3.246 10.347 10.347 0 0 0-.745 8.57M36.668 20c0 9.205-7.462 16.667-16.667 16.667-9.205 0-16.667-7.462-16.667-16.667 0-9.205 7.462-16.667 16.667-16.667 9.205 0 16.667 7.462 16.667 16.667Z"/></svg>