<svg xmlns="http://www.w3.org/2000/svg" viewBox="0 0 24 24" stroke-linejoin="round" stroke-linecap="round" stroke="currentColor" fill="none"><path stroke-width="2" d="M7.5 20.5 12 11m-1.56 3.557C10.964 16.1 12.156 17 13.5 17c2.485 0 4.5-1.898 4.5-4.886a6.2 6.2 0 0 0-.56-2.582 6.096 6.096 0 0 0-1.578-2.099 5.965 5.965 0 0 0-2.303-1.223 5.898 5.898 0 0 0-2.595-.118 5.943 5.943 0 0 0-2.4 1.009 6.068 6.068 0 0 0-1.757 1.947 6.208 6.208 0 0 0-.447 5.142M22 12c0 5.523-4.477 10-10 10S2 17.523 2 12 6.477 2 12 2s10 4.477 10 10Z"/></svg>