<svg xmlns="http://www.w3.org/2000/svg" viewBox="0 0 32 32" stroke-linejoin="round" stroke-linecap="round" stroke="currentColor" fill="none"><path stroke-width="2.3" d="m10 27.333 6-12.666m-2.08 4.743c.7 2.056 2.288 3.257 4.08 3.257 3.314 0 6-2.531 6-6.515a8.267 8.267 0 0 0-.746-3.442 8.127 8.127 0 0 0-2.105-2.8 7.952 7.952 0 0 0-3.07-1.63 7.864 7.864 0 0 0-3.46-.158 7.924 7.924 0 0 0-3.201 1.346 8.092 8.092 0 0 0-2.342 2.597 8.278 8.278 0 0 0-.596 6.856M29.333 16c0 7.364-5.97 13.333-13.333 13.333-7.364 0-13.333-5.97-13.333-13.333C2.667 8.636 8.637 2.667 16 2.667c7.364 0 13.333 5.97 13.333 13.333Z"/></svg>