<svg xmlns="http://www.w3.org/2000/svg" viewBox="0 0 16 16" stroke-linejoin="round" stroke-linecap="round" stroke="currentColor" fill="none"><g clip-path="url(#a)"><path stroke-width="1.5" d="m5 13.667 3-6.334M6.96 9.705c.35 1.028 1.144 1.628 2.04 1.628 1.657 0 3-1.265 3-3.257 0-.594-.127-1.182-.373-1.721a4.065 4.065 0 0 0-1.053-1.4A3.977 3.977 0 0 0 9.04 4.14a3.932 3.932 0 0 0-3.33.594c-.479.34-.879.784-1.171 1.298a4.123 4.123 0 0 0-.298 3.429M14.667 8A6.667 6.667 0 1 1 1.333 8a6.667 6.667 0 0 1 13.334 0Z"/></g><defs><clipPath id="a"><path d="M0 0H16V16H0z"/></clipPath></defs></svg>